<svg width="293" height="276" viewBox="0 0 293 276" fill="none" xmlns="http://www.w3.org/2000/svg">
<g clip-path="url(#clip0_337_429)">
<g opacity="0.2">
<path fill-rule="evenodd" clip-rule="evenodd" d="M115.402 276.677L197.76 222.923L197.76 138.394L197.76 138.283L197.76 53.7539L115.402 0L115.402 138.283L115.402 276.677Z" fill="#33373A"/>
<path d="M197.76 222.923L198.034 223.342L198.26 223.194L198.26 222.923L197.76 222.923ZM115.402 276.677L114.902 276.677L114.902 277.6L115.676 277.095L115.402 276.677ZM197.76 138.283L197.26 138.283L197.76 138.283ZM197.76 53.7539L198.26 53.7539L198.26 53.4832L198.034 53.3352L197.76 53.7539ZM115.402 0L115.676 -0.418707L114.902 -0.923419L114.902 2.04278e-09L115.402 0ZM115.402 138.283L114.902 138.283V138.283L115.402 138.283ZM197.487 222.504L115.129 276.258L115.676 277.095L198.034 223.342L197.487 222.504ZM197.26 138.394L197.26 222.923L198.26 222.923L198.26 138.394L197.26 138.394ZM198.26 138.394L198.26 138.283L197.26 138.283L197.26 138.394L198.26 138.394ZM198.26 138.283L198.26 53.7539L197.26 53.7539L197.26 138.283L198.26 138.283ZM198.034 53.3352L115.676 -0.418707L115.129 0.418707L197.487 54.1727L198.034 53.3352ZM114.902 2.04278e-09L114.902 138.283L115.902 138.283L115.902 -2.04301e-09L114.902 2.04278e-09ZM115.902 276.677L115.902 138.283L114.902 138.283L114.902 276.677L115.902 276.677Z" fill="#33373A"/>
</g>
<g opacity="0.2">
<path fill-rule="evenodd" clip-rule="evenodd" d="M202.061 221.536L284.419 189.2L284.419 138.394L284.419 87.4783L202.061 55.1426L202.061 138.285L202.061 221.536Z" fill="#33373A"/>
<path d="M284.419 189.2L284.601 189.666L284.919 189.541L284.919 189.2L284.419 189.2ZM202.061 221.536L201.561 221.536L201.561 222.27L202.243 222.002L202.061 221.536ZM284.419 138.394L284.919 138.394V138.394L284.419 138.394ZM284.419 87.4783L284.919 87.4783L284.919 87.1375L284.601 87.0129L284.419 87.4783ZM202.061 55.1426L202.243 54.6772L201.561 54.4091L201.561 55.1426L202.061 55.1426ZM202.061 138.285L201.561 138.285V138.285L202.061 138.285ZM284.236 188.735L201.878 221.071L202.243 222.002L284.601 189.666L284.236 188.735ZM283.919 138.394L283.919 189.2L284.919 189.2L284.919 138.394L283.919 138.394ZM284.919 138.394L284.919 87.4783L283.919 87.4783L283.919 138.394L284.919 138.394ZM284.601 87.0129L202.243 54.6772L201.878 55.608L284.236 87.9438L284.601 87.0129ZM201.561 55.1426L201.561 138.285L202.561 138.285L202.561 55.1426L201.561 55.1426ZM202.561 221.536L202.561 138.285L201.561 138.285L201.561 221.536L202.561 221.536Z" fill="#33373A"/>
</g>
<g opacity="0.2">
<path fill-rule="evenodd" clip-rule="evenodd" d="M288.72 187.876L371.078 168.615L371.078 138.391L371.078 138.286L371.078 108.062L288.72 88.8008L288.72 138.286L288.72 187.876Z" fill="#33373A"/>
<path d="M371.078 168.615L371.192 169.101L371.578 169.011L371.578 168.615L371.078 168.615ZM288.72 187.876L288.22 187.876L288.22 188.506L288.834 188.363L288.72 187.876ZM371.078 138.391L371.578 138.391L371.578 138.391L371.078 138.391ZM371.078 138.286L370.578 138.286L370.578 138.286L371.078 138.286ZM371.078 108.062L371.578 108.062L371.578 107.666L371.192 107.575L371.078 108.062ZM288.72 88.8008L288.834 88.3139L288.22 88.1704L288.22 88.8008L288.72 88.8008ZM288.72 138.286L288.22 138.286L288.22 138.286L288.72 138.286ZM370.964 168.128L288.606 187.389L288.834 188.363L371.192 169.101L370.964 168.128ZM370.578 138.391L370.578 168.615L371.578 168.615L371.578 138.391L370.578 138.391ZM371.578 138.391L371.578 138.286L370.578 138.286L370.578 138.391L371.578 138.391ZM371.578 138.286L371.578 108.062L370.578 108.062L370.578 138.286L371.578 138.286ZM371.192 107.575L288.834 88.3139L288.606 89.2876L370.964 108.549L371.192 107.575ZM288.22 88.8008L288.22 138.286L289.22 138.286L289.22 88.8008L288.22 88.8008ZM289.22 187.876L289.22 138.286L288.22 138.286L288.22 187.876L289.22 187.876Z" fill="#33373A"/>
</g>
<path d="M0.708496 148.813C27.5191 148.813 87.7674 148.813 114.275 148.813" stroke="url(#paint0_linear_337_429)" stroke-dasharray="2 2"/>
<path d="M0.0175772 148.799C29.8491 148.383 95.0122 151.809 115.403 169.778" stroke="url(#paint1_linear_337_429)" stroke-dasharray="2 2"/>
<path d="M0.00634579 148.809C21.0584 148.477 73.9453 155.952 114.274 191.491" stroke="url(#paint2_linear_337_429)" stroke-dasharray="2 2"/>
<path d="M0.708493 148.814C59.6161 148.814 94.7339 182.756 114.842 212.455" stroke="url(#paint3_linear_337_429)" stroke-dasharray="2 2"/>
<path d="M0.00634394 148.799C65.9941 148.799 107.76 209.709 114.841 233.918" stroke="url(#paint4_linear_337_429)" stroke-dasharray="2 2"/>
<path d="M0.0644485 148.798C61.8041 148.798 95.5242 202.871 114.556 255.381" stroke="url(#paint5_linear_337_429)" stroke-dasharray="2 2"/>
<path d="M0.283203 148.805C27.0938 148.805 87.3421 148.805 113.85 148.805" stroke="url(#paint6_linear_337_429)" stroke-dasharray="2 2"/>
<path d="M0.0156259 148.803C29.8471 149.219 94.5923 145.81 114.983 127.841" stroke="url(#paint7_linear_337_429)" stroke-dasharray="2 2"/>
<path d="M0.0112323 148.803C21.0633 149.136 73.5216 141.667 113.85 106.128" stroke="url(#paint8_linear_337_429)" stroke-dasharray="2 2"/>
<path d="M0.283206 148.805C59.1908 148.805 94.3086 114.863 114.417 85.1641" stroke="url(#paint9_linear_337_429)" stroke-dasharray="2 2"/>
<path d="M3.71995e-06 148.804C65.9878 148.804 107.336 87.9097 114.417 63.7012" stroke="url(#paint10_linear_337_429)" stroke-dasharray="2 2"/>
<path d="M0.0156297 148.803C61.7553 148.803 95.1022 94.7472 114.134 42.2373" stroke="url(#paint11_linear_337_429)" stroke-dasharray="2 2"/>
<circle cx="141.507" cy="217.678" r="3.35823" transform="rotate(-90 141.507 217.678)" fill="#33373A" stroke="#DBE5E6"/>
<circle cx="162.084" cy="211.961" r="3.35823" transform="rotate(-90 162.084 211.961)" fill="#33373A" stroke="#DBE5E6"/>
<circle cx="133.79" cy="183.953" r="3.35823" transform="rotate(-90 133.79 183.953)" fill="#33373A" stroke="#DBE5E6"/>
<circle cx="133.79" cy="161.147" r="3.35823" transform="rotate(-90 133.79 161.147)" fill="#33373A" stroke="#DBE5E6"/>
<circle cx="222.559" cy="180.095" r="3.35823" transform="rotate(-90 222.559 180.095)" fill="#33373A" stroke="#DBE5E6"/>
<circle cx="223.789" cy="130.624" r="3.35823" transform="rotate(-90 223.789 130.624)" fill="#33373A" stroke="#EDF67D"/>
<circle cx="223.789" cy="107.818" r="3.35823" transform="rotate(-90 223.789 107.818)" fill="#33373A" stroke="#DBE5E6"/>
<circle cx="273.035" cy="153.43" r="3.35823" transform="rotate(-90 273.035 153.43)" fill="#33373A" stroke="#EDF67D"/>
<circle cx="244.741" cy="125.422" r="3.35823" transform="rotate(-90 244.741 125.422)" fill="#33373A" stroke="#DBE5E6"/>
<circle cx="244.741" cy="102.615" r="3.35823" transform="rotate(-90 244.741 102.615)" fill="#33373A" stroke="#DBE5E6"/>
<circle cx="160.439" cy="174.003" r="3.35823" transform="rotate(-90 160.439 174.003)" fill="#33373A" stroke="#EDF67D"/>
<circle cx="133.79" cy="138.341" r="3.35823" transform="rotate(-90 133.79 138.341)" fill="#33373A" stroke="#DBE5E6"/>
<circle cx="145.365" cy="97.6144" r="3.35823" transform="rotate(-90 145.365 97.6144)" fill="#33373A" stroke="#EDF67D"/>
<circle cx="164.298" cy="107.818" r="3.35823" transform="rotate(-90 164.298 107.818)" fill="#33373A" stroke="#DBE5E6"/>
<circle cx="133.79" cy="69.9211" r="3.35823" transform="rotate(-90 133.79 69.9211)" fill="#33373A" stroke="#DBE5E6"/>
<circle cx="162.084" cy="67.5597" r="3.35823" transform="rotate(-90 162.084 67.5597)" fill="#33373A" stroke="#DBE5E6"/>
<circle cx="133.79" cy="24.3078" r="3.35823" transform="rotate(-90 133.79 24.3078)" fill="#33373A" stroke="#DBE5E6"/>
</g>
<defs>
<linearGradient id="paint0_linear_337_429" x1="0.708496" y1="148.313" x2="114.275" y2="148.313" gradientUnits="userSpaceOnUse">
<stop offset="0.859375" stop-color="#404E51"/>
<stop offset="1" stop-color="#404E51" stop-opacity="0"/>
</linearGradient>
<linearGradient id="paint1_linear_337_429" x1="0.0175777" y1="159.273" x2="115.403" y2="159.273" gradientUnits="userSpaceOnUse">
<stop offset="0.859375" stop-color="#404E51"/>
<stop offset="1" stop-color="#404E51" stop-opacity="0"/>
</linearGradient>
<linearGradient id="paint2_linear_337_429" x1="0.00634672" y1="170.145" x2="114.274" y2="170.145" gradientUnits="userSpaceOnUse">
<stop offset="0.859375" stop-color="#404E51"/>
<stop offset="1" stop-color="#404E51" stop-opacity="0"/>
</linearGradient>
<linearGradient id="paint3_linear_337_429" x1="0.708495" y1="180.635" x2="114.842" y2="180.635" gradientUnits="userSpaceOnUse">
<stop offset="0.859375" stop-color="#404E51"/>
<stop offset="1" stop-color="#404E51" stop-opacity="0"/>
</linearGradient>
<linearGradient id="paint4_linear_337_429" x1="0.0063458" y1="191.358" x2="114.841" y2="191.358" gradientUnits="userSpaceOnUse">
<stop offset="0.859375" stop-color="#404E51"/>
<stop offset="1" stop-color="#404E51" stop-opacity="0"/>
</linearGradient>
<linearGradient id="paint5_linear_337_429" x1="0.0644508" y1="202.09" x2="114.556" y2="202.09" gradientUnits="userSpaceOnUse">
<stop offset="0.859375" stop-color="#404E51"/>
<stop offset="1" stop-color="#404E51" stop-opacity="0"/>
</linearGradient>
<linearGradient id="paint6_linear_337_429" x1="0.283203" y1="149.305" x2="113.85" y2="149.305" gradientUnits="userSpaceOnUse">
<stop offset="0.859375" stop-color="#404E51"/>
<stop offset="1" stop-color="#404E51" stop-opacity="0"/>
</linearGradient>
<linearGradient id="paint7_linear_337_429" x1="0.0156255" y1="138.338" x2="114.983" y2="138.338" gradientUnits="userSpaceOnUse">
<stop offset="0.859375" stop-color="#404E51"/>
<stop offset="1" stop-color="#404E51" stop-opacity="0"/>
</linearGradient>
<linearGradient id="paint8_linear_337_429" x1="0.0112314" y1="127.471" x2="113.85" y2="127.471" gradientUnits="userSpaceOnUse">
<stop offset="0.859375" stop-color="#404E51"/>
<stop offset="1" stop-color="#404E51" stop-opacity="0"/>
</linearGradient>
<linearGradient id="paint9_linear_337_429" x1="0.283205" y1="116.984" x2="114.417" y2="116.984" gradientUnits="userSpaceOnUse">
<stop offset="0.859375" stop-color="#404E51"/>
<stop offset="1" stop-color="#404E51" stop-opacity="0"/>
</linearGradient>
<linearGradient id="paint10_linear_337_429" x1="1.85998e-06" y1="106.252" x2="114.417" y2="106.252" gradientUnits="userSpaceOnUse">
<stop offset="0.859375" stop-color="#404E51"/>
<stop offset="1" stop-color="#404E51" stop-opacity="0"/>
</linearGradient>
<linearGradient id="paint11_linear_337_429" x1="0.0156273" y1="95.5202" x2="114.134" y2="95.5202" gradientUnits="userSpaceOnUse">
<stop offset="0.859375" stop-color="#404E51"/>
<stop offset="1" stop-color="#404E51" stop-opacity="0"/>
</linearGradient>
<clipPath id="clip0_337_429">
<rect width="298" height="276" fill="white"/>
</clipPath>
</defs>
</svg>
