<svg width="41" height="40" viewBox="0 0 41 40" fill="none" xmlns="http://www.w3.org/2000/svg">
<g clip-path="url(#clip0_310_6137)">

<path d="M20.998 15L20.998 22.5" stroke="#B0CDCF" stroke-linecap="round" stroke-linejoin="round"/>
<path d="M21.0006 26.5363C21.4787 26.5363 21.8663 26.1486 21.8663 25.6705C21.8663 25.1923 21.4787 24.8047 21.0006 24.8047C20.5224 24.8047 20.1348 25.1923 20.1348 25.6705C20.1348 26.1486 20.5224 26.5363 21.0006 26.5363Z" fill="#B0CDCF"/>
<path d="M22.5391 8.44205C22.3938 8.15841 22.1731 7.92038 21.9012 7.75416C21.6292 7.58795 21.3167 7.5 20.998 7.5C20.6794 7.5 20.3668 7.58795 20.0949 7.75416C19.823 7.92038 19.6023 8.15841 19.4569 8.44205L9.93328 27.4894C9.80045 27.753 9.73721 28.0461 9.74956 28.3411C9.76192 28.636 9.84946 28.9228 10.0039 29.1744C10.1583 29.426 10.3744 29.6339 10.6318 29.7784C10.8892 29.9229 11.1792 29.9993 11.4744 30.0002L30.5217 30.0002C30.8169 29.9993 31.1069 29.9229 31.3643 29.7784C31.6217 29.6339 31.8378 29.426 31.9922 29.1744C32.1466 28.9228 32.2342 28.636 32.2465 28.3411C32.2589 28.0461 32.1956 27.753 32.0628 27.4894L22.5391 8.44205Z" stroke="#B0CDCF" stroke-linecap="round" stroke-linejoin="round"/>
</g>
<defs>
<clipPath id="clip0_310_6137">
<rect width="40" height="40" fill="white" transform="translate(0.998047)"/>
</clipPath>
</defs>
</svg>
