<svg width="309" height="791" viewBox="0 0 309 791" fill="none" xmlns="http://www.w3.org/2000/svg">
<g id="Group 252">
<text id="Define Patterns and Words" fill="#B0CDCF" xml:space="preserve" style="white-space: pre" font-family="IBM Plex Sans" font-size="12" letter-spacing="0em"><tspan x="109.592" y="178.793">Define Patterns </tspan><tspan x="122.482" y="194.793">and Words</tspan></text>
<text id="Filter by Topic" fill="#B0CDCF" xml:space="preserve" style="white-space: pre" font-family="IBM Plex Sans" font-size="12" letter-spacing="0em"><tspan x="20.3208" y="412.88">Filter by Topic</tspan></text>
<text id="Search for Lead User Posts" fill="#B0CDCF" xml:space="preserve" style="white-space: pre" font-family="IBM Plex Sans" font-size="12" letter-spacing="0em"><tspan x="201.828" y="407.45">Search for Lead </tspan><tspan x="214.965" y="423.45">User Posts</tspan></text>
<text id="Prepare for Manual Analysis" fill="#DBE5E6" xml:space="preserve" style="white-space: pre" font-family="IBM Plex Sans" font-size="12" letter-spacing="0em"><tspan x="98.2039" y="629.181">Prepare for Manual </tspan><tspan x="127.102" y="645.181">Analysis</tspan></text>
<g id="Group 234">
<g id="Group 197">
<g id="Group 188">
<rect id="Rectangle 257" x="86.8408" y="2" width="128.682" height="128.682" fill="#232425" stroke="#404E51" stroke-width="3"/>
<g id="Group 187">
<path id="Vector 342" d="M171.87 23.9253C166.544 23.9253 161.052 27.6848 156.845 34.6779C152.63 41.685 149.651 52.0095 149.354 65.3496L150.353 65.3719C150.648 52.1592 153.598 42.0159 157.702 35.1934C161.815 28.3571 167.035 24.9253 171.87 24.9253V23.9253Z" fill="#404E51"/>
<path id="Vector 343" d="M178.861 36.1068C173.532 38.7362 163.019 48.2387 163.019 65.3616H164.019C164.019 48.6815 174.257 39.4939 179.304 37.0036L178.861 36.1068Z" fill="#404E51"/>
<path id="Vector 344" d="M149.095 46.2881C146.875 46.288 143.609 47.2694 140.901 50.1605C138.185 53.0596 136.068 57.8358 136.068 65.3607H137.068C137.068 58.027 139.127 53.5168 141.631 50.8442C144.142 48.1636 147.139 47.288 149.095 47.2881L149.095 46.2881Z" fill="#404E51"/>
<path id="Vector 345" d="M132.853 52.6876C134.572 52.406 137.169 52.7039 139.33 54.5199C141.479 56.3248 143.28 59.7008 143.28 65.7409H144.28C144.28 59.5008 142.412 55.8029 139.974 53.7542C137.548 51.7166 134.641 51.3813 132.691 51.7008L132.853 52.6876Z" fill="#404E51"/>
<path id="Vector 346" d="M128.276 31.2542C131.209 33.7057 135.633 38.3903 139.32 44.4427C143.008 50.4955 145.938 57.8801 145.938 65.7416H146.938C146.938 57.6362 143.92 50.0707 140.174 43.9224C136.428 37.7738 131.931 33.0064 128.917 30.487L128.276 31.2542Z" fill="#404E51"/>
<path id="Vector 347" d="M149.474 25.6855C151.503 25.6855 152.988 26.442 154.119 27.973C155.275 29.5386 156.078 31.9405 156.62 35.2555C157.703 41.8829 157.704 51.8761 157.704 65.363H158.704C158.704 51.918 158.706 41.8225 157.606 35.0942C157.057 31.7313 156.223 29.1385 154.923 27.379C153.598 25.5848 151.81 24.6855 149.474 24.6855V25.6855Z" fill="#404E51"/>
</g>
<g id="Group 181">
<rect id="Rectangle 258" x="103.888" y="23.8662" width="24.5361" height="12.3795" fill="#232425" stroke="#DBE5E6"/>
<path id="Polygon 7" d="M99.0117 36.2417L103.887 30.6197L103.887 36.2408L99.0117 36.2417Z" fill="#232425" stroke="#DBE5E6"/>
<rect id="Rectangle 259" x="105.891" y="28.402" width="11.8161" height="0.939774" rx="0.469887" fill="#DBE5E6" stroke="#DBE5E6" stroke-width="0.939774"/>
<rect id="Rectangle 262" x="111.889" y="31.4631" width="11.8161" height="0.939774" rx="0.469887" fill="#DBE5E6" stroke="#DBE5E6" stroke-width="0.939774"/>
<rect id="Rectangle 261" x="105.891" y="31.4631" width="3.86027" height="0.939774" rx="0.469887" fill="#DBE5E6" stroke="#DBE5E6" stroke-width="0.939774"/>
<rect id="Rectangle 260" x="119.439" y="28.402" width="5.76657" height="0.939774" rx="0.469887" fill="#DBE5E6" stroke="#DBE5E6" stroke-width="0.939774"/>
</g>
<g id="Group 186">
<rect id="Rectangle 258_2" x="107.822" y="43.916" width="24.5361" height="12.3795" fill="#232425" stroke="#DBE5E6"/>
<path id="Polygon 7_2" d="M102.946 56.2915L107.821 50.6695L107.821 56.2906L102.946 56.2915Z" fill="#232425" stroke="#DBE5E6"/>
<rect id="Rectangle 259_2" x="109.825" y="48.4518" width="11.8161" height="0.939774" rx="0.469887" fill="#DBE5E6" stroke="#DBE5E6" stroke-width="0.939774"/>
<rect id="Rectangle 262_2" x="115.824" y="51.5129" width="11.8161" height="0.939774" rx="0.469887" fill="#DBE5E6" stroke="#DBE5E6" stroke-width="0.939774"/>
<rect id="Rectangle 261_2" x="109.825" y="51.5129" width="3.86027" height="0.939774" rx="0.469887" fill="#DBE5E6" stroke="#DBE5E6" stroke-width="0.939774"/>
<rect id="Rectangle 260_2" x="123.373" y="48.4518" width="5.76657" height="0.939774" rx="0.469887" fill="#DBE5E6" stroke="#DBE5E6" stroke-width="0.939774"/>
</g>
<g id="Group 185">
<rect id="Rectangle 258_3" x="124.691" y="18.729" width="24.5361" height="12.3795" fill="#232425" stroke="#DBE5E6"/>
<path id="Polygon 7_3" d="M119.815 31.1035L124.691 25.4815L124.691 31.1026L119.815 31.1035Z" fill="#232425" stroke="#DBE5E6"/>
<rect id="Rectangle 259_3" x="126.694" y="23.2648" width="11.8161" height="0.939774" rx="0.469887" fill="#DBE5E6" stroke="#DBE5E6" stroke-width="0.939774"/>
<rect id="Rectangle 262_3" x="132.693" y="26.3258" width="11.8161" height="0.939774" rx="0.469887" fill="#DBE5E6" stroke="#DBE5E6" stroke-width="0.939774"/>
<rect id="Rectangle 261_3" x="126.694" y="26.3258" width="3.86027" height="0.939774" rx="0.469887" fill="#DBE5E6" stroke="#DBE5E6" stroke-width="0.939774"/>
<rect id="Rectangle 260_3" x="140.242" y="23.2648" width="5.76657" height="0.939774" rx="0.469887" fill="#DBE5E6" stroke="#DBE5E6" stroke-width="0.939774"/>
</g>
<g id="Group 182">
<rect id="Rectangle 258_4" width="24.5361" height="12.3795" transform="matrix(-1 0 0 1 197.075 17.792)" fill="#232425" stroke="#DBE5E6"/>
<path id="Polygon 7_4" d="M201.951 30.167L197.076 24.545L197.076 30.1661L201.951 30.167Z" fill="#232425" stroke="#DBE5E6"/>
<rect id="Rectangle 259_4" x="-0.469887" y="0.469887" width="11.8161" height="0.939774" rx="0.469887" transform="matrix(-1 0 0 1 194.602 21.8579)" fill="#DBE5E6" stroke="#DBE5E6" stroke-width="0.939774"/>
<rect id="Rectangle 262_4" x="-0.469887" y="0.469887" width="11.8161" height="0.939774" rx="0.469887" transform="matrix(-1 0 0 1 187.245 24.9189)" fill="#DBE5E6" stroke="#DBE5E6" stroke-width="0.939774"/>
<rect id="Rectangle 261_4" x="-0.469887" y="0.469887" width="3.86027" height="0.939774" rx="0.469887" transform="matrix(-1 0 0 1 193.245 24.9189)" fill="#DBE5E6" stroke="#DBE5E6" stroke-width="0.939774"/>
<rect id="Rectangle 260_4" x="-0.469887" y="0.469887" width="5.76657" height="0.939774" rx="0.469887" transform="matrix(-1 0 0 1 181.054 21.8579)" fill="#DBE5E6" stroke="#DBE5E6" stroke-width="0.939774"/>
</g>
<g id="Group 183">
<rect id="Rectangle 258_5" width="24.5361" height="12.3795" transform="matrix(-1 0 0 1 173.763 38.9072)" fill="#232425" stroke="#DBE5E6"/>
<path id="Polygon 7_5" d="M178.639 51.2827L173.764 45.6607L173.764 51.2818L178.639 51.2827Z" fill="#232425" stroke="#DBE5E6"/>
<rect id="Rectangle 259_5" x="-0.469887" y="0.469887" width="11.8161" height="0.939774" rx="0.469887" transform="matrix(-1 0 0 1 171.29 42.9736)" fill="#DBE5E6" stroke="#DBE5E6" stroke-width="0.939774"/>
<rect id="Rectangle 262_5" x="-0.469887" y="0.469887" width="11.8161" height="0.939774" rx="0.469887" transform="matrix(-1 0 0 1 163.933 46.0347)" fill="#DBE5E6" stroke="#DBE5E6" stroke-width="0.939774"/>
<rect id="Rectangle 261_5" x="-0.47379" y="0.47379" width="5.50552" height="0.94758" rx="0.47379" transform="matrix(-1 0 0 1 171.317 46.0312)" fill="#DBE5E6" stroke="#DBE5E6" stroke-width="0.94758"/>
<rect id="Rectangle 260_5" x="-0.469887" y="0.469887" width="5.76657" height="0.939774" rx="0.469887" transform="matrix(-1 0 0 1 157.742 42.9736)" fill="#DBE5E6" stroke="#DBE5E6" stroke-width="0.939774"/>
</g>
<g id="Group 184">
<rect id="Rectangle 258_6" width="24.5361" height="12.3795" transform="matrix(-1 0 0 1 204.013 29.4912)" fill="#232425" stroke="#DBE5E6"/>
<path id="Polygon 7_6" d="M208.889 41.8667L204.014 36.2447L204.014 41.8658L208.889 41.8667Z" fill="#232425" stroke="#DBE5E6"/>
<rect id="Rectangle 259_6" x="-0.469887" y="0.469887" width="11.8161" height="0.939774" rx="0.469887" transform="matrix(-1 0 0 1 201.54 33.5571)" fill="#DBE5E6" stroke="#DBE5E6" stroke-width="0.939774"/>
<rect id="Rectangle 262_6" x="-0.469887" y="0.469887" width="11.8161" height="0.939774" rx="0.469887" transform="matrix(-1 0 0 1 194.184 36.6182)" fill="#DBE5E6" stroke="#DBE5E6" stroke-width="0.939774"/>
<rect id="Rectangle 261_6" x="-0.469887" y="0.469887" width="3.86027" height="0.939774" rx="0.469887" transform="matrix(-1 0 0 1 200.183 36.6182)" fill="#DBE5E6" stroke="#DBE5E6" stroke-width="0.939774"/>
<rect id="Rectangle 260_6" x="-0.469887" y="0.469887" width="5.76657" height="0.939774" rx="0.469887" transform="matrix(-1 0 0 1 187.992 33.5571)" fill="#DBE5E6" stroke="#DBE5E6" stroke-width="0.939774"/>
</g>
</g>
</g>
<g id="Group 217">
<g id="Group 171">
<g id="Group 169">
<path id="Vector 327" d="M135.681 73.5527L135.681 108.901" stroke="#404E51" stroke-width="2"/>
<path id="Vector 331" d="M126.699 73.5527L126.699 108.901" stroke="#404E51" stroke-width="2"/>
<path id="Vector 328" d="M144.664 73.5527L144.664 108.901" stroke="#404E51" stroke-width="2"/>
<path id="Vector 329" d="M153.645 73.5527L153.645 108.901" stroke="#404E51" stroke-width="2"/>
<path id="Vector 330" d="M162.627 73.5527L162.627 108.901" stroke="#404E51" stroke-width="2"/>
<path id="Vector 332" d="M171.609 73.5527L171.609 108.901" stroke="#404E51" stroke-width="2"/>
</g>
<g id="Group 170">
<path id="Vector 327_2" d="M171.609 82.3882L126.698 82.3882" stroke="#404E51" stroke-width="2"/>
<path id="Vector 332_2" d="M171.609 73.5527L126.698 73.5527" stroke="#B0CDCF" stroke-width="2"/>
<path id="Vector 328_2" d="M171.609 91.2295L126.698 91.2295" stroke="#404E51" stroke-width="2"/>
<path id="Vector 329_2" d="M171.609 100.065L126.698 100.065" stroke="#404E51" stroke-width="2"/>
<path id="Vector 330_2" d="M171.609 108.901L126.698 108.901" stroke="#404E51" stroke-width="2"/>
</g>
<rect id="Rectangle 225" x="126.699" y="65.3608" width="44.9101" height="8.19498" stroke="#404E51" stroke-width="2"/>
</g>
</g>
</g>
<g id="Group 235">
<rect id="Rectangle 224" x="87.1021" y="209.593" width="128.682" height="128.682" fill="#232425" stroke="#404E51" stroke-width="2"/>
<g id="Group 189">
<rect id="Rectangle 226" x="106.221" y="223.924" width="90.4432" height="45.2284" fill="#232425" stroke="#404E51" stroke-width="2"/>
<rect id="Rectangle 227" width="90.4432" height="45.2284" transform="matrix(-1 0 0 1 196.664 278.707)" fill="#232425" stroke="#404E51" stroke-width="2"/>
<path id="Polygon 5" d="M96.9956 269.15L106.222 261.117L106.222 269.151L96.9956 269.15Z" fill="#232425" stroke="#404E51" stroke-width="2"/>
<path id="Polygon 6" d="M205.891 323.943L196.665 315.91L196.665 323.944L205.891 323.943Z" fill="#232425" stroke="#404E51" stroke-width="2"/>
<rect id="Rectangle 228" x="112.141" y="234.169" width="49.7315" height="3.40696" rx="1.70348" fill="#232425" stroke="#404E51" stroke-width="2"/>
<rect id="Rectangle 235" x="122.144" y="256.71" width="49.7315" height="3.40696" rx="1.70348" fill="#232425" stroke="#404E51" stroke-width="2"/>
<rect id="Rectangle 230" x="112.141" y="245.442" width="14.5245" height="3.40696" rx="1.70348" fill="#232425" stroke="#404E51" stroke-width="2"/>
<rect id="Rectangle 234" x="112.141" y="256.71" width="4.35045" height="3.40696" rx="1.70348" fill="#232425" stroke="#404E51" stroke-width="2"/>
<rect id="Rectangle 231" x="132.59" y="241.933" width="56.3295" height="10.1093" rx="5.05463" fill="#EDF67D"/>
<rect id="Rectangle 229" x="166.444" y="234.169" width="16.9079" height="3.40696" rx="1.70348" fill="#232425" stroke="#404E51" stroke-width="2"/>
<rect id="Rectangle 232" x="135.063" y="244.283" width="16.5245" height="5.40696" rx="2.70348" fill="#232425"/>
<rect id="Rectangle 233" x="154.109" y="244.448" width="31.7876" height="5.36177" rx="2.68088" fill="#232425"/>
<rect id="Rectangle 236" x="-1" y="1" width="49.7315" height="3.40696" rx="1.70348" transform="matrix(-1 0 0 1 183.064 285.522)" fill="#232425" stroke="#404E51" stroke-width="2"/>
<rect id="Rectangle 237" x="-1" y="1" width="49.7315" height="3.40696" rx="1.70348" transform="matrix(-1 0 0 1 161.583 308.062)" fill="#232425" stroke="#404E51" stroke-width="2"/>
<rect id="Rectangle 238" x="-1" y="1" width="14.5245" height="3.40696" rx="1.70348" transform="matrix(-1 0 0 1 184.114 296.785)" fill="#232425" stroke="#404E51" stroke-width="2"/>
<rect id="Rectangle 239" x="-1" y="1" width="4.35045" height="3.40696" rx="1.70348" transform="matrix(-1 0 0 1 171.587 308.062)" fill="#232425" stroke="#404E51" stroke-width="2"/>
<rect id="Rectangle 240" width="56.3295" height="10.1093" rx="5.05463" transform="matrix(-1 0 0 1 167.472 294.281)" fill="#EDF67D"/>
<rect id="Rectangle 241" x="-1" y="1" width="16.9079" height="3.40696" rx="1.70348" transform="matrix(-1 0 0 1 128.76 285.522)" fill="#232425" stroke="#404E51" stroke-width="2"/>
<rect id="Rectangle 242" width="16.5245" height="5.40696" rx="2.70348" transform="matrix(-1 0 0 1 164.999 296.632)" fill="#232425"/>
<rect id="Rectangle 243" width="32.6192" height="5.40696" rx="2.70348" transform="matrix(-1 0 0 1 146.353 296.632)" fill="#232425"/>
</g>
</g>
<g id="Group 221">
<rect id="Rectangle 245" x="1.39648" y="437.707" width="128.682" height="128.682" fill="#232425" stroke="#404E51" stroke-width="2"/>
<circle id="Ellipse 314" cx="85.3012" cy="473.384" r="27.9385" stroke="#B0CDCF" stroke-width="2"/>
<circle id="Ellipse 317" cx="78.7917" cy="459.203" r="3" stroke="#EDF67D" stroke-width="2.06196"/>
<circle id="Ellipse 318" cx="97.0652" cy="462.697" r="3" stroke="#EDF67D" stroke-width="2.06196"/>
<circle id="Ellipse 319" cx="83.6277" cy="472.909" r="3" stroke="#EDF67D" stroke-width="2.06196"/>
<circle id="Ellipse 320" cx="102.977" cy="479.088" r="3" stroke="#EDF67D" stroke-width="2.06196"/>
<circle id="Ellipse 321" cx="81.4782" cy="487.151" r="3" stroke="#EDF67D" stroke-width="2.06196"/>
<circle id="Ellipse 322" cx="65.0862" cy="476.94" r="3" stroke="#EDF67D" stroke-width="2.06196"/>
<circle id="Ellipse 323" cx="50.3059" cy="501.666" r="3" stroke="#404E51" stroke-width="2.06196"/>
<circle id="Ellipse 324" cx="79.5979" cy="518.325" r="3" stroke="#404E51" stroke-width="2.06196"/>
<circle id="Ellipse 325" cx="52.4563" cy="527.999" r="3" stroke="#404E51" stroke-width="2.06196"/>
<circle id="Ellipse 326" cx="61.3239" cy="511.875" r="3" stroke="#404E51" stroke-width="2.06196"/>
<circle id="Ellipse 327" cx="26.6574" cy="511.875" r="3" stroke="#404E51" stroke-width="2.06196"/>
<circle id="Ellipse 329" cx="42.2439" cy="475.061" r="3" stroke="#404E51" stroke-width="2.06196"/>
<circle id="Ellipse 330" cx="22.6267" cy="454.367" r="3" stroke="#404E51" stroke-width="2.06196"/>
<circle id="Ellipse 331" cx="18.5954" cy="546.81" r="3" stroke="#404E51" stroke-width="2.06196"/>
<circle id="Ellipse 332" cx="58.3674" cy="542.51" r="3" stroke="#404E51" stroke-width="2.06196"/>
<circle id="Ellipse 333" cx="111.039" cy="513.219" r="3" stroke="#404E51" stroke-width="2.06196"/>
<circle id="Ellipse 334" cx="97.0652" cy="538.749" r="3" stroke="#404E51" stroke-width="2.06196"/>
<circle id="Ellipse 328" cx="28.2697" cy="487.151" r="3" stroke="#404E51" stroke-width="2.06196"/>
</g>
<g id="Group 220">
<rect id="Rectangle 244" x="179.317" y="437.326" width="128.682" height="128.682" fill="#232425" stroke="#404E51" stroke-width="2"/>
<g id="Group 171_2">
<g id="Group 169_2">
<path id="Vector 327_3" d="M209.937 470.051L209.937 505.768" stroke="#404E51" stroke-width="2"/>
<path id="Vector 331_2" d="M200.874 470.052L200.874 505.769" stroke="#404E51" stroke-width="2"/>
<path id="Vector 328_3" d="M218.999 470.051L218.999 505.768" stroke="#404E51" stroke-width="2"/>
<path id="Vector 329_3" d="M228.061 470.051L228.061 505.768" stroke="#404E51" stroke-width="2"/>
<path id="Vector 330_3" d="M237.123 470.051L237.123 505.768" stroke="#404E51" stroke-width="2"/>
<path id="Vector 332_3" d="M246.185 470.051L246.185 505.768" stroke="#404E51" stroke-width="2"/>
</g>
<g id="Group 170_2">
<path id="Vector 327_4" d="M246.185 478.979L200.873 478.979" stroke="#404E51" stroke-width="2"/>
<path id="Vector 332_4" d="M246.185 470.051L200.873 470.051" stroke="#B0CDCF" stroke-width="2"/>
<path id="Vector 328_4" d="M246.185 487.907L200.873 487.907" stroke="#404E51" stroke-width="2"/>
<path id="Vector 329_4" d="M246.185 496.838L200.873 496.838" stroke="#404E51" stroke-width="2"/>
<path id="Vector 330_4" d="M246.185 505.769L200.873 505.769" stroke="#404E51" stroke-width="2"/>
</g>
<rect id="Rectangle 225_2" x="200.875" y="461.773" width="45.3111" height="8.28041" stroke="#404E51" stroke-width="2"/>
</g>
<g id="Group 174">
<rect id="Rectangle 245_2" x="239.253" y="500.591" width="7.82397" height="40.1296" transform="rotate(-44.88 239.253 500.591)" stroke="#DBE5E6" stroke-width="2"/>
<ellipse id="Ellipse 311" cx="241.508" cy="497.311" rx="25.1242" ry="25.1242" transform="rotate(-44.88 241.508 497.311)" fill="#B0CDCF"/>
<ellipse id="Ellipse 312" cx="241.508" cy="497.312" rx="24.7004" ry="24.7003" transform="rotate(-44.88 241.508 497.312)" fill="#232425"/>
</g>
<g id="Mask Group">
<mask id="mask0_300_596" style="mask-type:alpha" maskUnits="userSpaceOnUse" x="216" y="472" width="51" height="51">
<circle id="Ellipse 313" r="24.7004" transform="matrix(0.708587 -0.705623 0.705625 0.708585 241.509 497.311)" fill="#232425"/>
</mask>
<g mask="url(#mask0_300_596)">
<g id="Group 178">
<rect id="Rectangle 245_3" width="24.8348" height="4.46362" rx="2.23181" transform="matrix(-1 0 0 1 244.752 489.194)" fill="#EDF67D"/>
<rect id="Rectangle 246" width="7.28538" height="2.38737" rx="1.19369" transform="matrix(-1 0 0 1 243.664 490.232)" fill="#232425"/>
<rect id="Rectangle 247" width="14.3813" height="2.38737" rx="1.19369" transform="matrix(-1 0 0 1 235.443 490.232)" fill="#232425"/>
<g id="Group 175">
<rect id="Rectangle 248" width="31.0665" height="4.46362" rx="2.23181" transform="matrix(-1 0 0 1 251.153 495.472)" fill="#EDF67D"/>
<rect id="Rectangle 249" width="14.3439" height="2.38737" rx="1.19369" transform="matrix(-1 0 0 1 249.79 496.51)" fill="#232425"/>
<rect id="Rectangle 250" width="12.1993" height="2.38737" rx="1.19369" transform="matrix(-1 0 0 1 233.716 496.51)" fill="#232425"/>
</g>
<g id="Group 176">
<rect id="Rectangle 248_2" width="31.0665" height="4.46362" rx="2.23181" transform="matrix(-1 0 0 1 261.74 500.799)" fill="#EDF67D"/>
<rect id="Rectangle 249_2" width="14.3439" height="2.38737" rx="1.19369" transform="matrix(-1 0 0 1 260.377 501.837)" fill="#232425"/>
<rect id="Rectangle 250_2" width="12.1993" height="2.38737" rx="1.19369" transform="matrix(-1 0 0 1 244.303 501.837)" fill="#232425"/>
</g>
<g id="Group 177">
<rect id="Rectangle 248_3" width="31.0665" height="4.46362" rx="2.23181" transform="matrix(-1 0 0 1 243.338 506.678)" fill="#EDF67D"/>
<rect id="Rectangle 249_3" width="14.3439" height="2.38737" rx="1.19369" transform="matrix(-1 0 0 1 241.975 507.716)" fill="#232425"/>
<rect id="Rectangle 250_3" width="12.1993" height="2.38737" rx="1.19369" transform="matrix(-1 0 0 1 225.901 507.716)" fill="#232425"/>
</g>
<rect id="Rectangle 248_4" x="-0.697922" y="0.697922" width="25.2743" height="1.39584" rx="0.697922" transform="matrix(-1 0 0 1 278.478 496.307)" fill="#232425" stroke="#B0CDCF" stroke-width="1.39584"/>
<rect id="Rectangle 249_4" x="-0.697922" y="0.697922" width="25.2743" height="1.39584" rx="0.697922" transform="matrix(-1 0 0 1 271.48 490.232)" fill="#232425" stroke="#B0CDCF" stroke-width="1.39584"/>
<rect id="Rectangle 250_4" x="-0.697922" y="0.697922" width="25.2743" height="1.39584" rx="0.697922" transform="matrix(-1 0 0 1 228.42 501.913)" fill="#232425" stroke="#B0CDCF" stroke-width="1.39584"/>
<rect id="Rectangle 251" x="-0.697922" y="0.697922" width="25.2743" height="1.39584" rx="0.697922" transform="matrix(-1 0 0 1 270.448 507.311)" fill="#232425" stroke="#B0CDCF" stroke-width="1.39584"/>
</g>
</g>
</g>
<g id="Ellipse 313_2" filter="url(#filter0_b_300_596)">
<circle cx="241.507" cy="497.305" r="24.7004" transform="rotate(-44.88 241.507 497.305)" fill="url(#paint0_linear_300_596)" fill-opacity="0.03"/>
</g>
<circle id="Ellipse 313_3" cx="241.507" cy="497.306" r="24.1242" transform="rotate(-44.88 241.507 497.306)" stroke="#B0CDCF" stroke-width="2"/>
</g>
<g id="Group 237">
<rect id="Rectangle 245_4" x="86.4326" y="659.057" width="130.022" height="130.214" fill="#232425" stroke="#404E51" stroke-width="2"/>
<g id="Group 193">
<g id="Group 175_2">
<g id="Group 172">
<rect id="Rectangle 224_2" x="101.866" y="679.893" width="56.3298" height="54.4007" fill="#232425" stroke="#404E51" stroke-width="2"/>
<rect id="Rectangle 225_3" x="102.016" y="679.953" width="56.1245" height="10.2565" stroke="#404E51" stroke-width="2"/>
<g id="Group 169_3">
<path id="Vector 327_5" d="M113.24 690.21L113.24 734.451" stroke="#404E51" stroke-width="2"/>
<path id="Vector 331_3" d="M102.016 690.21L102.016 734.451" stroke="#33373A" stroke-width="2"/>
<path id="Vector 328_5" d="M124.465 690.21L124.465 734.451" stroke="#404E51" stroke-width="2"/>
<path id="Vector 329_5" d="M135.691 690.21L135.691 734.451" stroke="#404E51" stroke-width="2"/>
<path id="Vector 330_5" d="M146.915 690.21L146.915 734.451" stroke="#404E51" stroke-width="2"/>
<path id="Vector 332_5" d="M158.141 690.21L158.141 734.451" stroke="#404E51" stroke-width="2"/>
</g>
<g id="Group 170_3">
<path id="Vector 327_6" d="M158.141 701.268L102.016 701.268" stroke="#404E51" stroke-width="2"/>
<path id="Vector 332_6" d="M158.141 690.208L102.016 690.208" stroke="#404E51" stroke-width="2"/>
<path id="Vector 328_6" d="M158.141 712.33L102.016 712.33" stroke="#404E51" stroke-width="2"/>
<path id="Vector 329_6" d="M158.141 723.387L102.016 723.387" stroke="#404E51" stroke-width="2"/>
<path id="Vector 330_6" d="M158.141 734.448L102.016 734.448" stroke="#404E51" stroke-width="2"/>
</g>
</g>
</g>
<rect id="Rectangle 252" x="116.032" y="706.766" width="84.1331" height="52.5079" fill="#232425" stroke="#404E51" stroke-width="2"/>
<g id="Group 179">
<rect id="Rectangle 226_2" x="129.552" y="720.095" width="56.9149" height="28.5039" fill="#232425" stroke="#DBE5E6" stroke-width="2"/>
<rect id="Rectangle 228_2" x="133.5" y="726.773" width="30.8503" height="1.70379" rx="0.851896" fill="#232425" stroke="#B0CDCF" stroke-width="1.70379"/>
<rect id="Rectangle 235_2" x="139.795" y="740.978" width="30.8503" height="1.70379" rx="0.851896" fill="#232425" stroke="#B0CDCF" stroke-width="1.70379"/>
<rect id="Rectangle 230_2" x="133.5" y="733.876" width="8.69488" height="1.70379" rx="0.851896" fill="#232425" stroke="#B0CDCF" stroke-width="1.70379"/>
<rect id="Rectangle 234_2" x="133.5" y="740.978" width="2.29248" height="1.70379" rx="0.851896" fill="#232425" stroke="#B0CDCF" stroke-width="1.70379"/>
<rect id="Rectangle 231_2" x="146.145" y="731.447" width="35.4476" height="6.37108" rx="3.18554" fill="#EDF67D"/>
<rect id="Rectangle 229_2" x="167.672" y="726.773" width="10.1947" height="1.70379" rx="0.851896" fill="#232425" stroke="#B0CDCF" stroke-width="1.70379"/>
<rect id="Rectangle 232_2" x="147.699" y="732.925" width="10.3987" height="3.40758" rx="1.70379" fill="#232425"/>
<rect id="Rectangle 233_2" x="159.433" y="732.925" width="20.5269" height="3.40758" rx="1.70379" fill="#232425"/>
</g>
<g id="Union">
<mask id="path-160-inside-1_300_596" fill="white">
<path fill-rule="evenodd" clip-rule="evenodd" d="M162.55 759.042H153.608V764.541H146.521V766.432H169.636V764.541H162.55V759.042Z"/>
</mask>
<path d="M153.608 759.042V757.042H151.608V759.042H153.608ZM162.55 759.042H164.55V757.042H162.55V759.042ZM153.608 764.541V766.541H155.608V764.541H153.608ZM146.521 764.541V762.541H144.521V764.541H146.521ZM146.521 766.432H144.521V768.432H146.521V766.432ZM169.636 766.432V768.432H171.636V766.432H169.636ZM169.636 764.541H171.636V762.541H169.636V764.541ZM162.55 764.541H160.55V766.541H162.55V764.541ZM153.608 761.042H162.55V757.042H153.608V761.042ZM155.608 764.541V759.042H151.608V764.541H155.608ZM146.521 766.541H153.608V762.541H146.521V766.541ZM148.521 766.432V764.541H144.521V766.432H148.521ZM169.636 764.432H146.521V768.432H169.636V764.432ZM167.636 764.541V766.432H171.636V764.541H167.636ZM162.55 766.541H169.636V762.541H162.55V766.541ZM160.55 759.042V764.541H164.55V759.042H160.55Z" fill="#404E51" mask="url(#path-160-inside-1_300_596)"/>
</g>
<rect id="Rectangle 255" opacity="0.2" x="116.771" y="707.514" width="82.4947" height="3.40149" stroke="#404E51" stroke-width="2"/>
<rect id="Rectangle 256" x="124.944" y="708.561" width="68.9616" height="1.49873" rx="0.749363" fill="#404E51"/>
<circle id="Ellipse 314_2" cx="118.743" cy="709.31" r="0.585019" fill="#232425"/>
<circle id="Ellipse 315" cx="120.302" cy="709.31" r="0.585019" fill="#404E51"/>
<circle id="Ellipse 316" cx="121.861" cy="709.31" r="0.585019" fill="#404E51"/>
</g>
</g>
<path id="Vector 414" d="M151.182 132.113L151.182 163.392" stroke="#404E51" stroke-width="2"/>
<path id="Vector 415" d="M151.444 337.275L151.444 361.211C151.444 363.972 153.683 366.211 156.444 366.211L238.659 366.211C241.42 366.211 243.659 368.449 243.659 371.211L243.659 382.853" stroke="#404E51" stroke-width="2"/>
<path id="Vector 416" d="M151.364 608.095L151.364 589.365C151.364 586.604 153.602 584.365 156.364 584.365L251.006 584.365C253.767 584.365 256.006 582.127 256.006 579.365L256.006 566.39" stroke="#404E51" stroke-width="2"/>
<path id="Vector 417" d="M151.444 337.275L151.444 361.211C151.444 363.972 149.205 366.211 146.444 366.211L64.2295 366.211C61.4681 366.211 59.2295 368.449 59.2295 371.211L59.2295 382.853" stroke="#404E51" stroke-width="2"/>
<path id="Vector 418" d="M151.363 608.095L151.363 589.365C151.363 586.604 149.125 584.365 146.363 584.365L51.7212 584.365C48.9598 584.365 46.7212 582.127 46.7212 579.365L46.7212 566.39" stroke="#404E51" stroke-width="2"/>
</g>
<defs>
<filter id="filter0_b_300_596" x="214.807" y="470.605" width="53.4009" height="53.4004" filterUnits="userSpaceOnUse" color-interpolation-filters="sRGB">
<feFlood flood-opacity="0" result="BackgroundImageFix"/>
<feGaussianBlur in="BackgroundImage" stdDeviation="1"/>
<feComposite in2="SourceAlpha" operator="in" result="effect1_backgroundBlur_300_596"/>
<feBlend mode="normal" in="SourceGraphic" in2="effect1_backgroundBlur_300_596" result="shape"/>
</filter>
<linearGradient id="paint0_linear_300_596" x1="252.116" y1="486.652" x2="228.573" y2="510.294" gradientUnits="userSpaceOnUse">
<stop stop-color="#232425"/>
<stop offset="0.484375" stop-color="#232425" stop-opacity="0"/>
<stop offset="1" stop-color="#232425"/>
</linearGradient>
</defs>
</svg>
