<svg width="1304" height="544" viewBox="0 0 1304 544" fill="none" xmlns="http://www.w3.org/2000/svg">
<g id="Group 251">
<text id="Collect Data" fill="#B0CDCF" xml:space="preserve" style="white-space: pre" font-family="IBM Plex Mono" font-size="16" font-style="italic" letter-spacing="0em"><tspan x="2.23535" y="173.855">Collect Data</tspan></text>
<text id="Define Patterns and Words" fill="#B0CDCF" xml:space="preserve" style="white-space: pre" font-family="IBM Plex Mono" font-size="16" font-style="italic" letter-spacing="0em"><tspan x="364.953" y="160.094">Define Patterns </tspan><tspan x="364.953" y="184.094">and Words</tspan></text>
<text id="Filter by topic" fill="#B0CDCF" xml:space="preserve" style="white-space: pre" font-family="IBM Plex Mono" font-size="16" font-style="italic" letter-spacing="0em"><tspan x="730.152" y="18.9395">Filter by topic</tspan></text>
<text id="Search for Lead User posts" fill="#B0CDCF" xml:space="preserve" style="white-space: pre" font-family="IBM Plex Mono" font-size="16" font-style="italic" letter-spacing="0em"><tspan x="730.358" y="303.898">Search for Lead </tspan><tspan x="730.358" y="327.898">User posts</tspan></text>
<text id="Prepare for Manual Analysis" fill="#DBE5E6" xml:space="preserve" style="white-space: pre" font-family="IBM Plex Mono" font-size="16" font-style="italic" letter-spacing="0em"><tspan x="1093.62" y="163.628">Prepare for </tspan><tspan x="1093.62" y="187.628">Manual Analysis</tspan></text>
<g id="Group 222">
<g id="Group 197">
<g id="Group 188">
<rect id="Rectangle 257" x="1.66406" y="198.475" width="204.001" height="204.001" fill="#232425" stroke="#404E51" stroke-width="3"/>
<g id="Group 187">
<path id="Vector 342" d="M136.461 233.026C127.916 233.026 119.154 239.054 112.465 250.173C105.759 261.32 101.031 277.725 100.559 298.899L102.558 298.944C103.025 278.024 107.695 261.982 114.178 251.204C120.679 240.399 128.898 235.026 136.461 235.026V233.026Z" fill="#404E51"/>
<path id="Vector 343" d="M147.453 252.359C138.947 256.556 122.223 271.686 122.223 298.923H124.223C124.223 272.572 140.396 258.072 148.338 254.153L147.453 252.359Z" fill="#404E51"/>
<path id="Vector 344" d="M100.356 268.478C96.7816 268.478 91.5487 270.056 87.2142 274.683C82.8649 279.326 79.4971 286.952 79.4971 298.921H81.4971C81.4971 287.335 84.7488 280.24 88.6738 276.05C92.6138 271.844 97.3102 270.478 100.356 270.478L100.356 268.478Z" fill="#404E51"/>
<path id="Vector 345" d="M74.6407 279.036C77.3185 278.597 81.3711 279.062 84.7429 281.894C88.0884 284.705 90.9305 289.991 90.9305 299.524H92.9305C92.9305 289.59 89.9553 283.661 86.0294 280.363C82.1298 277.087 77.4567 276.548 74.3173 277.062L74.6407 279.036Z" fill="#404E51"/>
<path id="Vector 346" d="M67.2183 245.011C71.8509 248.883 78.849 256.293 84.6827 265.868C90.5169 275.443 95.143 287.113 95.143 299.525H97.143C97.143 286.625 92.3413 274.594 86.3907 264.827C80.4397 255.059 73.2961 247.484 68.5009 243.476L67.2183 245.011Z" fill="#404E51"/>
<path id="Vector 347" d="M100.956 236.231C104.109 236.231 106.402 237.401 108.154 239.773C109.957 242.215 111.223 245.983 112.08 251.228C113.794 261.714 113.797 277.535 113.797 298.925H115.797C115.797 277.619 115.8 261.593 114.054 250.906C113.181 245.565 111.852 241.415 109.762 238.585C107.622 235.686 104.724 234.231 100.956 234.231V236.231Z" fill="#404E51"/>
</g>
<g id="Group 181">
<rect id="Rectangle 258" x="28.688" y="233.14" width="38.8973" height="19.6254" fill="#232425" stroke="#DBE5E6" stroke-width="2"/>
<path id="Polygon 7" d="M20.9587 252.758L28.6873 243.846L28.6873 252.757L20.9587 252.758Z" fill="#232425" stroke="#DBE5E6" stroke-width="2"/>
<rect id="Rectangle 259" x="31.8638" y="240.331" width="18.7321" height="1.48983" rx="0.744916" fill="#DBE5E6" stroke="#DBE5E6" stroke-width="1.48983"/>
<rect id="Rectangle 262" x="41.3743" y="245.183" width="18.7321" height="1.48983" rx="0.744916" fill="#DBE5E6" stroke="#DBE5E6" stroke-width="1.48983"/>
<rect id="Rectangle 261" x="31.8638" y="245.183" width="6.11972" height="1.48983" rx="0.744916" fill="#DBE5E6" stroke="#DBE5E6" stroke-width="1.48983"/>
<rect id="Rectangle 260" x="53.3416" y="240.331" width="9.1418" height="1.48983" rx="0.744916" fill="#DBE5E6" stroke="#DBE5E6" stroke-width="1.48983"/>
</g>
<g id="Group 186">
<rect id="Rectangle 258_2" x="34.9255" y="264.924" width="38.8973" height="19.6254" fill="#232425" stroke="#DBE5E6" stroke-width="2"/>
<path id="Polygon 7_2" d="M27.1963 284.543L34.9249 275.63L34.9249 284.542L27.1963 284.543Z" fill="#232425" stroke="#DBE5E6" stroke-width="2"/>
<rect id="Rectangle 259_2" x="38.1014" y="272.116" width="18.7321" height="1.48983" rx="0.744916" fill="#DBE5E6" stroke="#DBE5E6" stroke-width="1.48983"/>
<rect id="Rectangle 262_2" x="47.6119" y="276.968" width="18.7321" height="1.48983" rx="0.744916" fill="#DBE5E6" stroke="#DBE5E6" stroke-width="1.48983"/>
<rect id="Rectangle 261_2" x="38.1014" y="276.968" width="6.11972" height="1.48983" rx="0.744916" fill="#DBE5E6" stroke="#DBE5E6" stroke-width="1.48983"/>
<rect id="Rectangle 260_2" x="59.5791" y="272.116" width="9.1418" height="1.48983" rx="0.744916" fill="#DBE5E6" stroke="#DBE5E6" stroke-width="1.48983"/>
</g>
<g id="Group 185">
<rect id="Rectangle 258_3" x="61.6685" y="224.995" width="38.8973" height="19.6254" fill="#232425" stroke="#DBE5E6" stroke-width="2"/>
<path id="Polygon 7_3" d="M53.9392 244.613L61.6678 235.701L61.6678 244.612L53.9392 244.613Z" fill="#232425" stroke="#DBE5E6" stroke-width="2"/>
<rect id="Rectangle 259_3" x="64.8443" y="232.186" width="18.7321" height="1.48983" rx="0.744916" fill="#DBE5E6" stroke="#DBE5E6" stroke-width="1.48983"/>
<rect id="Rectangle 262_3" x="74.3548" y="237.038" width="18.7321" height="1.48983" rx="0.744916" fill="#DBE5E6" stroke="#DBE5E6" stroke-width="1.48983"/>
<rect id="Rectangle 261_3" x="64.8443" y="237.038" width="6.11972" height="1.48983" rx="0.744916" fill="#DBE5E6" stroke="#DBE5E6" stroke-width="1.48983"/>
<rect id="Rectangle 260_3" x="86.3221" y="232.186" width="9.1418" height="1.48983" rx="0.744916" fill="#DBE5E6" stroke="#DBE5E6" stroke-width="1.48983"/>
</g>
<g id="Group 182">
<rect id="Rectangle 258_4" width="38.8973" height="19.6254" transform="matrix(-1 0 0 1 176.419 223.51)" fill="#232425" stroke="#DBE5E6" stroke-width="2"/>
<path id="Polygon 7_4" d="M184.148 243.129L176.42 234.216L176.42 243.127L184.148 243.129Z" fill="#232425" stroke="#DBE5E6" stroke-width="2"/>
<rect id="Rectangle 259_4" x="-0.744916" y="0.744916" width="18.7321" height="1.48983" rx="0.744916" transform="matrix(-1 0 0 1 172.498 229.957)" fill="#DBE5E6" stroke="#DBE5E6" stroke-width="1.48983"/>
<rect id="Rectangle 262_4" x="-0.744916" y="0.744916" width="18.7321" height="1.48983" rx="0.744916" transform="matrix(-1 0 0 1 160.836 234.809)" fill="#DBE5E6" stroke="#DBE5E6" stroke-width="1.48983"/>
<rect id="Rectangle 261_4" x="-0.744916" y="0.744916" width="6.11972" height="1.48983" rx="0.744916" transform="matrix(-1 0 0 1 170.347 234.809)" fill="#DBE5E6" stroke="#DBE5E6" stroke-width="1.48983"/>
<rect id="Rectangle 260_4" x="-0.744916" y="0.744916" width="9.1418" height="1.48983" rx="0.744916" transform="matrix(-1 0 0 1 151.021 229.957)" fill="#DBE5E6" stroke="#DBE5E6" stroke-width="1.48983"/>
</g>
<g id="Group 183">
<rect id="Rectangle 258_5" width="38.8973" height="19.6254" transform="matrix(-1 0 0 1 139.463 256.984)" fill="#232425" stroke="#DBE5E6" stroke-width="2"/>
<path id="Polygon 7_5" d="M147.192 276.603L139.463 267.69L139.463 276.602L147.192 276.603Z" fill="#232425" stroke="#DBE5E6" stroke-width="2"/>
<rect id="Rectangle 259_5" x="-0.744916" y="0.744916" width="18.7321" height="1.48983" rx="0.744916" transform="matrix(-1 0 0 1 135.542 263.431)" fill="#DBE5E6" stroke="#DBE5E6" stroke-width="1.48983"/>
<rect id="Rectangle 262_5" x="-0.744916" y="0.744916" width="18.7321" height="1.48983" rx="0.744916" transform="matrix(-1 0 0 1 123.879 268.283)" fill="#DBE5E6" stroke="#DBE5E6" stroke-width="1.48983"/>
<rect id="Rectangle 261_5" x="-0.751104" y="0.751104" width="8.72795" height="1.50221" rx="0.751104" transform="matrix(-1 0 0 1 135.584 268.278)" fill="#DBE5E6" stroke="#DBE5E6" stroke-width="1.50221"/>
<rect id="Rectangle 260_5" x="-0.744916" y="0.744916" width="9.1418" height="1.48983" rx="0.744916" transform="matrix(-1 0 0 1 114.064 263.431)" fill="#DBE5E6" stroke="#DBE5E6" stroke-width="1.48983"/>
</g>
<g id="Group 184">
<rect id="Rectangle 258_6" width="38.8973" height="19.6254" transform="matrix(-1 0 0 1 187.419 242.057)" fill="#232425" stroke="#DBE5E6" stroke-width="2"/>
<path id="Polygon 7_6" d="M195.148 261.676L187.42 252.763L187.42 261.674L195.148 261.676Z" fill="#232425" stroke="#DBE5E6" stroke-width="2"/>
<rect id="Rectangle 259_6" x="-0.744916" y="0.744916" width="18.7321" height="1.48983" rx="0.744916" transform="matrix(-1 0 0 1 183.498 248.503)" fill="#DBE5E6" stroke="#DBE5E6" stroke-width="1.48983"/>
<rect id="Rectangle 262_6" x="-0.744916" y="0.744916" width="18.7321" height="1.48983" rx="0.744916" transform="matrix(-1 0 0 1 171.835 253.356)" fill="#DBE5E6" stroke="#DBE5E6" stroke-width="1.48983"/>
<rect id="Rectangle 261_6" x="-0.744916" y="0.744916" width="6.11972" height="1.48983" rx="0.744916" transform="matrix(-1 0 0 1 181.347 253.356)" fill="#DBE5E6" stroke="#DBE5E6" stroke-width="1.48983"/>
<rect id="Rectangle 260_6" x="-0.744916" y="0.744916" width="9.1418" height="1.48983" rx="0.744916" transform="matrix(-1 0 0 1 162.02 248.503)" fill="#DBE5E6" stroke="#DBE5E6" stroke-width="1.48983"/>
</g>
</g>
</g>
<g id="Group 217">
<g id="Group 171">
<g id="Group 169">
<path id="Vector 327" d="M79.0916 311.907L79.0916 367.945" stroke="#404E51" stroke-width="2"/>
<path id="Vector 331" d="M64.8521 311.907L64.8521 367.945" stroke="#404E51" stroke-width="2"/>
<path id="Vector 328" d="M93.3311 311.907L93.3311 367.945" stroke="#404E51" stroke-width="2"/>
<path id="Vector 329" d="M107.569 311.907L107.569 367.945" stroke="#404E51" stroke-width="2"/>
<path id="Vector 330" d="M121.809 311.907L121.809 367.945" stroke="#404E51" stroke-width="2"/>
<path id="Vector 332" d="M136.048 311.907L136.048 367.945" stroke="#404E51" stroke-width="2"/>
</g>
<g id="Group 170">
<path id="Vector 327_2" d="M136.048 325.914L64.8512 325.914" stroke="#404E51" stroke-width="2"/>
<path id="Vector 332_2" d="M136.048 311.907L64.8512 311.907" stroke="#B0CDCF" stroke-width="2"/>
<path id="Vector 328_2" d="M136.048 339.931L64.8512 339.931" stroke="#404E51" stroke-width="2"/>
<path id="Vector 329_2" d="M136.048 353.938L64.8512 353.938" stroke="#404E51" stroke-width="2"/>
<path id="Vector 330_2" d="M136.048 367.945L64.8512 367.945" stroke="#404E51" stroke-width="2"/>
</g>
<rect id="Rectangle 225" x="64.8523" y="298.92" width="71.1964" height="12.9916" stroke="#404E51" stroke-width="2"/>
</g>
</g>
</g>
<g id="Group 190">
<rect id="Rectangle 224" x="366.479" y="199.872" width="204.001" height="204.001" fill="#232425" stroke="#404E51" stroke-width="2"/>
<g id="Group 189">
<rect id="Rectangle 226" x="396.789" y="222.591" width="143.38" height="71.701" fill="#232425" stroke="#404E51" stroke-width="2"/>
<rect id="Rectangle 227" width="143.38" height="71.701" transform="matrix(-1 0 0 1 540.168 309.44)" fill="#232425" stroke="#404E51" stroke-width="2"/>
<path id="Polygon 5" d="M382.163 294.289L396.789 281.555L396.789 294.291L382.163 294.289Z" fill="#232425" stroke="#404E51" stroke-width="2"/>
<path id="Polygon 6" d="M554.796 381.153L540.17 368.418L540.17 381.154L554.796 381.153Z" fill="#232425" stroke="#404E51" stroke-width="2"/>
<rect id="Rectangle 228" x="405.588" y="238.249" width="80.0105" height="6.5717" rx="3.28585" fill="#232425" stroke="#404E51" stroke-width="2"/>
<rect id="Rectangle 235" x="421.446" y="273.983" width="80.0105" height="6.5717" rx="3.28585" fill="#232425" stroke="#404E51" stroke-width="2"/>
<rect id="Rectangle 230" x="405.588" y="256.119" width="24.1964" height="6.5717" rx="3.28585" fill="#232425" stroke="#404E51" stroke-width="2"/>
<rect id="Rectangle 234" x="405.588" y="273.983" width="8.06743" height="6.5717" rx="3.28585" fill="#232425" stroke="#404E51" stroke-width="2"/>
<rect id="Rectangle 231" x="438.591" y="251.141" width="89.2998" height="16.0263" rx="8.01316" fill="#EDF67D"/>
<rect id="Rectangle 229" x="491.675" y="238.249" width="27.9748" height="6.5717" rx="3.28585" fill="#232425" stroke="#404E51" stroke-width="2"/>
<rect id="Rectangle 232" x="442.511" y="254.868" width="26.1964" height="8.5717" rx="4.28585" fill="#232425"/>
<rect id="Rectangle 233" x="472.705" y="255.128" width="50.3932" height="8.50006" rx="4.25003" fill="#232425"/>
<rect id="Rectangle 236" x="-1" y="1" width="80.0105" height="6.5717" rx="3.28585" transform="matrix(-1 0 0 1 519.779 320.244)" fill="#232425" stroke="#404E51" stroke-width="2"/>
<rect id="Rectangle 237" x="-1" y="1" width="80.0105" height="6.5717" rx="3.28585" transform="matrix(-1 0 0 1 485.726 355.978)" fill="#232425" stroke="#404E51" stroke-width="2"/>
<rect id="Rectangle 238" x="-1" y="1" width="24.1964" height="6.5717" rx="3.28585" transform="matrix(-1 0 0 1 521.444 338.099)" fill="#232425" stroke="#404E51" stroke-width="2"/>
<rect id="Rectangle 239" x="-1" y="1" width="8.06743" height="6.5717" rx="3.28585" transform="matrix(-1 0 0 1 501.584 355.978)" fill="#232425" stroke="#404E51" stroke-width="2"/>
<rect id="Rectangle 240" width="89.2998" height="16.0263" rx="8.01316" transform="matrix(-1 0 0 1 493.89 334.13)" fill="#EDF67D"/>
<rect id="Rectangle 241" x="-1" y="1" width="27.9748" height="6.5717" rx="3.28585" transform="matrix(-1 0 0 1 433.69 320.244)" fill="#232425" stroke="#404E51" stroke-width="2"/>
<rect id="Rectangle 242" width="26.1964" height="8.5717" rx="4.28585" transform="matrix(-1 0 0 1 489.969 337.857)" fill="#232425"/>
<rect id="Rectangle 243" width="51.7116" height="8.5717" rx="4.28585" transform="matrix(-1 0 0 1 460.41 337.857)" fill="#232425"/>
</g>
</g>
<g id="Group 223">
<g id="Group 221">
<rect id="Rectangle 245" x="731.293" y="39.6592" width="204.001" height="204.001" fill="#232425" stroke="#404E51" stroke-width="2"/>
<circle id="Ellipse 314" cx="864.308" cy="96.2177" r="44.8764" stroke="#B0CDCF" stroke-width="2"/>
<circle id="Ellipse 317" cx="853.989" cy="73.7365" r="3.39035" stroke="#EDF67D" stroke-width="6"/>
<circle id="Ellipse 318" cx="882.957" cy="79.2766" r="3.39035" stroke="#EDF67D" stroke-width="6"/>
<circle id="Ellipse 319" cx="861.655" cy="95.4655" r="3.39035" stroke="#EDF67D" stroke-width="6"/>
<circle id="Ellipse 320" cx="892.329" cy="105.26" r="3.39035" stroke="#EDF67D" stroke-width="6"/>
<circle id="Ellipse 321" cx="858.247" cy="118.044" r="3.39035" stroke="#EDF67D" stroke-width="6"/>
<circle id="Ellipse 322" cx="832.26" cy="101.855" r="3.39035" stroke="#EDF67D" stroke-width="6"/>
<circle id="Ellipse 323" cx="808.83" cy="141.054" r="3.39035" stroke="#404E51" stroke-width="6"/>
<circle id="Ellipse 324" cx="855.266" cy="167.465" r="3.39035" stroke="#404E51" stroke-width="6"/>
<circle id="Ellipse 325" cx="812.238" cy="182.8" r="3.39035" stroke="#404E51" stroke-width="6"/>
<circle id="Ellipse 326" cx="826.296" cy="157.238" r="3.39035" stroke="#404E51" stroke-width="6"/>
<circle id="Ellipse 327" cx="771.34" cy="157.238" r="3.39035" stroke="#404E51" stroke-width="6"/>
<circle id="Ellipse 329" cx="796.049" cy="98.8762" r="3.39035" stroke="#404E51" stroke-width="6"/>
<circle id="Ellipse 330" cx="764.949" cy="66.071" r="3.39035" stroke="#404E51" stroke-width="6"/>
<circle id="Ellipse 331" cx="758.559" cy="212.621" r="3.39035" stroke="#404E51" stroke-width="6"/>
<circle id="Ellipse 332" cx="821.61" cy="205.805" r="3.39035" stroke="#404E51" stroke-width="6"/>
<circle id="Ellipse 333" cx="905.11" cy="159.368" r="3.39035" stroke="#404E51" stroke-width="6"/>
<circle id="Ellipse 334" cx="882.957" cy="199.842" r="3.39035" stroke="#404E51" stroke-width="6"/>
<circle id="Ellipse 328" cx="773.895" cy="118.044" r="3.39035" stroke="#404E51" stroke-width="6"/>
</g>
<g id="Group 220">
<rect id="Rectangle 244" x="731.293" y="338.773" width="204.001" height="204.001" fill="#232425" stroke="#404E51" stroke-width="2"/>
<g id="Group 171_2">
<g id="Group 169_2">
<path id="Vector 327_3" d="M779.834 390.653L779.834 447.275" stroke="#404E51" stroke-width="2"/>
<path id="Vector 331_2" d="M765.467 390.653L765.467 447.275" stroke="#404E51" stroke-width="2"/>
<path id="Vector 328_3" d="M794.2 390.653L794.2 447.275" stroke="#404E51" stroke-width="2"/>
<path id="Vector 329_3" d="M808.566 390.653L808.566 447.275" stroke="#404E51" stroke-width="2"/>
<path id="Vector 330_3" d="M822.933 390.653L822.933 447.275" stroke="#404E51" stroke-width="2"/>
<path id="Vector 332_3" d="M837.299 390.653L837.299 447.275" stroke="#404E51" stroke-width="2"/>
</g>
<g id="Group 170_2">
<path id="Vector 327_4" d="M837.298 404.806L765.465 404.806" stroke="#404E51" stroke-width="2"/>
<path id="Vector 332_4" d="M837.298 390.653L765.465 390.653" stroke="#B0CDCF" stroke-width="2"/>
<path id="Vector 328_4" d="M837.298 418.96L765.465 418.96" stroke="#404E51" stroke-width="2"/>
<path id="Vector 329_4" d="M837.298 433.118L765.465 433.118" stroke="#404E51" stroke-width="2"/>
<path id="Vector 330_4" d="M837.298 447.276L765.465 447.276" stroke="#404E51" stroke-width="2"/>
</g>
<rect id="Rectangle 225_2" x="765.467" y="377.529" width="71.832" height="13.127" stroke="#404E51" stroke-width="2"/>
</g>
<g id="Group 174">
<rect id="Rectangle 245_2" x="825.482" y="439.066" width="13.574" height="64.7884" transform="rotate(-44.88 825.482 439.066)" stroke="#DBE5E6" stroke-width="2"/>
<ellipse id="Ellipse 311" cx="829.884" cy="433.867" rx="39.8297" ry="39.8297" transform="rotate(-44.88 829.884 433.867)" fill="#B0CDCF"/>
<ellipse id="Ellipse 312" cx="829.885" cy="433.87" rx="39.1577" ry="39.1577" transform="rotate(-44.88 829.885 433.87)" fill="#232425"/>
</g>
<g id="Mask Group">
<mask id="mask0_300_595" style="mask-type:alpha" maskUnits="userSpaceOnUse" x="790" y="394" width="80" height="80">
<circle id="Ellipse 313" cx="829.886" cy="433.867" r="39.1577" transform="rotate(-44.88 829.886 433.867)" fill="#232425"/>
</mask>
<g mask="url(#mask0_300_595)">
<g id="Group 178">
<rect id="Rectangle 245_3" width="39.3708" height="7.07622" rx="3.53811" transform="matrix(-1 0 0 1 835.026 421)" fill="#EDF67D"/>
<rect id="Rectangle 246" width="11.5496" height="3.78473" rx="1.89236" transform="matrix(-1 0 0 1 833.301 422.646)" fill="#232425"/>
<rect id="Rectangle 247" width="22.7988" height="3.78473" rx="1.89236" transform="matrix(-1 0 0 1 820.268 422.646)" fill="#232425"/>
<g id="Group 175">
<rect id="Rectangle 248" width="49.25" height="7.07622" rx="3.53811" transform="matrix(-1 0 0 1 845.173 430.952)" fill="#EDF67D"/>
<rect id="Rectangle 249" width="22.7395" height="3.78473" rx="1.89236" transform="matrix(-1 0 0 1 843.013 432.598)" fill="#232425"/>
<rect id="Rectangle 250" width="19.3396" height="3.78473" rx="1.89236" transform="matrix(-1 0 0 1 817.531 432.598)" fill="#232425"/>
</g>
<g id="Group 176">
<rect id="Rectangle 248_2" width="49.25" height="7.07622" rx="3.53811" transform="matrix(-1 0 0 1 861.956 439.397)" fill="#EDF67D"/>
<rect id="Rectangle 249_2" width="22.7395" height="3.78473" rx="1.89236" transform="matrix(-1 0 0 1 859.796 441.044)" fill="#232425"/>
<rect id="Rectangle 250_2" width="19.3396" height="3.78473" rx="1.89236" transform="matrix(-1 0 0 1 834.314 441.044)" fill="#232425"/>
</g>
<g id="Group 177">
<rect id="Rectangle 248_3" width="49.25" height="7.07622" rx="3.53811" transform="matrix(-1 0 0 1 832.784 448.717)" fill="#EDF67D"/>
<rect id="Rectangle 249_3" width="22.7395" height="3.78473" rx="1.89236" transform="matrix(-1 0 0 1 830.624 450.363)" fill="#232425"/>
<rect id="Rectangle 250_3" width="19.3396" height="3.78473" rx="1.89236" transform="matrix(-1 0 0 1 805.142 450.363)" fill="#232425"/>
</g>
<rect id="Rectangle 248_4" x="-1" y="1" width="40.2805" height="2.42569" rx="1.21284" transform="matrix(-1 0 0 1 888.705 432.275)" fill="#232425" stroke="#B0CDCF" stroke-width="2"/>
<rect id="Rectangle 249_4" x="-1" y="1" width="40.2805" height="2.42569" rx="1.21284" transform="matrix(-1 0 0 1 877.612 422.646)" fill="#232425" stroke="#B0CDCF" stroke-width="2"/>
<rect id="Rectangle 250_4" x="-1" y="1" width="40.2805" height="2.42569" rx="1.21284" transform="matrix(-1 0 0 1 809.348 441.162)" fill="#232425" stroke="#B0CDCF" stroke-width="2"/>
<rect id="Rectangle 251" x="-1" y="1" width="40.2805" height="2.42569" rx="1.21284" transform="matrix(-1 0 0 1 875.976 449.721)" fill="#232425" stroke="#B0CDCF" stroke-width="2"/>
</g>
</g>
</g>
<g id="Ellipse 313_2" filter="url(#filter0_b_300_595)">
<circle cx="829.884" cy="433.858" r="39.1577" transform="rotate(-44.88 829.884 433.858)" fill="url(#paint0_linear_300_595)" fill-opacity="0.03"/>
</g>
<circle id="Ellipse 313_3" cx="829.883" cy="433.86" r="38.8297" transform="rotate(-44.88 829.883 433.86)" stroke="#B0CDCF" stroke-width="2"/>
</g>
</g>
<g id="Group 194">
<rect id="Rectangle 245_4" x="1096.11" y="207.42" width="206.124" height="206.43" fill="#232425" stroke="#404E51" stroke-width="2"/>
<g id="Group 193">
<g id="Group 175_2">
<g id="Group 172">
<rect id="Rectangle 224_2" x="1120.57" y="240.451" width="89.3002" height="86.242" fill="#232425" stroke="#404E51" stroke-width="2"/>
<rect id="Rectangle 225_3" x="1120.81" y="240.546" width="88.9747" height="16.2598" stroke="#404E51" stroke-width="2"/>
<g id="Group 169_3">
<path id="Vector 327_5" d="M1138.61 256.808L1138.61 326.943" stroke="#404E51" stroke-width="2"/>
<path id="Vector 331_3" d="M1120.81 256.808L1120.81 326.943" stroke="#33373A" stroke-width="2"/>
<path id="Vector 328_5" d="M1156.4 256.808L1156.4 326.943" stroke="#404E51" stroke-width="2"/>
<path id="Vector 329_5" d="M1174.2 256.808L1174.2 326.943" stroke="#404E51" stroke-width="2"/>
<path id="Vector 330_5" d="M1191.99 256.808L1191.99 326.943" stroke="#404E51" stroke-width="2"/>
<path id="Vector 332_5" d="M1209.79 256.808L1209.79 326.943" stroke="#404E51" stroke-width="2"/>
</g>
<g id="Group 170_3">
<path id="Vector 327_6" d="M1209.79 274.338L1120.81 274.338" stroke="#404E51" stroke-width="2"/>
<path id="Vector 332_6" d="M1209.79 256.805L1120.81 256.805" stroke="#404E51" stroke-width="2"/>
<path id="Vector 328_6" d="M1209.79 291.874L1120.81 291.874" stroke="#404E51" stroke-width="2"/>
<path id="Vector 329_6" d="M1209.79 309.403L1120.81 309.403" stroke="#404E51" stroke-width="2"/>
<path id="Vector 330_6" d="M1209.79 326.939L1120.81 326.939" stroke="#404E51" stroke-width="2"/>
</g>
</g>
</g>
<rect id="Rectangle 252" x="1143.03" y="283.053" width="133.377" height="83.2413" fill="#232425" stroke="#404E51" stroke-width="2"/>
<g id="Group 179">
<rect id="Rectangle 226_2" x="1164.46" y="304.184" width="90.2277" height="45.1876" fill="#232425" stroke="#DBE5E6" stroke-width="2"/>
<rect id="Rectangle 228_2" x="1170.37" y="314.421" width="49.6083" height="3.40207" rx="1.70104" fill="#232425" stroke="#B0CDCF" stroke-width="2"/>
<rect id="Rectangle 235_2" x="1180.35" y="336.94" width="49.6083" height="3.40207" rx="1.70104" fill="#232425" stroke="#B0CDCF" stroke-width="2"/>
<rect id="Rectangle 230_2" x="1170.37" y="325.681" width="14.4851" height="3.40207" rx="1.70104" fill="#232425" stroke="#B0CDCF" stroke-width="2"/>
<rect id="Rectangle 234_2" x="1170.37" y="336.94" width="4.33533" height="3.40207" rx="1.70104" fill="#232425" stroke="#B0CDCF" stroke-width="2"/>
<rect id="Rectangle 231_2" x="1190.77" y="322.18" width="56.1954" height="10.1001" rx="5.05007" fill="#EDF67D"/>
<rect id="Rectangle 229_2" x="1224.55" y="314.421" width="16.8628" height="3.40207" rx="1.70104" fill="#232425" stroke="#B0CDCF" stroke-width="2"/>
<rect id="Rectangle 232_2" x="1193.23" y="324.525" width="16.4851" height="5.40207" rx="2.70104" fill="#232425"/>
<rect id="Rectangle 233_2" x="1211.83" y="324.525" width="32.5415" height="5.40207" rx="2.70104" fill="#232425"/>
</g>
<g id="Union">
<mask id="path-161-inside-1_300_595" fill="white">
<path fill-rule="evenodd" clip-rule="evenodd" d="M1216.78 365.926H1202.6V374.645H1191.37V377.642H1228.01V374.645H1216.78V365.926Z"/>
</mask>
<path d="M1202.6 365.926V363.926H1200.6V365.926H1202.6ZM1216.78 365.926H1218.78V363.926H1216.78V365.926ZM1202.6 374.645V376.645H1204.6V374.645H1202.6ZM1191.37 374.645V372.645H1189.37V374.645H1191.37ZM1191.37 377.642H1189.37V379.642H1191.37V377.642ZM1228.01 377.642V379.642H1230.01V377.642H1228.01ZM1228.01 374.645H1230.01V372.645H1228.01V374.645ZM1216.78 374.645H1214.78V376.645H1216.78V374.645ZM1202.6 367.926H1216.78V363.926H1202.6V367.926ZM1204.6 374.645V365.926H1200.6V374.645H1204.6ZM1191.37 376.645H1202.6V372.645H1191.37V376.645ZM1193.37 377.642V374.645H1189.37V377.642H1193.37ZM1228.01 375.642H1191.37V379.642H1228.01V375.642ZM1226.01 374.645V377.642H1230.01V374.645H1226.01ZM1216.78 376.645H1228.01V372.645H1216.78V376.645ZM1214.78 365.926V374.645H1218.78V365.926H1214.78Z" fill="#404E51" mask="url(#path-161-inside-1_300_595)"/>
</g>
<rect id="Rectangle 255" opacity="0.2" x="1143.62" y="283.654" width="131.95" height="6.56303" stroke="#404E51" stroke-width="2"/>
<rect id="Rectangle 256" x="1157.16" y="285.898" width="109.326" height="2.37594" rx="1.18797" fill="#404E51"/>
<circle id="Ellipse 314_2" cx="1147.33" cy="287.086" r="0.927436" fill="#232425"/>
<circle id="Ellipse 315" cx="1149.8" cy="287.086" r="0.927436" fill="#404E51"/>
<circle id="Ellipse 316" cx="1152.27" cy="287.086" r="0.927436" fill="#404E51"/>
</g>
</g>
<path id="Vector 374" d="M205.768 306.682H366.479" stroke="#404E51" stroke-width="2"/>
<path id="Vector 375" d="M570.695 306.99H687.012C689.773 306.99 692.012 304.752 692.012 301.99V146.1C692.012 143.339 694.251 141.1 697.012 141.1H730.152" stroke="#404E51" stroke-width="2"/>
<path id="Vector 377" d="M1096.11 306.99H978.837C976.076 306.99 973.837 304.752 973.837 301.99V146.1C973.837 143.339 971.598 141.1 968.837 141.1H935.398" stroke="#404E51" stroke-width="2"/>
<path id="Vector 376" d="M570.695 306.99H687.012C689.773 306.99 692.012 309.229 692.012 311.99V467.88C692.012 470.642 694.251 472.88 697.012 472.88H730.152" stroke="#404E51" stroke-width="2"/>
<path id="Vector 378" d="M1096.11 306.99H978.837C976.076 306.99 973.837 309.229 973.837 311.99V467.88C973.837 470.642 971.598 472.88 968.837 472.88H935.398" stroke="#404E51" stroke-width="2"/>
</g>
<defs>
<filter id="filter0_b_300_595" x="788.726" y="392.701" width="82.3154" height="82.3154" filterUnits="userSpaceOnUse" color-interpolation-filters="sRGB">
<feFlood flood-opacity="0" result="BackgroundImageFix"/>
<feGaussianBlur in="BackgroundImage" stdDeviation="1"/>
<feComposite in2="SourceAlpha" operator="in" result="effect1_backgroundBlur_300_595"/>
<feBlend mode="normal" in="SourceGraphic" in2="effect1_backgroundBlur_300_595" result="shape"/>
</filter>
<linearGradient id="paint0_linear_300_595" x1="846.702" y1="416.969" x2="809.378" y2="454.45" gradientUnits="userSpaceOnUse">
<stop stop-color="#232425"/>
<stop offset="0.484375" stop-color="#232425" stop-opacity="0"/>
<stop offset="1" stop-color="#232425"/>
</linearGradient>
</defs>
</svg>
