<svg width="24" height="24" viewBox="0 0 24 24" fill="none" xmlns="http://www.w3.org/2000/svg">
<path d="M12 1.99316C6.486 1.99416 2 6.48016 2 11.9942C2 17.5072 6.486 21.9932 12 21.9942C17.514 21.9942 22 17.5082 22 11.9942C22 6.48016 17.515 1.99416 12 1.99316V1.99316ZM12 19.9942C7.589 19.9932 4 16.4042 4 11.9942C4 7.58316 7.589 3.99416 12 3.99316C16.411 3.99416 20 7.58316 20 11.9942C20 16.4052 16.411 19.9942 12 19.9942Z" fill="#dbe5e6"/>
<path d="M13 8H11V12H7.991L11.996 16.005L16 12H13V8Z" fill="#dbe5e6"/>
</svg>
