<svg width="20" height="20" viewBox="0 0 20 20" fill="none" xmlns="http://www.w3.org/2000/svg">
<path fill-rule="evenodd" clip-rule="evenodd" d="M10.026 0.246094C4.517 0.246094 0.052002 4.71109 0.052002 10.2201C0.052002 14.6261 2.909 18.3651 6.873 19.6851C7.372 19.7751 7.552 19.4681 7.552 19.2041C7.552 18.9671 7.544 18.3391 7.541 17.5081C4.766 18.1101 4.18 16.1701 4.18 16.1701C3.728 15.0181 3.073 14.7111 3.073 14.7111C2.168 14.0921 3.142 14.1061 3.142 14.1061C4.144 14.1761 4.669 15.1341 4.669 15.1341C5.559 16.6581 7.005 16.2181 7.571 15.9631C7.662 15.3181 7.922 14.8781 8.206 14.6291C5.992 14.3781 3.664 13.5221 3.664 9.69909C3.664 8.61209 4.053 7.72009 4.688 7.02409C4.587 6.77109 4.242 5.75609 4.787 4.38409C4.787 4.38409 5.624 4.11509 7.529 5.40509C8.3426 5.18376 9.18184 5.07079 10.025 5.06909C10.8682 5.07046 11.7075 5.18344 12.521 5.40509C14.427 4.11409 15.263 4.38409 15.263 4.38409C15.808 5.75609 15.466 6.77109 15.362 7.02409C16.002 7.72009 16.386 8.61109 16.386 9.69909C16.386 13.5321 14.056 14.3741 11.834 14.6211C12.189 14.9291 12.509 15.5371 12.509 16.4671C12.509 17.8011 12.497 18.8771 12.497 19.2041C12.497 19.4711 12.675 19.7811 13.184 19.6831C17.146 18.3611 20 14.6251 20 10.2201C20 4.71109 15.535 0.246094 10.026 0.246094Z" fill="black"/>
</svg>
