<svg width="37" height="22" viewBox="0 0 37 22" fill="none" xmlns="http://www.w3.org/2000/svg">
<g clip-path="url(#clip0_149_478)">
<path d="M10.3586 7.17895C11.9932 7.17895 13.3182 5.85389 13.3182 4.21936C13.3182 2.58482 11.9932 1.25977 10.3586 1.25977C8.7241 1.25977 7.39905 2.58482 7.39905 4.21936C7.39905 5.85389 8.7241 7.17895 10.3586 7.17895Z" stroke="#DBE5E6" stroke-linecap="round" stroke-linejoin="round"/>
<path d="M15.5379 12.359C15.5379 10.9853 14.9922 9.66797 14.0209 8.69666C13.0496 7.72536 11.7322 7.17969 10.3586 7.17969C8.98497 7.17969 7.6676 7.72536 6.6963 8.69666C5.72499 9.66797 5.17932 10.9853 5.17932 12.359V14.5787H7.39901L8.13891 20.4978H12.5783L13.3182 14.5787H15.5379V12.359Z" stroke="#DBE5E6" stroke-linecap="round" stroke-linejoin="round"/>
</g>
<g clip-path="url(#clip1_149_478)">
<g opacity="0.6">
<path d="M25.8965 7.17895C27.531 7.17895 28.8561 5.85389 28.8561 4.21936C28.8561 2.58482 27.531 1.25977 25.8965 1.25977C24.2619 1.25977 22.9369 2.58482 22.9369 4.21936C22.9369 5.85389 24.2619 7.17895 25.8965 7.17895Z" stroke="#DBE5E6" stroke-linecap="round" stroke-linejoin="round"/>
<path d="M31.0757 12.359C31.0757 10.9853 30.5301 9.66797 29.5588 8.69666C28.5874 7.72536 27.2701 7.17969 25.8964 7.17969C24.5228 7.17969 23.2054 7.72536 22.2341 8.69666C21.2628 9.66797 20.7172 10.9853 20.7172 12.359V14.5787H22.9369L23.6768 20.4978H28.1161L28.856 14.5787H31.0757V12.359Z" stroke="#DBE5E6" stroke-linecap="round" stroke-linejoin="round"/>
</g>
</g>
<defs>
<clipPath id="clip0_149_478">
<rect width="20.7171" height="20.7171" fill="white" transform="translate(0 0.519531)"/>
</clipPath>
<clipPath id="clip1_149_478">
<rect width="20.7171" height="20.7171" fill="white" transform="translate(15.5378 0.519531)"/>
</clipPath>
</defs>
</svg>
