<svg width="83" height="22" viewBox="0 0 83 22" fill="none" xmlns="http://www.w3.org/2000/svg">
<g clip-path="url(#clip0_149_378)">
<path d="M10.3586 7.10082C11.9932 7.10082 13.3182 5.77577 13.3182 4.14123C13.3182 2.50669 11.9932 1.18164 10.3586 1.18164C8.7241 1.18164 7.39905 2.50669 7.39905 4.14123C7.39905 5.77577 8.7241 7.10082 10.3586 7.10082Z" stroke="#DBE5E6" stroke-linecap="round" stroke-linejoin="round"/>
<path d="M15.5379 12.2808C15.5379 10.9072 14.9922 9.58984 14.0209 8.61854C13.0496 7.64724 11.7322 7.10156 10.3586 7.10156C8.98497 7.10156 7.6676 7.64724 6.6963 8.61854C5.72499 9.58984 5.17932 10.9072 5.17932 12.2808V14.5005H7.39901L8.13891 20.4197H12.5783L13.3182 14.5005H15.5379V12.2808Z" stroke="#DBE5E6" stroke-linecap="round" stroke-linejoin="round"/>
</g>
<g clip-path="url(#clip1_149_378)">
<path d="M25.8965 7.10082C27.531 7.10082 28.8561 5.77577 28.8561 4.14123C28.8561 2.50669 27.531 1.18164 25.8965 1.18164C24.2619 1.18164 22.9369 2.50669 22.9369 4.14123C22.9369 5.77577 24.2619 7.10082 25.8965 7.10082Z" stroke="#DBE5E6" stroke-linecap="round" stroke-linejoin="round"/>
<path d="M31.0757 12.2808C31.0757 10.9072 30.5301 9.58984 29.5588 8.61854C28.5874 7.64724 27.2701 7.10156 25.8964 7.10156C24.5228 7.10156 23.2054 7.64724 22.2341 8.61854C21.2628 9.58984 20.7172 10.9072 20.7172 12.2808V14.5005H22.9369L23.6768 20.4197H28.1161L28.856 14.5005H31.0757V12.2808Z" stroke="#DBE5E6" stroke-linecap="round" stroke-linejoin="round"/>
</g>
<g clip-path="url(#clip2_149_378)">
<g opacity="0.3">
<path d="M41.4343 7.10082C43.0689 7.10082 44.3939 5.77577 44.3939 4.14123C44.3939 2.50669 43.0689 1.18164 41.4343 1.18164C39.7998 1.18164 38.4747 2.50669 38.4747 4.14123C38.4747 5.77577 39.7998 7.10082 41.4343 7.10082Z" stroke="#DBE5E6" stroke-linecap="round" stroke-linejoin="round"/>
<path d="M46.6136 12.2808C46.6136 10.9072 46.0679 9.58984 45.0966 8.61854C44.1253 7.64724 42.8079 7.10156 41.4343 7.10156C40.0607 7.10156 38.7433 7.64724 37.772 8.61854C36.8007 9.58984 36.255 10.9072 36.255 12.2808V14.5005H38.4747L39.2146 20.4197H43.654L44.3939 14.5005H46.6136V12.2808Z" stroke="#DBE5E6" stroke-linecap="round" stroke-linejoin="round"/>
</g>
</g>
<g clip-path="url(#clip3_149_378)">
<g opacity="0.3">
<path d="M56.9722 7.10082C58.6067 7.10082 59.9318 5.77577 59.9318 4.14123C59.9318 2.50669 58.6067 1.18164 56.9722 1.18164C55.3376 1.18164 54.0126 2.50669 54.0126 4.14123C54.0126 5.77577 55.3376 7.10082 56.9722 7.10082Z" stroke="#DBE5E6" stroke-linecap="round" stroke-linejoin="round"/>
<path d="M62.1514 12.2808C62.1514 10.9072 61.6057 9.58984 60.6344 8.61854C59.6631 7.64724 58.3458 7.10156 56.9721 7.10156C55.5985 7.10156 54.2811 7.64724 53.3098 8.61854C52.3385 9.58984 51.7928 10.9072 51.7928 12.2808V14.5005H54.0125L54.7524 20.4197H59.1918L59.9317 14.5005H62.1514V12.2808Z" stroke="#DBE5E6" stroke-linecap="round" stroke-linejoin="round"/>
</g>
</g>
<g clip-path="url(#clip4_149_378)">
<g opacity="0.3">
<path d="M72.51 7.10082C74.1445 7.10082 75.4696 5.77577 75.4696 4.14123C75.4696 2.50669 74.1445 1.18164 72.51 1.18164C70.8755 1.18164 69.5504 2.50669 69.5504 4.14123C69.5504 5.77577 70.8755 7.10082 72.51 7.10082Z" stroke="#DBE5E6" stroke-linecap="round" stroke-linejoin="round"/>
<path d="M77.6893 12.2808C77.6893 10.9072 77.1436 9.58984 76.1723 8.61854C75.201 7.64724 73.8836 7.10156 72.51 7.10156C71.1363 7.10156 69.819 7.64724 68.8477 8.61854C67.8764 9.58984 67.3307 10.9072 67.3307 12.2808V14.5005H69.5504L70.2903 20.4197H74.7297L75.4696 14.5005H77.6893V12.2808Z" stroke="#DBE5E6" stroke-linecap="round" stroke-linejoin="round"/>
</g>
</g>
<defs>
<clipPath id="clip0_149_378">
<rect width="20.7171" height="20.7171" fill="white" transform="translate(0 0.441406)"/>
</clipPath>
<clipPath id="clip1_149_378">
<rect width="20.7171" height="20.7171" fill="white" transform="translate(15.5378 0.441406)"/>
</clipPath>
<clipPath id="clip2_149_378">
<rect width="20.7171" height="20.7171" fill="white" transform="translate(31.0757 0.441406)"/>
</clipPath>
<clipPath id="clip3_149_378">
<rect width="20.7171" height="20.7171" fill="white" transform="translate(46.6135 0.441406)"/>
</clipPath>
<clipPath id="clip4_149_378">
<rect width="20.7171" height="20.7171" fill="white" transform="translate(62.1514 0.441406)"/>
</clipPath>
</defs>
</svg>
