<svg width="1659" height="348" viewBox="0 0 1659 348" fill="none" xmlns="http://www.w3.org/2000/svg">
<path d="M375.204 149.048L382.269 156.112L375.153 163.227" stroke="#404E51" stroke-width="2"/>
<path d="M821.237 149.048L828.302 156.112L821.187 163.227" stroke="#404E51" stroke-width="2"/>
<path d="M1267.27 149.048L1274.34 156.112L1267.22 163.227" stroke="#404E51" stroke-width="2"/>
<path d="M167.381 12.4358C272.08 12.4358 286.831 156.011 379.746 156.011M379.746 156.011C297.004 156.011 278.862 311.341 173.739 311.341M379.746 156.011C261.737 156.011 272.928 343.247 111.005 343.247M379.746 156.011C295.309 156.011 331 171.964 219.942 171.964M106.342 47.6999C207.65 47.6999 265.976 156.011 382.289 156.011" stroke="#404E51"/>
<path d="M613.414 12.4358C718.113 12.4358 732.864 156.011 825.78 156.011M825.78 156.011C743.038 156.011 724.896 311.341 619.773 311.341M825.78 156.011C707.771 156.011 718.961 343.247 557.038 343.247M825.78 156.011C741.342 156.011 777.033 171.964 665.976 171.964M552.375 47.6999C653.683 47.6999 712.009 156.011 828.323 156.011" stroke="#404E51"/>
<g clip-path="url(#clip0_401_716)">
<rect x="0.875" y="7.50366" width="296" height="339" fill="#232425"/>
<path d="M0.875 283.504H797.414" stroke="#B0CDCF"/>
<text fill="#B0CDCF" xml:space="preserve" style="white-space: pre" font-family="Meta Serif Pro" font-size="30" font-weight="bold" letter-spacing="0em"><tspan x="16.875" y="321.564">Trend Scouting</tspan></text>
<circle cx="179.738" cy="224.638" r="6.17505" transform="rotate(24.7456 179.738 224.638)" fill="#232425" stroke="#404E51" stroke-width="2"/>
</g>
<rect x="0.875" y="7.50366" width="296" height="339" stroke="#DBE5E6"/>
<path d="M130.681 173.564L171.999 149.778L169.704 98.8226" stroke="#B0CDCF" stroke-dasharray="2 2"/>
<path d="M222.818 137.857L244.159 91.5575L170.048 98.9807L222.818 137.857Z" stroke="#B0CDCF" stroke-dasharray="2 2"/>
<path d="M128.822 45.8821L169.89 99.3235" stroke="#B0CDCF" stroke-dasharray="2 2"/>
<path d="M87.0359 182.553L77.8151 253.982L35.6949 204.629L87.0359 182.553ZM87.0359 182.553L130.524 173.906L76.3145 105.675L87.0359 182.553Z" stroke="#B0CDCF" stroke-dasharray="2 2"/>
<circle cx="87.0353" cy="182.554" r="6.17505" transform="rotate(24.7456 87.0353 182.554)" fill="#232425" stroke="#404E51" stroke-width="2"/>
<circle cx="130.339" cy="173.406" r="6.17505" transform="rotate(24.7456 130.339 173.406)" fill="#232425" stroke="#404E51" stroke-width="2"/>
<circle cx="169.704" cy="98.8226" r="6.17505" transform="rotate(24.7456 169.704 98.8226)" fill="#232425" stroke="#404E51" stroke-width="2"/>
<circle cx="171.999" cy="149.778" r="6.17505" transform="rotate(24.7456 171.999 149.778)" fill="#232425" stroke="#404E51" stroke-width="2"/>
<circle cx="223.292" cy="136.828" r="6.17505" transform="rotate(24.7456 223.292 136.828)" fill="#232425" stroke="#404E51" stroke-width="2"/>
<circle cx="244.316" cy="91.2147" r="6.17505" transform="rotate(24.7456 244.316 91.2147)" fill="#232425" stroke="#404E51" stroke-width="2"/>
<circle cx="128.48" cy="45.7249" r="6.17505" transform="rotate(24.7456 128.48 45.7249)" fill="#232425" stroke="#404E51" stroke-width="2"/>
<circle cx="84.3849" cy="53.8836" r="6.17505" transform="rotate(24.7456 84.3849 53.8836)" fill="#232425" stroke="#404E51" stroke-width="2"/>
<circle cx="133.892" cy="136.58" r="6.17505" transform="rotate(24.7456 133.892 136.58)" fill="#232425" stroke="#404E51" stroke-width="2"/>
<circle cx="231.237" cy="177.081" r="6.17505" transform="rotate(24.7456 231.237 177.081)" fill="#232425" stroke="#404E51" stroke-width="2"/>
<circle cx="36.1954" cy="204.445" r="6.17505" transform="rotate(24.7456 36.1954 204.445)" fill="#232425" stroke="#404E51" stroke-width="2"/>
<circle cx="78.1036" cy="252.452" r="6.17505" transform="rotate(24.7456 78.1036 252.452)" fill="#232425" stroke="#404E51" stroke-width="2"/>
<circle cx="76.4718" cy="105.332" r="6.17505" transform="rotate(24.7456 76.4718 105.332)" fill="#232425" stroke="#404E51" stroke-width="2"/>
<g clip-path="url(#clip1_401_716)">
<rect x="443.875" y="7.50366" width="296" height="339" fill="#232425"/>
<path d="M443.875 283.504H1240.41" stroke="#B0CDCF"/>
<text fill="#B0CDCF" xml:space="preserve" style="white-space: pre" font-family="Meta Serif Pro" font-size="30" font-weight="bold" letter-spacing="0em"><tspan x="459.875" y="321.564">Searchfields</tspan></text>
<circle cx="591.875" cy="144.959" r="111.956" fill="#232425" stroke="#404E51" stroke-width="2"/>
<circle opacity="0.3" cx="591.875" cy="144.959" r="74.7267" fill="#232425" stroke="#404E51" stroke-width="2"/>
<circle opacity="0.3" cx="591.874" cy="144.959" r="33.5959" fill="#232425" stroke="#404E51" stroke-width="2"/>
<circle cx="536.632" cy="188.923" r="6.17505" transform="rotate(24.7456 536.632 188.923)" fill="#232425" stroke="#404E51" stroke-width="2"/>
</g>
<rect x="443.875" y="7.50366" width="296" height="339" stroke="#DBE5E6"/>
<path d="M619.659 167.907C613.46 165.507 611.254 155.388 605.855 139.861C604.849 132.841 613.093 124.311 620.645 117.619C628.196 110.928 630.11 108.727 633.801 101.024C637.491 93.3201 647.04 85.7777 657.762 87.9543C668.485 90.1309 669.685 108.422 669.5 115.2C669.314 121.978 664.286 123.28 664.626 140.712C664.967 158.143 649.658 166.572 640.539 174.545C631.42 182.517 625.858 170.308 619.659 167.907Z" fill="#232425" fill-opacity="0.6" stroke="#404E51"/>
<path d="M596.987 81.6985C599.588 88.2012 594.169 97.5219 587.233 113.345C583.115 119.415 571.626 119.631 561.872 118.981C552.118 118.331 549.3 118.548 541.497 121.582C533.693 124.617 521.988 123.1 516.136 113.345C510.283 103.591 521.988 88.8515 526.757 83.8661C531.526 78.8806 535.861 81.6985 547.566 68.2594C559.271 54.8203 575.528 60.0225 587.233 60.8895C598.938 61.7566 594.386 75.1957 596.987 81.6985Z" fill="#232425" fill-opacity="0.6" stroke="#404E51"/>
<path d="M527.028 213.409C519.94 210.665 517.418 199.095 511.245 181.342C510.095 173.316 519.521 163.562 528.155 155.911C536.789 148.26 533.43 136.936 543.197 136.936C564.939 136.936 578.443 173.918 578.443 182.314C578.443 202.249 561.328 211.883 550.902 220.999C540.475 230.114 534.115 216.154 527.028 213.409Z" fill="#232425" fill-opacity="0.6" stroke="#404E51"/>
<circle cx="632.419" cy="161.457" r="6.17505" transform="rotate(24.7456 632.419 161.457)" fill="#232425" stroke="#B0CDCF" stroke-width="2"/>
<circle cx="542.64" cy="188.923" r="6.17505" transform="rotate(24.7456 542.64 188.923)" fill="#232425" stroke="#B0CDCF" stroke-width="2"/>
<circle cx="546.573" cy="157.944" r="6.17505" transform="rotate(24.7456 546.573 157.944)" fill="#232425" stroke="#B0CDCF" stroke-width="2"/>
<circle cx="559.605" cy="181.994" r="6.17505" transform="rotate(24.7456 559.605 181.994)" fill="#232425" stroke="#B0CDCF" stroke-width="2"/>
<circle cx="527.534" cy="180.842" r="6.17505" transform="rotate(24.7456 527.534 180.842)" fill="#232425" stroke="#B0CDCF" stroke-width="2"/>
<circle cx="580.653" cy="103.825" r="6.17505" transform="rotate(24.7456 580.653 103.825)" fill="#232425" stroke="#B0CDCF" stroke-width="2"/>
<circle cx="530.626" cy="98.8011" r="6.17505" transform="rotate(24.7456 530.626 98.8011)" fill="#232425" stroke="#B0CDCF" stroke-width="2"/>
<circle cx="564.501" cy="87.5687" r="6.17505" transform="rotate(24.7456 564.501 87.5687)" fill="#232425" stroke="#B0CDCF" stroke-width="2"/>
<circle cx="641.058" cy="126.498" r="6.17505" transform="rotate(24.7456 641.058 126.498)" fill="#232425" stroke="#B0CDCF" stroke-width="2"/>
<circle cx="654.091" cy="111.833" r="6.17505" transform="rotate(24.7456 654.091 111.833)" fill="#232425" stroke="#B0CDCF" stroke-width="2"/>
<circle cx="620.948" cy="136.017" r="6.17505" transform="rotate(24.7456 620.948 136.017)" fill="#232425" stroke="#B0CDCF" stroke-width="2"/>
<g clip-path="url(#clip2_401_716)">
<rect x="1329.88" y="7.50366" width="296" height="339" fill="#232425"/>
<path d="M1329.88 283.504H2126.41" stroke="#B0CDCF"/>
<text fill="#B0CDCF" xml:space="preserve" style="white-space: pre" font-family="Meta Serif Pro" font-size="30" font-weight="bold" letter-spacing="0em"><tspan x="1345.88" y="321.564">Stage Gate </tspan></text>
</g>
<rect x="1329.88" y="7.50366" width="296" height="339" stroke="#DBE5E6"/>
<path d="M1454.94 88.2632L1454.94 214.941" stroke="#404E51" stroke-width="2"/>
<path d="M1512.22 121.042L1512.22 182.743" stroke="#404E51" stroke-width="2"/>
<path d="M1401.17 53.3659L1483.38 107.137C1493.67 113.868 1505.11 118.644 1517.13 121.224L1580.33 134.785M1401.17 249.241L1482.47 195.341C1493.35 188.128 1505.53 183.116 1518.34 180.585L1580.33 168.333" stroke="#404E51" stroke-width="2"/>
<path d="M1401.17 53.3659L1483.38 107.137C1493.67 113.868 1505.11 118.644 1517.13 121.224L1580.33 134.785M1401.17 249.241L1482.47 195.341C1493.35 188.128 1505.53 183.116 1518.34 180.585L1580.33 168.333" stroke="#404E51" stroke-width="2"/>
<path d="M1328.66 6.07371L1474.28 101.1M1329.88 296.576L1474.91 200.423" stroke="url(#paint0_linear_401_716)" stroke-width="2"/>
<path d="M1537.65 125.548L1658.36 151.453M1512.49 181.831L1633.2 157.973" stroke="url(#paint1_linear_401_716)" stroke-width="2"/>
<rect x="886.875" y="200.109" width="294" height="59" fill="#232425"/>
<text fill="#DBE5E6" xml:space="preserve" style="white-space: pre" font-family="IBM Plex Sans" font-size="22" letter-spacing="0em"><tspan x="968.875" y="237.859">Technologies</tspan></text>
<rect x="886.875" y="200.109" width="294" height="59" stroke="#DBE5E6" stroke-dasharray="4 4"/>
<rect x="886.875" y="108.473" width="294" height="59" fill="#232425"/>
<text fill="#DBE5E6" xml:space="preserve" style="white-space: pre" font-family="IBM Plex Sans" font-size="22" letter-spacing="0em"><tspan x="971.375" y="146.223">Market Gaps</tspan></text>
<rect x="886.875" y="108.473" width="294" height="59" stroke="#DBE5E6" stroke-dasharray="4 4"/>
<g filter="url(#filter0_d_401_716)">
<rect x="886.375" y="16.3381" width="295" height="60" fill="#232425"/>
<text fill="#DBE5E6" xml:space="preserve" style="white-space: pre" font-family="IBM Plex Sans" font-size="22" letter-spacing="0em"><tspan x="900.875" y="54.5881">Digitale Lead User Analysis</tspan></text>
<rect x="887.375" y="17.3381" width="293" height="58" stroke="#EDF67D" stroke-width="2"/>
</g>
<mask id="mask0_401_716" style="mask-type:alpha" maskUnits="userSpaceOnUse" x="998" y="11" width="277" height="333">
<path d="M1059.45 12.4358C1164.15 12.4358 1178.9 156.011 1271.81 156.011M1271.81 156.011C1189.07 156.011 1170.93 311.341 1065.81 311.341M1271.81 156.011C1153.8 156.011 1164.99 343.247 1003.07 343.247M1271.81 156.011C1187.38 156.011 1223.07 171.964 1112.01 171.964M998.408 47.6999C1099.72 47.6999 1158.04 156.011 1274.36 156.011" stroke="#404E51"/>
</mask>
<g mask="url(#mask0_401_716)">
<rect x="1184.38" y="-4.03589" width="103.619" height="324.964" fill="#404E51"/>
</g>
<rect x="888.875" y="283.004" width="294" height="62" fill="#232425"/>
<text fill="#B0CDCF" xml:space="preserve" style="white-space: pre" font-family="Meta Serif Pro" font-size="30" font-weight="bold" letter-spacing="0em"><tspan x="904.375" y="320.912">Collect Ideas</tspan></text>
<rect x="888.875" y="283.004" width="294" height="62" stroke="#DBE5E6"/>
<circle cx="1413.66" cy="105.768" r="6.17505" transform="rotate(24.7456 1413.66 105.768)" fill="#232425" stroke="#B0CDCF" stroke-width="2"/>
<circle cx="1435.78" cy="96.2489" r="6.17505" transform="rotate(24.7456 1435.78 96.2489)" fill="#232425" stroke="#B0CDCF" stroke-width="2"/>
<circle cx="1477.64" cy="123.981" r="6.17505" transform="rotate(24.7456 1477.64 123.981)" fill="#232425" stroke="#B0CDCF" stroke-width="2"/>
<circle cx="1474.13" cy="165.657" r="6.17505" transform="rotate(24.7456 1474.13 165.657)" fill="#232425" stroke="#EDF67D" stroke-width="2"/>
<circle cx="1493.88" cy="144.218" r="6.17505" transform="rotate(24.7456 1493.88 144.218)" fill="#232425" stroke="#B0CDCF" stroke-width="2"/>
<circle cx="1536.89" cy="144.218" r="6.17505" transform="rotate(24.7456 1536.89 144.218)" fill="#232425" stroke="#EDF67D" stroke-width="2"/>
<circle cx="1416.66" cy="167.152" r="6.17505" transform="rotate(24.7456 1416.66 167.152)" fill="#232425" stroke="#B0CDCF" stroke-width="2"/>
<circle cx="1435.18" cy="130.586" r="6.17505" transform="rotate(40.6899 1435.18 130.586)" fill="#232425" stroke="#B0CDCF" stroke-width="2"/>
<circle cx="1421.2" cy="190.434" r="6.17505" transform="rotate(40.6899 1421.2 190.434)" fill="#232425" stroke="#EDF67D" stroke-width="2"/>
<defs>
<filter id="filter0_d_401_716" x="866.375" y="0.338135" width="335" height="100" filterUnits="userSpaceOnUse" color-interpolation-filters="sRGB">
<feFlood flood-opacity="0" result="BackgroundImageFix"/>
<feColorMatrix in="SourceAlpha" type="matrix" values="0 0 0 0 0 0 0 0 0 0 0 0 0 0 0 0 0 0 127 0" result="hardAlpha"/>
<feOffset dy="4"/>
<feGaussianBlur stdDeviation="10"/>
<feComposite in2="hardAlpha" operator="out"/>
<feColorMatrix type="matrix" values="0 0 0 0 0.929412 0 0 0 0 0.964706 0 0 0 0 0.490196 0 0 0 0.1 0"/>
<feBlend mode="normal" in2="BackgroundImageFix" result="effect1_dropShadow_401_716"/>
<feBlend mode="normal" in="SourceGraphic" in2="effect1_dropShadow_401_716" result="shape"/>
</filter>
<linearGradient id="paint0_linear_401_716" x1="1392.03" y1="145.662" x2="1363.83" y2="145.662" gradientUnits="userSpaceOnUse">
<stop stop-color="#404E51"/>
<stop offset="1" stop-color="#404E51" stop-opacity="0"/>
</linearGradient>
<linearGradient id="paint1_linear_401_716" x1="1584.54" y1="139.151" x2="1616.92" y2="138.577" gradientUnits="userSpaceOnUse">
<stop stop-color="#404E51"/>
<stop offset="1" stop-color="#404E51" stop-opacity="0"/>
</linearGradient>
<clipPath id="clip0_401_716">
<rect x="0.875" y="7.50366" width="296" height="339" fill="white"/>
</clipPath>
<clipPath id="clip1_401_716">
<rect x="443.875" y="7.50366" width="296" height="339" fill="white"/>
</clipPath>
<clipPath id="clip2_401_716">
<rect x="1329.88" y="7.50366" width="296" height="339" fill="white"/>
</clipPath>
</defs>
</svg>
