<svg width="42" height="43" viewBox="0 0 42 43" fill="none" xmlns="http://www.w3.org/2000/svg">
<path d="M41.1035 19.326C40.8516 19.1345 40.5602 19.0025 40.2508 18.9397C39.9414 18.877 39.622 18.8851 39.3161 18.9634C38.8089 19.1062 38.2856 19.1827 37.759 19.1911C34.2973 19.1911 31.4802 16.3537 31.474 12.9978C31.4844 12.9262 31.5074 12.7154 31.5095 12.6437C31.5232 12.3142 31.4597 11.986 31.3243 11.6857C31.1888 11.3854 30.9851 11.1214 30.7297 10.915C30.4742 10.7086 30.1742 10.5656 29.8537 10.4975C29.5333 10.4294 29.2015 10.4382 28.885 10.5231C28.367 10.6701 27.8325 10.7494 27.2944 10.7592C23.8327 10.7592 21.0156 7.92184 21.0156 4.43525C21.0156 3.97782 21.0805 3.49931 21.2228 2.92594C21.3034 2.59866 21.3049 2.25669 21.227 1.92873C21.1492 1.60078 20.9945 1.29641 20.7757 1.04117C20.5569 0.785927 20.2806 0.587269 19.9698 0.461868C19.659 0.336467 19.3229 0.287983 18.9897 0.320485C13.8065 0.807048 8.99187 3.23005 5.49342 7.1126C1.99496 10.9951 0.066091 16.056 0.0864635 21.2991C0.0864635 32.9224 9.47529 42.3788 21.0156 42.3788C32.556 42.3788 41.9448 32.9224 41.9448 21.2991C41.9448 21.1958 41.9385 21.0946 41.9302 20.9618C41.9231 20.6441 41.8452 20.3321 41.7021 20.0489C41.5589 19.7657 41.3544 19.5187 41.1035 19.326V19.326ZM13.6904 8.6512C14.523 8.6512 15.3216 8.98434 15.9103 9.57732C16.4991 10.1703 16.8298 10.9746 16.8298 11.8132C16.8298 12.6518 16.4991 13.456 15.9103 14.049C15.3216 14.642 14.523 14.9751 13.6904 14.9751C12.8578 14.9751 12.0593 14.642 11.4706 14.049C10.8818 13.456 10.5511 12.6518 10.5511 11.8132C10.5511 10.9746 10.8818 10.1703 11.4706 9.57732C12.0593 8.98434 12.8578 8.6512 13.6904 8.6512ZM9.5046 25.515C9.09233 25.515 8.68409 25.4332 8.30321 25.2743C7.92232 25.1154 7.57624 24.8825 7.28472 24.5889C6.9932 24.2953 6.76196 23.9467 6.60419 23.5631C6.44642 23.1794 6.36522 22.7683 6.36522 22.353C6.36522 21.9378 6.44642 21.5266 6.60419 21.143C6.76196 20.7594 6.9932 20.4108 7.28472 20.1172C7.57624 19.8236 7.92232 19.5907 8.30321 19.4318C8.68409 19.2729 9.09233 19.1911 9.5046 19.1911C10.3372 19.1911 11.1357 19.5242 11.7245 20.1172C12.3132 20.7102 12.644 21.5144 12.644 22.353C12.644 23.1916 12.3132 23.9959 11.7245 24.5889C11.1357 25.1819 10.3372 25.515 9.5046 25.515V25.515ZM15.7833 33.9469C14.9507 33.9469 14.1522 33.6138 13.5635 33.0208C12.9747 32.4278 12.644 31.6235 12.644 30.7849C12.644 29.9463 12.9747 29.1421 13.5635 28.5491C14.1522 27.9561 14.9507 27.623 15.7833 27.623C16.616 27.623 17.4145 27.9561 18.0032 28.5491C18.592 29.1421 18.9227 29.9463 18.9227 30.7849C18.9227 31.6235 18.592 32.4278 18.0032 33.0208C17.4145 33.6138 16.616 33.9469 15.7833 33.9469ZM21.0156 20.2451C21.0156 19.4065 21.3464 18.6022 21.9351 18.0092C22.5239 17.4162 23.3224 17.0831 24.155 17.0831C24.9876 17.0831 25.7862 17.4162 26.3749 18.0092C26.9636 18.6022 27.2944 19.4065 27.2944 20.2451C27.2944 21.0837 26.9636 21.8879 26.3749 22.4809C25.7862 23.0739 24.9876 23.407 24.155 23.407C23.3224 23.407 22.5239 23.0739 21.9351 22.4809C21.3464 21.8879 21.0156 21.0837 21.0156 20.2451ZM28.3409 33.9469C27.5082 33.9469 26.7097 33.6138 26.121 33.0208C25.5322 32.4278 25.2015 31.6235 25.2015 30.7849C25.2015 29.9463 25.5322 29.1421 26.121 28.5491C26.7097 27.9561 27.5082 27.623 28.3409 27.623C29.1735 27.623 29.972 27.9561 30.5607 28.5491C31.1495 29.1421 31.4802 29.9463 31.4802 30.7849C31.4802 31.6235 31.1495 32.4278 30.5607 33.0208C29.972 33.6138 29.1735 33.9469 28.3409 33.9469V33.9469Z" fill="black"/>
</svg>
