<svg width="25" height="25" viewBox="0 0 25 25" fill="none" xmlns="http://www.w3.org/2000/svg">
<path d="M20.2605 3.93262H4.2605C3.99528 3.93262 3.74093 4.03797 3.55339 4.22551C3.36585 4.41305 3.2605 4.6674 3.2605 4.93262V20.9326C3.2605 21.1978 3.36585 21.4522 3.55339 21.6397C3.74093 21.8273 3.99528 21.9326 4.2605 21.9326H20.2605C20.5257 21.9326 20.7801 21.8273 20.9676 21.6397C21.1551 21.4522 21.2605 21.1978 21.2605 20.9326V4.93262C21.2605 4.6674 21.1551 4.41305 20.9676 4.22551C20.7801 4.03797 20.5257 3.93262 20.2605 3.93262V3.93262ZM8.5995 19.2696H5.9275V10.6796H8.5995V19.2696ZM7.2635 9.50662C6.85294 9.50662 6.4592 9.34353 6.1689 9.05322C5.87859 8.76291 5.7155 8.36917 5.7155 7.95862C5.7155 7.54806 5.87859 7.15432 6.1689 6.86402C6.4592 6.57371 6.85294 6.41062 7.2635 6.41062C7.67405 6.41062 8.06779 6.57371 8.3581 6.86402C8.64841 7.15432 8.8115 7.54806 8.8115 7.95862C8.8115 8.36917 8.64841 8.76291 8.3581 9.05322C8.06779 9.34353 7.67405 9.50662 7.2635 9.50662V9.50662ZM18.5985 19.2696H15.9295V15.0926C15.9295 14.0966 15.9115 12.8156 14.5415 12.8156C13.1515 12.8156 12.9405 13.9016 12.9405 15.0226V19.2706H10.2735V10.6806H12.8335V11.8546H12.8705C13.2255 11.1796 14.0975 10.4676 15.3945 10.4676C18.0985 10.4676 18.5975 12.2456 18.5975 14.5596V19.2696H18.5985Z" fill="#232425"/>
</svg>
