<svg width="25" height="25" viewBox="0 0 25 25" fill="none" xmlns="http://www.w3.org/2000/svg">
<path d="M18.9905 6.34271L17.7105 7.34271L12.2605 11.3927L6.81051 7.30271L5.53051 6.30271C5.22897 6.05326 4.86086 5.89775 4.4718 5.85546C4.08274 5.81317 3.68982 5.88596 3.34172 6.0648C2.99362 6.24364 2.70564 6.52067 2.51345 6.86159C2.32126 7.2025 2.23332 7.59231 2.26051 7.98271V19.5727C2.26051 19.9334 2.4038 20.2793 2.65885 20.5344C2.91389 20.7894 3.25982 20.9327 3.62051 20.9327H6.81051V13.2127L12.2605 17.3027L17.7105 13.2127V20.9327H20.9005C21.2612 20.9327 21.6071 20.7894 21.8622 20.5344C22.1172 20.2793 22.2605 19.9334 22.2605 19.5727V7.98271C22.2793 7.59567 22.1852 7.21152 21.9898 6.87694C21.7943 6.54235 21.5058 6.27176 21.1595 6.09804C20.8131 5.92433 20.4237 5.85497 20.0387 5.89841C19.6536 5.94184 19.2895 6.0962 18.9905 6.34271V6.34271Z" fill="#232425"/>
</svg>
