<svg width="1659" height="348" viewBox="0 0 1659 348" fill="none" xmlns="http://www.w3.org/2000/svg">
<path d="M374.858 149.521L381.923 156.586L374.808 163.701" stroke="#404E51" stroke-width="2"/>
<path d="M820.892 149.521L827.956 156.586L820.841 163.701" stroke="#404E51" stroke-width="2"/>
<path d="M1266.92 149.521L1273.99 156.586L1266.87 163.701" stroke="#404E51" stroke-width="2"/>
<path d="M167.035 12.9092C271.734 12.9092 286.486 156.485 379.401 156.485M379.401 156.485C296.659 156.485 278.517 311.815 173.394 311.815M379.401 156.485C261.392 156.485 272.582 343.721 110.659 343.721M379.401 156.485C294.963 156.485 330.654 172.437 219.597 172.437M105.996 48.1733C207.304 48.1733 265.63 156.485 381.944 156.485" stroke="#404E51"/>
<path d="M613.069 12.9092C717.768 12.9092 732.519 156.485 825.434 156.485M825.434 156.485C742.692 156.485 724.55 311.815 619.427 311.815M825.434 156.485C707.425 156.485 718.615 343.721 556.692 343.721M825.434 156.485C740.997 156.485 776.687 172.437 665.63 172.437M552.029 48.1733C653.337 48.1733 711.664 156.485 827.977 156.485" stroke="#404E51"/>
<g clip-path="url(#clip0_401_716)">
<rect x="0.529297" y="7.97705" width="296" height="339" fill="#232425"/>
<path d="M0.529297 283.977H797.068" stroke="#B0CDCF"/>
<text fill="#B0CDCF" xml:space="preserve" style="white-space: pre" font-family="Meta Serif Pro" font-size="30" font-weight="bold" letter-spacing="0em"><tspan x="16.5293" y="322.037">Trend Scouting</tspan></text>
<circle cx="179.393" cy="225.112" r="6.17505" transform="rotate(24.7456 179.393 225.112)" fill="#232425" stroke="#404E51" stroke-width="2"/>
</g>
<rect x="0.529297" y="7.97705" width="296" height="339" stroke="#DBE5E6"/>
<path d="M130.335 174.037L171.653 150.252L169.359 99.296" stroke="#B0CDCF" stroke-dasharray="2 2"/>
<path d="M222.473 138.33L243.813 92.0309L169.702 99.4541L222.473 138.33Z" stroke="#B0CDCF" stroke-dasharray="2 2"/>
<path d="M128.477 46.3555L169.544 99.7969" stroke="#B0CDCF" stroke-dasharray="2 2"/>
<path d="M86.6902 183.027L77.4694 254.455L35.3492 205.103L86.6902 183.027ZM86.6902 183.027L130.178 174.38L75.9688 106.148L86.6902 183.027Z" stroke="#B0CDCF" stroke-dasharray="2 2"/>
<circle cx="86.6896" cy="183.027" r="6.17505" transform="rotate(24.7456 86.6896 183.027)" fill="#232425" stroke="#404E51" stroke-width="2"/>
<circle cx="129.993" cy="173.879" r="6.17505" transform="rotate(24.7456 129.993 173.879)" fill="#232425" stroke="#404E51" stroke-width="2"/>
<circle cx="169.358" cy="99.296" r="6.17505" transform="rotate(24.7456 169.358 99.296)" fill="#232425" stroke="#404E51" stroke-width="2"/>
<circle cx="171.653" cy="150.252" r="6.17505" transform="rotate(24.7456 171.653 150.252)" fill="#232425" stroke="#404E51" stroke-width="2"/>
<circle cx="222.946" cy="137.302" r="6.17505" transform="rotate(24.7456 222.946 137.302)" fill="#232425" stroke="#404E51" stroke-width="2"/>
<circle cx="243.97" cy="91.6881" r="6.17505" transform="rotate(24.7456 243.97 91.6881)" fill="#232425" stroke="#404E51" stroke-width="2"/>
<circle cx="128.134" cy="46.1983" r="6.17505" transform="rotate(24.7456 128.134 46.1983)" fill="#232425" stroke="#404E51" stroke-width="2"/>
<circle cx="84.0392" cy="54.357" r="6.17505" transform="rotate(24.7456 84.0392 54.357)" fill="#232425" stroke="#404E51" stroke-width="2"/>
<circle cx="133.546" cy="137.053" r="6.17505" transform="rotate(24.7456 133.546 137.053)" fill="#232425" stroke="#404E51" stroke-width="2"/>
<circle cx="230.892" cy="177.555" r="6.17505" transform="rotate(24.7456 230.892 177.555)" fill="#232425" stroke="#404E51" stroke-width="2"/>
<circle cx="35.8497" cy="204.918" r="6.17505" transform="rotate(24.7456 35.8497 204.918)" fill="#232425" stroke="#404E51" stroke-width="2"/>
<circle cx="77.7579" cy="252.926" r="6.17505" transform="rotate(24.7456 77.7579 252.926)" fill="#232425" stroke="#404E51" stroke-width="2"/>
<circle cx="76.1261" cy="105.806" r="6.17505" transform="rotate(24.7456 76.1261 105.806)" fill="#232425" stroke="#404E51" stroke-width="2"/>
<g clip-path="url(#clip1_401_716)">
<rect x="443.529" y="7.97705" width="296" height="339" fill="#232425"/>
<path d="M443.529 283.977H1240.07" stroke="#B0CDCF"/>
<text fill="#B0CDCF" xml:space="preserve" style="white-space: pre" font-family="Meta Serif Pro" font-size="30" font-weight="bold" letter-spacing="0em"><tspan x="459.529" y="322.037">Searchfields</tspan></text>
<circle cx="591.53" cy="145.433" r="111.956" fill="#232425" stroke="#404E51" stroke-width="2"/>
<circle opacity="0.3" cx="591.529" cy="145.433" r="74.7267" fill="#232425" stroke="#404E51" stroke-width="2"/>
<circle opacity="0.3" cx="591.529" cy="145.433" r="33.5959" fill="#232425" stroke="#404E51" stroke-width="2"/>
<circle cx="536.286" cy="189.397" r="6.17505" transform="rotate(24.7456 536.286 189.397)" fill="#232425" stroke="#404E51" stroke-width="2"/>
</g>
<rect x="443.529" y="7.97705" width="296" height="339" stroke="#DBE5E6"/>
<path d="M619.313 168.381C613.115 165.98 610.908 155.861 605.51 140.335C604.504 133.315 612.748 124.784 620.299 118.093C627.85 111.401 629.764 109.201 633.455 101.497C637.145 93.7935 646.694 86.2511 657.417 88.4277C668.139 90.6043 669.339 108.896 669.154 115.674C668.969 122.452 663.94 123.754 664.281 141.185C664.621 158.617 649.312 167.046 640.193 175.018C631.074 182.991 625.512 170.781 619.313 168.381Z" fill="#232425" fill-opacity="0.6" stroke="#404E51"/>
<path d="M596.642 82.1719C599.243 88.6746 593.824 97.9953 586.887 113.819C582.769 119.888 571.281 120.105 561.526 119.454C551.772 118.804 548.954 119.021 541.151 122.056C533.348 125.09 521.643 123.573 515.79 113.819C509.938 104.065 521.643 89.3249 526.411 84.3395C531.18 79.354 535.515 82.1719 547.22 68.7328C558.925 55.2937 575.182 60.4959 586.887 61.3629C598.592 62.23 594.04 75.6691 596.642 82.1719Z" fill="#232425" fill-opacity="0.6" stroke="#404E51"/>
<path d="M526.682 213.883C519.595 211.138 517.072 199.568 510.899 181.815C509.749 173.789 519.175 164.035 527.809 156.384C536.443 148.734 533.085 137.409 542.851 137.409C564.593 137.409 578.097 174.391 578.097 182.788C578.097 202.722 560.982 212.357 550.556 221.472C540.13 230.587 533.77 216.628 526.682 213.883Z" fill="#232425" fill-opacity="0.6" stroke="#404E51"/>
<circle cx="632.073" cy="161.93" r="6.17505" transform="rotate(24.7456 632.073 161.93)" fill="#232425" stroke="#B0CDCF" stroke-width="2"/>
<circle cx="542.294" cy="189.397" r="6.17505" transform="rotate(24.7456 542.294 189.397)" fill="#232425" stroke="#B0CDCF" stroke-width="2"/>
<circle cx="546.228" cy="158.418" r="6.17505" transform="rotate(24.7456 546.228 158.418)" fill="#232425" stroke="#B0CDCF" stroke-width="2"/>
<circle cx="559.259" cy="182.467" r="6.17505" transform="rotate(24.7456 559.259 182.467)" fill="#232425" stroke="#B0CDCF" stroke-width="2"/>
<circle cx="527.189" cy="181.315" r="6.17505" transform="rotate(24.7456 527.189 181.315)" fill="#232425" stroke="#B0CDCF" stroke-width="2"/>
<circle cx="580.308" cy="104.298" r="6.17505" transform="rotate(24.7456 580.308 104.298)" fill="#232425" stroke="#B0CDCF" stroke-width="2"/>
<circle cx="530.28" cy="99.2745" r="6.17505" transform="rotate(24.7456 530.28 99.2745)" fill="#232425" stroke="#B0CDCF" stroke-width="2"/>
<circle cx="564.155" cy="88.0421" r="6.17505" transform="rotate(24.7456 564.155 88.0421)" fill="#232425" stroke="#B0CDCF" stroke-width="2"/>
<circle cx="640.712" cy="126.971" r="6.17505" transform="rotate(24.7456 640.712 126.971)" fill="#232425" stroke="#B0CDCF" stroke-width="2"/>
<circle cx="653.745" cy="112.307" r="6.17505" transform="rotate(24.7456 653.745 112.307)" fill="#232425" stroke="#B0CDCF" stroke-width="2"/>
<circle cx="620.603" cy="136.491" r="6.17505" transform="rotate(24.7456 620.603 136.491)" fill="#232425" stroke="#B0CDCF" stroke-width="2"/>
<g clip-path="url(#clip2_401_716)">
<rect x="1329.53" y="7.97705" width="296" height="339" fill="#232425"/>
<path d="M1329.53 283.977H2126.07" stroke="#B0CDCF"/>
<text fill="#B0CDCF" xml:space="preserve" style="white-space: pre" font-family="Meta Serif Pro" font-size="30" font-weight="bold" letter-spacing="0em"><tspan x="1345.53" y="322.037">Stage Gate </tspan></text>
</g>
<rect x="1329.53" y="7.97705" width="296" height="339" stroke="#DBE5E6"/>
<path d="M1454.6 88.7366L1454.6 215.414" stroke="#404E51" stroke-width="2"/>
<path d="M1511.88 121.515L1511.88 183.217" stroke="#404E51" stroke-width="2"/>
<path d="M1400.82 53.8393L1483.03 107.611C1493.32 114.342 1504.76 119.117 1516.79 121.697L1579.98 135.258M1400.82 249.714L1482.12 195.814C1493 188.602 1505.19 183.589 1517.99 181.058L1579.98 168.807" stroke="#404E51" stroke-width="2"/>
<path d="M1400.82 53.8393L1483.03 107.611C1493.32 114.342 1504.76 119.117 1516.79 121.697L1579.98 135.258M1400.82 249.714L1482.12 195.814C1493 188.602 1505.19 183.589 1517.99 181.058L1579.98 168.807" stroke="#404E51" stroke-width="2"/>
<path d="M1328.31 6.5471L1473.93 101.574M1329.53 297.049L1474.56 200.896" stroke="url(#paint0_linear_401_716)" stroke-width="2"/>
<path d="M1537.3 126.021L1658.02 151.926M1512.14 182.305L1632.86 158.446" stroke="url(#paint1_linear_401_716)" stroke-width="2"/>
<rect x="886.529" y="200.582" width="294" height="59" fill="#232425"/>
<text fill="#DBE5E6" xml:space="preserve" style="white-space: pre" font-family="IBM Plex Sans" font-size="22" letter-spacing="0em"><tspan x="968.529" y="238.332">Technologies</tspan></text>
<rect x="886.529" y="200.582" width="294" height="59" stroke="#DBE5E6" stroke-dasharray="4 4"/>
<rect x="886.529" y="108.947" width="294" height="59" fill="#232425"/>
<text fill="#DBE5E6" xml:space="preserve" style="white-space: pre" font-family="IBM Plex Sans" font-size="22" letter-spacing="0em"><tspan x="971.029" y="146.697">Market Gaps</tspan></text>
<rect x="886.529" y="108.947" width="294" height="59" stroke="#DBE5E6" stroke-dasharray="4 4"/>
<g filter="url(#filter0_d_401_716)">
<rect x="886.029" y="16.8115" width="295" height="60" fill="#232425"/>
<text fill="#DBE5E6" xml:space="preserve" style="white-space: pre" font-family="IBM Plex Sans" font-size="22" letter-spacing="0em"><tspan x="900.529" y="55.0615">Digitale Lead User Analysis</tspan></text>
<rect x="887.029" y="17.8115" width="293" height="58" stroke="#EDF67D" stroke-width="2"/>
</g>
<mask id="mask0_401_716" style="mask-type:alpha" maskUnits="userSpaceOnUse" x="998" y="12" width="277" height="333">
<path d="M1059.1 12.9092C1163.8 12.9092 1178.55 156.485 1271.47 156.485M1271.47 156.485C1188.73 156.485 1170.58 311.815 1065.46 311.815M1271.47 156.485C1153.46 156.485 1164.65 343.721 1002.73 343.721M1271.47 156.485C1187.03 156.485 1222.72 172.437 1111.66 172.437M998.062 48.1733C1099.37 48.1733 1157.7 156.485 1274.01 156.485" stroke="#404E51"/>
</mask>
<g mask="url(#mask0_401_716)">
<rect x="1184.03" y="-3.5625" width="103.619" height="324.964" fill="#404E51"/>
</g>
<rect x="888.529" y="283.477" width="294" height="62" fill="#232425"/>
<text fill="#B0CDCF" xml:space="preserve" style="white-space: pre" font-family="Meta Serif Pro" font-size="30" font-weight="bold" letter-spacing="0em"><tspan x="904.029" y="321.385">Collect Ideas</tspan></text>
<rect x="888.529" y="283.477" width="294" height="62" stroke="#DBE5E6"/>
<circle cx="1413.31" cy="106.242" r="6.17505" transform="rotate(24.7456 1413.31 106.242)" fill="#232425" stroke="#B0CDCF" stroke-width="2"/>
<circle cx="1435.43" cy="96.7223" r="6.17505" transform="rotate(24.7456 1435.43 96.7223)" fill="#232425" stroke="#B0CDCF" stroke-width="2"/>
<circle cx="1477.29" cy="124.454" r="6.17505" transform="rotate(24.7456 1477.29 124.454)" fill="#232425" stroke="#B0CDCF" stroke-width="2"/>
<circle cx="1473.78" cy="166.13" r="6.17505" transform="rotate(24.7456 1473.78 166.13)" fill="#232425" stroke="#EDF67D" stroke-width="2"/>
<circle cx="1493.53" cy="144.691" r="6.17505" transform="rotate(24.7456 1493.53 144.691)" fill="#232425" stroke="#B0CDCF" stroke-width="2"/>
<circle cx="1536.55" cy="144.691" r="6.17505" transform="rotate(24.7456 1536.55 144.691)" fill="#232425" stroke="#EDF67D" stroke-width="2"/>
<circle cx="1416.32" cy="167.625" r="6.17505" transform="rotate(24.7456 1416.32 167.625)" fill="#232425" stroke="#B0CDCF" stroke-width="2"/>
<circle cx="1434.83" cy="131.06" r="6.17505" transform="rotate(40.6899 1434.83 131.06)" fill="#232425" stroke="#B0CDCF" stroke-width="2"/>
<circle cx="1420.86" cy="190.907" r="6.17505" transform="rotate(40.6899 1420.86 190.907)" fill="#232425" stroke="#EDF67D" stroke-width="2"/>
<defs>
<filter id="filter0_d_401_716" x="866.029" y="0.811523" width="335" height="100" filterUnits="userSpaceOnUse" color-interpolation-filters="sRGB">
<feFlood flood-opacity="0" result="BackgroundImageFix"/>
<feColorMatrix in="SourceAlpha" type="matrix" values="0 0 0 0 0 0 0 0 0 0 0 0 0 0 0 0 0 0 127 0" result="hardAlpha"/>
<feOffset dy="4"/>
<feGaussianBlur stdDeviation="10"/>
<feComposite in2="hardAlpha" operator="out"/>
<feColorMatrix type="matrix" values="0 0 0 0 0.929412 0 0 0 0 0.964706 0 0 0 0 0.490196 0 0 0 0.1 0"/>
<feBlend mode="normal" in2="BackgroundImageFix" result="effect1_dropShadow_401_716"/>
<feBlend mode="normal" in="SourceGraphic" in2="effect1_dropShadow_401_716" result="shape"/>
</filter>
<linearGradient id="paint0_linear_401_716" x1="1391.68" y1="146.135" x2="1363.49" y2="146.135" gradientUnits="userSpaceOnUse">
<stop stop-color="#404E51"/>
<stop offset="1" stop-color="#404E51" stop-opacity="0"/>
</linearGradient>
<linearGradient id="paint1_linear_401_716" x1="1584.19" y1="139.624" x2="1616.57" y2="139.051" gradientUnits="userSpaceOnUse">
<stop stop-color="#404E51"/>
<stop offset="1" stop-color="#404E51" stop-opacity="0"/>
</linearGradient>
<clipPath id="clip0_401_716">
<rect x="0.529297" y="7.97705" width="296" height="339" fill="white"/>
</clipPath>
<clipPath id="clip1_401_716">
<rect x="443.529" y="7.97705" width="296" height="339" fill="white"/>
</clipPath>
<clipPath id="clip2_401_716">
<rect x="1329.53" y="7.97705" width="296" height="339" fill="white"/>
</clipPath>
</defs>
</svg>
