<svg width="1973" height="1941" viewBox="0 0 1973 1941" fill="none" xmlns="http://www.w3.org/2000/svg">
<g id="Group 224">
<g id="Group 136">
<path id="Vector 304" d="M1640 1293H986L1316 648L1640 1293Z" fill="#232425" stroke="#404E51" stroke-width="2"/>
<path id="Vector 305" d="M1964 1938H1310L1640 1293L1964 1938Z" fill="#232425" stroke="#404E51" stroke-width="2"/>
<path id="Vector 306" d="M1310 1938H656L986.002 1293L1310 1938Z" fill="#232425" stroke="#404E51" stroke-width="2"/>
<path id="Vector 307" d="M986 1293H332L662.002 648L986 1293Z" fill="#232425" stroke="#404E51" stroke-width="2"/>
<path id="Vector 311" d="M662 648L1316 648L985.998 1293L662 648Z" fill="#232425" stroke="#404E51" stroke-width="2"/>
<path id="Vector 308" d="M656 1938H2L332.002 1293L656 1938Z" fill="#232425" stroke="#404E51" stroke-width="2"/>
<path id="Vector 309" d="M332 1293L986 1293L655.998 1938L332 1293Z" fill="#232425" stroke="#404E51" stroke-width="2"/>
<path id="Vector 310" d="M986 1293L1640 1293L1310 1938L986 1293Z" fill="#232425" stroke="#404E51" stroke-width="2"/>
<path id="Vector 297" d="M1316 648H662L992.002 3L1316 648Z" fill="#232425" stroke="#404E51" stroke-width="2"/>
</g>
<text id="Contextual&#226;&#128;&#168;Facts" fill="#DBE5E6" xml:space="preserve" style="white-space: pre" font-family="IBM Plex Serif" font-size="36" font-weight="bold" letter-spacing="0em"><tspan x="1750.19" y="1340">Contextual&#x2028;</tspan><tspan x="1848.91" y="1387">Facts</tspan></text>
<text id="Supporting Statements" fill="#DBE5E6" xml:space="preserve" style="white-space: pre" font-family="IBM Plex Serif" font-size="36" font-weight="bold" letter-spacing="0em"><tspan x="297" y="695">Supporting &#10;</tspan><tspan x="297" y="742">Statements</tspan></text>
<text id="Artefact" fill="#DBE5E6" xml:space="preserve" style="white-space: pre" font-family="IBM Plex Serif" font-size="36" font-weight="bold" letter-spacing="0em"><tspan x="1060" y="50">Artefact</tspan></text>
<text id="Lead User Post" fill="#EDF67D" xml:space="preserve" style="white-space: pre" font-family="IBM Plex Serif" font-size="24" font-weight="bold" letter-spacing="0em"><tspan x="901.438" y="565.5">Lead User Post</tspan></text>
<path id="Vector 312" d="M993 3H1205" stroke="#DBE5E6" stroke-width="2"/>
<path id="Vector 314" d="M329 1293L1942 1293" stroke="#DBE5E6" stroke-width="2"/>
<text id="Discussions" fill="#B0CDCF" xml:space="preserve" style="white-space: pre" font-family="IBM Plex Serif" font-size="24" font-weight="bold" letter-spacing="0em"><tspan x="587.477" y="1210.5">Discussions</tspan></text>
<text id="Problems" fill="#B0CDCF" xml:space="preserve" style="white-space: pre" font-family="IBM Plex Serif" font-size="24" font-weight="bold" letter-spacing="0em"><tspan x="1272.08" y="1210.5">Problems</tspan></text>
<text id="Numbers" fill="#B0CDCF" xml:space="preserve" style="white-space: pre" font-family="IBM Plex Serif" font-size="24" font-weight="bold" letter-spacing="0em"><tspan x="276.27" y="1865.5">Numbers</tspan></text>
<text id="Data" fill="#B0CDCF" xml:space="preserve" style="white-space: pre" font-family="IBM Plex Serif" font-size="24" font-weight="bold" letter-spacing="0em"><tspan x="625.254" y="1377.5">Data</tspan></text>
<text id="Facts" fill="#B0CDCF" xml:space="preserve" style="white-space: pre" font-family="IBM Plex Serif" font-size="24" font-weight="bold" letter-spacing="0em"><tspan x="951.469" y="1871.5">Facts</tspan></text>
<text id="Sources" fill="#B0CDCF" xml:space="preserve" style="white-space: pre" font-family="IBM Plex Serif" font-size="24" font-weight="bold" letter-spacing="0em"><tspan x="1596.03" y="1871.5">Sources</tspan></text>
<text id="Which Lead User posts were most inspiring? What was their intention?" fill="#EDF67D" xml:space="preserve" style="white-space: pre" font-family="IBM Plex Mono" font-size="24" font-style="italic" letter-spacing="0em"><tspan x="882.07" y="322">Which Lead User </tspan><tspan x="882.07" y="358">posts were most </tspan><tspan x="918.047" y="394">inspiring?&#10;</tspan><tspan x="990" y="430">&#10;</tspan><tspan x="889.266" y="466">What was their </tspan><tspan x="918.047" y="502">intention?</tspan></text>
<text id="When were the posts posted? How is the like/comment reaction?" fill="#B0CDCF" xml:space="preserve" style="white-space: pre" font-family="IBM Plex Mono" font-size="24" font-style="italic" letter-spacing="0em"><tspan x="892.461" y="1628">When were the </tspan><tspan x="892.461" y="1664">posts posted?&#10;</tspan><tspan x="986" y="1700">&#10;</tspan><tspan x="870.875" y="1736">How is the like/</tspan><tspan x="928.438" y="1772">comment &#10;</tspan><tspan x="921.242" y="1808">reaction?</tspan></text>
<text id="How do others talk about the topic? What are their concerns?" fill="#B0CDCF" xml:space="preserve" style="white-space: pre" font-family="IBM Plex Mono" font-size="24" font-style="italic" letter-spacing="0em"><tspan x="526.484" y="1003">How do others talk </tspan><tspan x="540.875" y="1039">about the topic?&#10;</tspan><tspan x="648.805" y="1075">&#13;&#10;</tspan><tspan x="555.266" y="1111">What are their </tspan><tspan x="591.242" y="1147">concerns?</tspan></text>
<text id="Do others also have this problem? How urgent is the problem?" fill="#B0CDCF" xml:space="preserve" style="white-space: pre" font-family="IBM Plex Mono" font-size="24" font-style="italic" letter-spacing="0em"><tspan x="1229.27" y="1003">Do others also </tspan><tspan x="1200.48" y="1039">have this problem?&#10;</tspan><tspan x="1330" y="1075">&#10;</tspan><tspan x="1207.68" y="1111">How urgent is the </tspan><tspan x="1272.44" y="1147">problem?</tspan></text>
<text id="Are there any graphs or datavizualisation to the cluster possible?" fill="#B0CDCF" xml:space="preserve" style="white-space: pre" font-family="IBM Plex Mono" font-size="22" font-style="italic" letter-spacing="0em"><tspan x="524.086" y="1469.75">Are there any graphs </tspan><tspan x="524.086" y="1502.75">or datavizualisation </tspan><tspan x="563.66" y="1535.75">to the cluster </tspan><tspan x="596.639" y="1568.75">possible?</tspan></text>
<text id="Which sources were used? (Forums, Subreddits,..)&#226;&#128;&#168;What kind of sources are these?" fill="#B0CDCF" xml:space="preserve" style="white-space: pre" font-family="IBM Plex Mono" font-size="24" font-style="italic" letter-spacing="0em"><tspan x="1514.48" y="1664">Which sources were </tspan><tspan x="1543.27" y="1700">used? (Forums, </tspan><tspan x="1543.27" y="1736">Subreddits,..)&#x2028;</tspan><tspan x="1557.66" y="1772">What kind of </tspan><tspan x="1514.48" y="1808">sources are these?</tspan></text>
<text id="How many posts were found to this cluster? From how many posts did you come up with the cluster?" fill="#B0CDCF" xml:space="preserve" style="white-space: pre" font-family="IBM Plex Mono" font-size="24" font-style="italic" letter-spacing="0em"><tspan x="231.266" y="1556">How many posts </tspan><tspan x="202.484" y="1592">were found to this </tspan><tspan x="267.242" y="1628">cluster?&#13;&#10;</tspan><tspan x="332" y="1664">&#10;</tspan><tspan x="238.461" y="1700">From how many </tspan><tspan x="202.484" y="1736">posts did you come </tspan><tspan x="252.852" y="1772">up with the </tspan><tspan x="274.438" y="1808">cluster?</tspan></text>
<text id="Market &#226;&#128;&#168;Participants" fill="#B0CDCF" xml:space="preserve" style="white-space: pre" font-family="IBM Plex Serif" font-size="24" font-weight="bold" letter-spacing="0em"><tspan x="1265.64" y="1377.5">Market &#x2028;</tspan><tspan x="1237.42" y="1408.5">Participants</tspan></text>
<text id="Market &#226;&#128;&#168;Participants Feedback&#226;&#128;&#168;" fill="#B0CDCF" xml:space="preserve" style="white-space: pre" font-family="IBM Plex Serif" font-size="24" font-weight="bold" letter-spacing="0em"><tspan x="947.641" y="732.5">Market &#x2028;</tspan><tspan x="919.422" y="763.5">Participants&#10;</tspan><tspan x="935.816" y="794.5">Feedback&#x2028;</tspan></text>
<text id="Are there already products on the market?" fill="#B0CDCF" xml:space="preserve" style="white-space: pre" font-family="IBM Plex Mono" font-size="24" font-style="italic" letter-spacing="0em"><tspan x="1190.68" y="1472">Are there already </tspan><tspan x="1205.07" y="1508">products on the </tspan><tspan x="1255.44" y="1544">market?&#13;&#10;</tspan></text>
<text id="What is the feedback on their products?" fill="#B0CDCF" xml:space="preserve" style="white-space: pre" font-family="IBM Plex Mono" font-size="24" font-style="italic" letter-spacing="0em"><tspan x="906.852" y="858">What is the </tspan><tspan x="863.68" y="894">feedback on their </tspan><tspan x="921.242" y="930">products?</tspan></text>
<path id="Vector 367" d="M1972 312H1973V311H1972V312ZM1972 1644V1645H1973V1644H1972ZM1822.51 1643.29C1822.12 1643.68 1822.12 1644.32 1822.51 1644.71L1828.88 1651.07C1829.27 1651.46 1829.9 1651.46 1830.29 1651.07C1830.68 1650.68 1830.68 1650.05 1830.29 1649.66L1824.64 1644L1830.29 1638.34C1830.68 1637.95 1830.68 1637.32 1830.29 1636.93C1829.9 1636.54 1829.27 1636.54 1828.88 1636.93L1822.51 1643.29ZM1147 313H1972V311H1147V313ZM1971 312V1644H1973V312H1971ZM1972 1643H1823.22V1645H1972V1643Z" fill="#EDF67D"/>
<path id="Vector 368" d="M496.707 965.293C497.098 965.683 497.098 966.317 496.707 966.707L490.343 973.071C489.953 973.462 489.319 973.462 488.929 973.071C488.538 972.681 488.538 972.047 488.929 971.657L494.586 966L488.929 960.343C488.538 959.953 488.538 959.319 488.929 958.929C489.319 958.538 489.953 958.538 490.343 958.929L496.707 965.293ZM37 966H36V965H37V966ZM37 1644V1645H36V1644H37ZM496 967H37V965H496L496 967ZM38 966V1644H36V966H38ZM37 1643H149.999V1645H37V1643Z" fill="#EDF67D"/>
<text id="Refinement with the help of qualitative data" fill="#EDF67D" xml:space="preserve" style="white-space: pre" font-family="IBM Plex Mono" font-size="24" font-style="italic" letter-spacing="-0.02em"><tspan x="67" y="1020.5">Refinement&#13;&#10;</tspan><tspan x="67" y="1051.5">with the help </tspan><tspan x="67" y="1082.5">of qualitative </tspan><tspan x="67" y="1113.5">data</tspan></text>

<text id="2. research based on the lead user posts" fill="#EDF67D" xml:space="preserve" style="white-space: pre" font-family="IBM Plex Mono" font-size="24" font-style="italic" letter-spacing="-0.02em"><tspan x="1782.5" y="366.5">   research&#10;</tspan><tspan x="1824.71" y="397.5">based on </tspan><tspan x="1824.71" y="428.5">the lead </tspan><tspan x="1796.41" y="459.5">user posts</tspan></text>
<path id="Vector 313" d="M297 648L1316 648" stroke="#DBE5E6" stroke-width="2"/>
<path id="Vector 312_2" d="M1316 648H662L992.002 3L1316 648Z" stroke="url(#paint0_linear_104_958)" stroke-width="2"/>
</g>
<defs>
<linearGradient id="paint0_linear_104_958" x1="989" y1="3" x2="989" y2="648" gradientUnits="userSpaceOnUse">
<stop stop-color="#EDF67D"/>
<stop offset="1" stop-color="#EDF67D" stop-opacity="0"/>
</linearGradient>
</defs>
</svg>
