<svg id="requirements" width="100%" height="100%" viewBox="0 0 1224 594" fill="none" xmlns="http://www.w3.org/2000/svg">
<g id="Group 2263">
<text id="Requirements" fill="#DBE5E6" xml:space="preserve" style="white-space: pre" font-family="IBM Plex Serif" font-size="36" font-weight="bold" letter-spacing="0em"><tspan x="0.807861" y="37.9766">Requirements</tspan></text>
<g id="Group 225">
<rect id="Rectangle 195" x="1.80786" y="257.977" width="475" height="156" stroke="#404E51" stroke-width="2"/>
<g id="Megatrend">
<rect x="29.8079" y="285.977" width="236" height="44" fill="#232425"/>
<text id="Active Community" transform="translate(38.8079 289.977)" fill="#B0CDCF" xml:space="preserve" style="white-space: pre" font-family="IBM Plex Serif" font-size="24" font-weight="bold" letter-spacing="0em"><tspan x="0" y="27">Active Community</tspan></text>
<rect x="29.8079" y="285.977" width="236" height="44" stroke="#404E51" stroke-width="2"/>
</g>
<g id="Megatrend_2">
<rect x="29.8079" y="341.977" width="192" height="44" fill="#232425"/>
<text id="Low-threshold" transform="translate(38.8079 345.977)" fill="#B0CDCF" xml:space="preserve" style="white-space: pre" font-family="IBM Plex Serif" font-size="24" font-weight="bold" letter-spacing="0em"><tspan x="0" y="27">Low-threshold</tspan></text>
<rect x="29.8079" y="341.977" width="192" height="44" stroke="#404E51" stroke-width="2"/>
</g>
<g id="Megatrend_3">
<rect x="233.808" y="341.977" width="214" height="44" fill="#232425"/>
<text id="Emerging Trend" transform="translate(242.808 345.977)" fill="#B0CDCF" xml:space="preserve" style="white-space: pre" font-family="IBM Plex Serif" font-size="24" font-weight="bold" letter-spacing="0em"><tspan x="0" y="27">Emerging Trend</tspan></text>
<rect x="233.808" y="341.977" width="214" height="44" stroke="#404E51" stroke-width="2"/>
</g>
<g id="Megatrend_4">
<rect x="277.808" y="285.977" width="66" height="44" fill="#232425"/>
<text id="B2C" transform="translate(286.808 289.977)" fill="#B0CDCF" xml:space="preserve" style="white-space: pre" font-family="IBM Plex Serif" font-size="24" font-weight="bold" letter-spacing="0em"><tspan x="0" y="27">B2C</tspan></text>
<rect x="277.808" y="285.977" width="66" height="44" stroke="#404E51" stroke-width="2"/>
</g>
</g>
<path id="requirements-path3" d="M478.308 346.477H745.808" stroke="#DBE5E6" stroke-width="2"/>
<path id="requirements-path2" d="M477.808 346.477C624.93 346.477 591.246 155.977 744.808 155.977" stroke="#DBE5E6" stroke-width="2"/>
<path id="requirements-path1" d="M477.808 345.977C624.93 345.977 591.246 525.977 744.808 525.977" stroke="#DBE5E6" stroke-width="2"/>
<path id="Line 15" d="M2.80786 56.9766H727.808" stroke="#404E51" stroke-width="2"/>
<g id="Group 224">
<rect id="Rectangle 194" x="746.808" y="257.977" width="476" height="156" stroke="#404E51" stroke-width="2"/>
<text id="USP development in a new market" fill="#DBE5E6" xml:space="preserve" style="white-space: pre" font-family="IBM Plex Mono" font-size="24" font-style="italic" letter-spacing="0em"><tspan x="755.808" y="359.977">USP development in &#10;</tspan><tspan x="755.808" y="395.977">a new market</tspan></text>
<g id="Group 164">
<rect id="Rectangle 194_2" x="746.808" y="435.977" width="476" height="157" stroke="#404E51" stroke-width="2"/>
<text id="Application of trends in your core business" fill="#B0CDCF" xml:space="preserve" style="white-space: pre" font-family="IBM Plex Mono" font-size="22" font-style="italic" letter-spacing="0em"><tspan x="755.85" y="536.727">Application of trends &#10;</tspan><tspan x="755.85" y="569.727">in your core business</tspan></text>
</g>
<text id="Application" fill="#DBE5E6" xml:space="preserve" style="white-space: pre" font-family="IBM Plex Serif" font-size="36" font-weight="bold" letter-spacing="0em"><tspan x="745.808" y="37.9766">Application</tspan></text>
<rect id="Rectangle 194_3" x="746.808" y="78.9766" width="476" height="157" stroke="#404E51" stroke-width="2"/>
<g id="Group 165">
<text id="Finding competing solutions" fill="#B0CDCF" xml:space="preserve" style="white-space: pre" font-family="IBM Plex Mono" font-size="24" font-style="italic" letter-spacing="0em"><tspan x="755.808" y="180.977">Finding competing </tspan><tspan x="755.808" y="216.977">solutions</tspan></text>
</g>
<g id="Megatrend_5">
<rect x="756.308" y="88.4766" width="274" height="45" fill="#B0CDCF"/>
<text id="Recognize Disruption" transform="translate(765.808 92.9766)" fill="#232425" xml:space="preserve" style="white-space: pre" font-family="IBM Plex Serif" font-size="24" font-weight="bold" letter-spacing="0em"><tspan x="0" y="27">Recognize Disruption</tspan></text>
<rect x="756.308" y="88.4766" width="274" height="45" stroke="#404E51"/>
</g>
<g id="Megatrend_6">
<rect x="756.308" y="267.477" width="260" height="45" fill="#B0CDCF"/>
<text id="Explore New Market" transform="translate(765.808 271.977)" fill="#232425" xml:space="preserve" style="white-space: pre" font-family="IBM Plex Serif" font-size="24" font-weight="bold" letter-spacing="0em"><tspan x="0" y="27">Explore New Market</tspan></text>
<rect x="756.308" y="267.477" width="260" height="45" stroke="#404E51"/>
</g>
<g id="Megatrend_7">
<rect x="756.308" y="445.477" width="258" height="45" fill="#B0CDCF"/>
<text id="Understand a Trend" transform="translate(765.808 449.977)" fill="#232425" xml:space="preserve" style="white-space: pre" font-family="IBM Plex Serif" font-size="24" font-weight="bold" letter-spacing="0em"><tspan x="0" y="27">Understand a Trend</tspan></text>
<rect x="756.308" y="445.477" width="258" height="45" stroke="#404E51"/>
</g>
<path id="Line 16" d="M747.808 56.9766H1223.81" stroke="#404E51" stroke-width="2"/>
</g>
</g>
</svg>
