<svg width="1029" height="516" viewBox="0 0 1029 516" fill="none" xmlns="http://www.w3.org/2000/svg">
<g opacity="0.2">
<path fill-rule="evenodd" clip-rule="evenodd" d="M418.874 514.642L571.693 414.899L571.693 258.052L571.693 257.845L571.693 100.999L418.874 1.25598L418.874 257.845L418.874 514.642Z" fill="#33373A"/>
<path d="M571.693 414.899L571.966 415.318L572.193 415.17L572.193 414.899L571.693 414.899ZM418.874 514.642L418.374 514.642L418.374 515.565L419.147 515.06L418.874 514.642ZM571.693 258.052L572.193 258.052L571.693 258.052ZM571.693 257.845L571.193 257.845L571.693 257.845ZM571.693 100.999L572.193 100.999L572.193 100.728L571.966 100.58L571.693 100.999ZM418.874 1.25598L419.147 0.83728L418.374 0.332581L418.374 1.25598L418.874 1.25598ZM418.874 257.845L418.374 257.845L418.874 257.845ZM571.42 414.48L418.601 514.223L419.147 515.06L571.966 415.318L571.42 414.48ZM571.193 258.052L571.193 414.899L572.193 414.899L572.193 258.052L571.193 258.052ZM572.193 258.052L572.193 257.845L571.193 257.845L571.193 258.052L572.193 258.052ZM572.193 257.845L572.193 100.999L571.193 100.999L571.193 257.845L572.193 257.845ZM571.966 100.58L419.147 0.83728L418.601 1.67468L571.42 101.417L571.966 100.58ZM418.374 1.25598L418.374 257.845L419.374 257.845L419.374 1.25598L418.374 1.25598ZM419.374 514.642L419.374 257.845L418.374 257.845L418.374 514.642L419.374 514.642Z" fill="#33373A"/>
</g>
<g opacity="0.2">
<path fill-rule="evenodd" clip-rule="evenodd" d="M579.673 103.573L732.492 163.574L732.492 257.847L732.492 352.323L579.673 412.323L579.673 258.049L579.673 103.573Z" fill="#33373A"/>
<path d="M732.492 163.574L732.992 163.574L732.992 163.233L732.675 163.108L732.492 163.574ZM579.673 103.573L579.856 103.108L579.173 102.84L579.173 103.573L579.673 103.573ZM732.492 257.847L732.992 257.847L732.492 257.847ZM732.492 352.323L732.675 352.788L732.992 352.664L732.992 352.323L732.492 352.323ZM579.673 412.323L579.173 412.323L579.173 413.057L579.856 412.789L579.673 412.323ZM579.673 258.049L579.173 258.049L579.673 258.049ZM732.675 163.108L579.856 103.108L579.491 104.039L732.31 164.039L732.675 163.108ZM732.992 257.847L732.992 163.574L731.992 163.574L731.992 257.847L732.992 257.847ZM731.992 257.847L731.992 352.323L732.992 352.323L732.992 257.847L731.992 257.847ZM732.31 351.857L579.491 411.858L579.856 412.789L732.675 352.788L732.31 351.857ZM580.173 412.323L580.173 258.049L579.173 258.049L579.173 412.323L580.173 412.323ZM579.173 103.573L579.173 258.049L580.173 258.049L580.173 103.573L579.173 103.573Z" fill="#33373A"/>
</g>
<g opacity="0.2">
<path fill-rule="evenodd" clip-rule="evenodd" d="M740.472 166.029L893.291 201.77L893.291 257.851L893.291 258.046L893.291 314.128L740.472 349.868L740.472 258.046L740.472 166.029Z" fill="#33373A"/>
<path d="M893.291 201.77L893.791 201.77L893.791 201.373L893.405 201.283L893.291 201.77ZM740.472 166.029L740.586 165.542L739.972 165.399L739.972 166.029L740.472 166.029ZM893.291 314.128L893.405 314.615L893.791 314.524L893.791 314.128L893.291 314.128ZM740.472 349.868L739.972 349.868L739.972 350.499L740.586 350.355L740.472 349.868ZM740.472 258.046L739.972 258.046L740.472 258.046ZM893.405 201.283L740.586 165.542L740.358 166.516L893.177 202.256L893.405 201.283ZM893.791 257.851L893.791 201.77L892.791 201.77L892.791 257.851L893.791 257.851ZM892.791 257.851L892.791 258.046L893.791 258.046L893.791 257.851L892.791 257.851ZM892.791 258.046L892.791 314.128L893.791 314.128L893.791 258.046L892.791 258.046ZM893.177 313.641L740.358 349.381L740.586 350.355L893.405 314.615L893.177 313.641ZM740.972 349.868L740.972 258.046L739.972 258.046L739.972 349.868L740.972 349.868ZM739.972 166.029L739.972 258.046L740.972 258.046L740.972 166.029L739.972 166.029Z" fill="#33373A"/>
</g>
<rect opacity="0.2" x="901.271" y="312.452" width="109.007" height="126.704" transform="rotate(-90 901.271 312.452)" fill="#33373A" stroke="#33373A"/>
<path d="M3.38965 258.956C100.512 258.956 318.762 258.956 414.788 258.956" stroke="url(#paint0_linear_76_1171)"  stroke-width="2"  />
<path d="M0.888426 258.929C108.954 258.157 345.008 264.514 418.874 297.856" stroke="url(#paint1_linear_76_1171)"  stroke-width="2"  />
<path d="M0.848385 258.948C77.1098 258.33 268.694 272.201 414.785 338.145" stroke="url(#paint2_linear_76_1171)"  stroke-width="2"  />
<path d="M3.38964 258.957C216.784 258.957 343.998 321.937 416.84 377.045" stroke="url(#paint3_linear_76_1171)"  stroke-width="2"  />
<path d="M0.848382 258.928C239.89 258.928 391.189 371.95 416.838 416.87" stroke="url(#paint4_linear_76_1171)"  stroke-width="2"  />
<path d="M1.05688 258.928C224.71 258.928 346.862 359.262 415.803 456.696" stroke="url(#paint5_linear_76_1171)"  stroke-width="2"  />
<path d="M1.85034 258.94C98.9724 258.94 317.223 258.94 413.249 258.94" stroke="url(#paint6_linear_76_1171)"  stroke-width="2"  />
<path d="M0.880861 258.938C108.946 259.71 343.487 253.383 417.353 220.041" stroke="url(#paint7_linear_76_1171)"  stroke-width="2"  />
<path d="M0.86475 258.938C77.1261 259.555 267.158 245.696 413.249 179.752" stroke="url(#paint8_linear_76_1171)"  stroke-width="2"  />
<path d="M1.85035 258.941C215.244 258.941 342.459 195.96 415.301 140.853" stroke="url(#paint9_linear_76_1171)"  stroke-width="2"  />
<path d="M0.824714 258.938C239.867 258.938 389.652 145.946 415.301 101.026" stroke="url(#paint10_linear_76_1171)"  stroke-width="2"  />
<path d="M0.880868 258.937C224.534 258.937 345.334 158.635 414.275 61.2002" stroke="url(#paint11_linear_76_1171)"  stroke-width="2"  />
<circle cx="467.313" cy="405.166" r="6.65911" transform="rotate(-90 467.313 405.166)" fill="#33373A" stroke="#DBE5E6"/>
<circle cx="505.495" cy="394.56" r="6.65911" transform="rotate(-90 505.495 394.56)" fill="#33373A" stroke="#DBE5E6"/>
<circle cx="452.995" cy="342.589" r="6.65911" transform="rotate(-90 452.995 342.589)" fill="#33373A" stroke="#DBE5E6"/>
<circle cx="452.995" cy="300.271" r="6.65911" transform="rotate(-90 452.995 300.271)" fill="#33373A" stroke="#DBE5E6"/>
<circle cx="617.709" cy="335.43" r="6.65911" transform="rotate(-90 617.709 335.43)" fill="#33373A" stroke="#DBE5E6"/>
<circle cx="619.991" cy="243.634" r="6.65911" transform="rotate(-90 619.991 243.634)" fill="#33373A" stroke="#EDF67D"/>
<circle cx="619.991" cy="201.315" r="6.65911" transform="rotate(-90 619.991 201.315)" fill="#33373A" stroke="#DBE5E6"/>
<circle cx="711.369" cy="285.952" r="6.65911" transform="rotate(-90 711.369 285.952)" fill="#33373A" stroke="#EDF67D"/>
<circle cx="780.816" cy="293.111" r="6.65911" transform="rotate(-90 780.816 293.111)" fill="#33373A" stroke="#EDF67D"/>
<circle cx="782.127" cy="236.475" r="6.65911" transform="rotate(-90 782.127 236.475)" fill="#33373A" stroke="#DBE5E6"/>
<circle cx="821.005" cy="245.63" r="6.65911" transform="rotate(-90 821.005 245.63)" fill="#33373A" stroke="#DBE5E6"/>
<circle cx="945.185" cy="248.211" r="6.65911" transform="rotate(-90 945.185 248.211)" fill="#33373A" stroke="#EDF67D"/>
<circle cx="984.061" cy="257.367" r="6.65911" transform="rotate(-90 984.061 257.367)" fill="#33373A" stroke="#DBE5E6"/>
<circle cx="863.786" cy="277.387" r="6.65911" transform="rotate(-90 863.786 277.387)" fill="#33373A" stroke="#DBE5E6"/>
<circle cx="658.869" cy="233.982" r="6.65911" transform="rotate(-90 658.869 233.982)" fill="#33373A" stroke="#DBE5E6"/>
<circle cx="658.868" cy="191.663" r="6.65911" transform="rotate(-90 658.868 191.663)" fill="#33373A" stroke="#DBE5E6"/>
<circle cx="502.443" cy="324.125" r="6.65911" transform="rotate(-90 502.443 324.125)" fill="#33373A" stroke="#EDF67D"/>
<circle cx="452.995" cy="257.952" r="6.65911" transform="rotate(-90 452.995 257.952)" fill="#33373A" stroke="#DBE5E6"/>
<circle cx="474.472" cy="182.384" r="6.65911" transform="rotate(-90 474.472 182.384)" fill="#33373A" stroke="#EDF67D"/>
<circle cx="509.602" cy="201.315" r="6.65911" transform="rotate(-90 509.602 201.315)" fill="#33373A" stroke="#DBE5E6"/>
<circle cx="452.995" cy="130.997" r="6.65911" transform="rotate(-90 452.995 130.997)" fill="#33373A" stroke="#DBE5E6"/>
<circle cx="505.495" cy="126.615" r="6.65911" transform="rotate(-90 505.495 126.615)" fill="#33373A" stroke="#DBE5E6"/>
<circle cx="452.995" cy="46.3604" r="6.65911" transform="rotate(-90 452.995 46.3604)" fill="#33373A" stroke="#DBE5E6"/>
<defs>
<linearGradient id="paint0_linear_76_1171" x1="3.38965" y1="258.456" x2="414.788" y2="258.456" gradientUnits="userSpaceOnUse">
<stop offset="0.859375" stop-color="#404E51"/>
<stop offset="1" stop-color="#404E51" stop-opacity="0"/>
</linearGradient>
<linearGradient id="paint1_linear_76_1171" x1="0.888427" y1="278.363" x2="418.874" y2="278.363" gradientUnits="userSpaceOnUse">
<stop offset="0.859375" stop-color="#404E51"/>
<stop offset="1" stop-color="#404E51" stop-opacity="0"/>
</linearGradient>
<linearGradient id="paint2_linear_76_1171" x1="0.848387" y1="298.537" x2="414.785" y2="298.537" gradientUnits="userSpaceOnUse">
<stop offset="0.859375" stop-color="#404E51"/>
<stop offset="1" stop-color="#404E51" stop-opacity="0"/>
</linearGradient>
<linearGradient id="paint3_linear_76_1171" x1="3.38965" y1="318.001" x2="416.84" y2="318.001" gradientUnits="userSpaceOnUse">
<stop offset="0.859375" stop-color="#404E51"/>
<stop offset="1" stop-color="#404E51" stop-opacity="0"/>
</linearGradient>
<linearGradient id="paint4_linear_76_1171" x1="0.848385" y1="337.899" x2="416.838" y2="337.899" gradientUnits="userSpaceOnUse">
<stop offset="0.859375" stop-color="#404E51"/>
<stop offset="1" stop-color="#404E51" stop-opacity="0"/>
</linearGradient>
<linearGradient id="paint5_linear_76_1171" x1="1.05688" y1="357.812" x2="415.803" y2="357.812" gradientUnits="userSpaceOnUse">
<stop offset="0.859375" stop-color="#404E51"/>
<stop offset="1" stop-color="#404E51" stop-opacity="0"/>
</linearGradient>
<linearGradient id="paint6_linear_76_1171" x1="1.85034" y1="259.44" x2="413.249" y2="259.44" gradientUnits="userSpaceOnUse">
<stop offset="0.859375" stop-color="#404E51"/>
<stop offset="1" stop-color="#404E51" stop-opacity="0"/>
</linearGradient>
<linearGradient id="paint7_linear_76_1171" x1="0.88086" y1="239.52" x2="417.353" y2="239.519" gradientUnits="userSpaceOnUse">
<stop stop-color="#404E51"/>
<stop offset="1" stop-color="#EDF67D"/>
</linearGradient>
<linearGradient id="paint8_linear_76_1171" x1="0.864748" y1="219.355" x2="413.249" y2="219.355" gradientUnits="userSpaceOnUse">
<stop offset="0.859375" stop-color="#404E51"/>
<stop offset="1" stop-color="#404E51" stop-opacity="0"/>
</linearGradient>
<linearGradient id="paint9_linear_76_1171" x1="1.85034" y1="199.897" x2="415.301" y2="199.897" gradientUnits="userSpaceOnUse">
<stop offset="0.859375" stop-color="#404E51"/>
<stop offset="1" stop-color="#404E51" stop-opacity="0"/>
</linearGradient>
<linearGradient id="paint10_linear_76_1171" x1="0.82471" y1="179.982" x2="415.301" y2="179.982" gradientUnits="userSpaceOnUse">
<stop offset="0.859375" stop-color="#404E51"/>
<stop offset="1" stop-color="#404E51" stop-opacity="0"/>
</linearGradient>
<linearGradient id="paint11_linear_76_1171" x1="0.880864" y1="160.069" x2="414.275" y2="160.069" gradientUnits="userSpaceOnUse">
<stop offset="0.859375" stop-color="#404E51"/>
<stop offset="1" stop-color="#404E51" stop-opacity="0"/>
</linearGradient>
</defs>
</svg>
