<svg width="325" height="280" viewBox="0 0 325 280" fill="none" xmlns="http://www.w3.org/2000/svg">
<g opacity="0.2">
<path fill-rule="evenodd" clip-rule="evenodd" d="M115.727 278.341L198.085 224.587L198.085 140.058L198.085 139.947L198.085 55.418L115.727 1.66406L115.727 139.947L115.727 278.341Z" fill="#33373A"/>
<path d="M198.085 224.587L198.358 225.006L198.585 224.858L198.585 224.587L198.085 224.587ZM115.727 278.341L115.227 278.341L115.227 279.264L116 278.76L115.727 278.341ZM198.085 139.947L197.585 139.947L198.085 139.947ZM198.085 55.418L198.585 55.418L198.585 55.1473L198.358 54.9993L198.085 55.418ZM115.727 1.66406L116 1.24536L115.227 0.740631L115.227 1.66406L115.727 1.66406ZM115.727 139.947L115.227 139.947L115.727 139.947ZM197.812 224.168L115.454 277.922L116 278.76L198.358 225.006L197.812 224.168ZM197.585 140.058L197.585 224.587L198.585 224.587L198.585 140.058L197.585 140.058ZM198.585 140.058L198.585 139.947L197.585 139.947L197.585 140.058L198.585 140.058ZM198.585 139.947L198.585 55.418L197.585 55.418L197.585 139.947L198.585 139.947ZM198.358 54.9993L116 1.24536L115.454 2.08276L197.812 55.8367L198.358 54.9993ZM115.227 1.66406L115.227 139.947L116.227 139.947L116.227 1.66406L115.227 1.66406ZM116.227 278.341L116.227 139.947L115.227 139.947L115.227 278.341L116.227 278.341Z" fill="#33373A"/>
</g>
<g opacity="0.2">
<path fill-rule="evenodd" clip-rule="evenodd" d="M202.385 223.2L284.743 190.864L284.743 140.058L284.743 89.1424L202.385 56.8066L202.385 139.949L202.385 223.2Z" fill="#33373A"/>
<path d="M284.743 190.864L284.926 191.33L285.243 191.205L285.243 190.864L284.743 190.864ZM202.385 223.2L201.885 223.2L201.885 223.934L202.568 223.666L202.385 223.2ZM284.743 140.058L285.243 140.058L284.743 140.058ZM284.743 89.1424L285.243 89.1424L285.243 88.8016L284.926 88.677L284.743 89.1424ZM202.385 56.8066L202.568 56.3412L201.885 56.0732L201.885 56.8066L202.385 56.8066ZM202.385 139.949L201.885 139.949L202.385 139.949ZM284.561 190.399L202.203 222.735L202.568 223.666L284.926 191.33L284.561 190.399ZM284.243 140.058L284.243 190.864L285.243 190.864L285.243 140.058L284.243 140.058ZM285.243 140.058L285.243 89.1424L284.243 89.1424L284.243 140.058L285.243 140.058ZM284.926 88.677L202.568 56.3412L202.203 57.272L284.561 89.6078L284.926 88.677ZM201.885 56.8066L201.885 139.949L202.885 139.949L202.885 56.8066L201.885 56.8066ZM202.885 223.2L202.885 139.949L201.885 139.949L201.885 223.2L202.885 223.2Z" fill="#33373A"/>
</g>
<g opacity="0.2">
<path fill-rule="evenodd" clip-rule="evenodd" d="M289.044 189.54L371.403 170.279L371.403 140.055L371.403 139.95L371.403 109.726L289.044 90.4648L289.044 139.95L289.044 189.54Z" fill="#33373A"/>
<path d="M371.403 170.279L371.516 170.765L371.903 170.675L371.903 170.279L371.403 170.279ZM289.044 189.54L288.544 189.54L288.544 190.17L289.158 190.027L289.044 189.54ZM371.403 140.055L371.903 140.055L371.903 140.055L371.403 140.055ZM371.403 139.95L370.903 139.95L370.903 139.95L371.403 139.95ZM371.403 109.726L371.903 109.726L371.903 109.33L371.516 109.239L371.403 109.726ZM289.044 90.4648L289.158 89.978L288.544 89.8344L288.544 90.4648L289.044 90.4648ZM289.044 139.95L288.544 139.95L289.044 139.95ZM371.289 169.792L288.931 189.053L289.158 190.027L371.516 170.765L371.289 169.792ZM370.903 140.055L370.903 170.279L371.903 170.279L371.903 140.055L370.903 140.055ZM371.903 140.055L371.903 139.95L370.903 139.95L370.903 140.055L371.903 140.055ZM371.903 139.95L371.903 109.726L370.903 109.726L370.903 139.95L371.903 139.95ZM371.516 109.239L289.158 89.978L288.931 90.9517L371.289 110.213L371.516 109.239ZM288.544 90.4648L288.544 139.95L289.544 139.95L289.544 90.4648L288.544 90.4648ZM289.544 189.54L289.544 139.95L288.544 139.95L288.544 189.54L289.544 189.54Z" fill="#33373A"/>
</g>
<path d="M1.0332 140.478C27.8438 140.478 88.0921 140.478 114.6 140.478" stroke="url(#paint0_linear_76_1172)"  stroke-width="2" />
<path d="M0.342284 140.463C30.1738 140.047 95.3369 143.473 115.728 161.442" stroke="#EDF67D"  stroke-width="2" />
<path d="M0.331053 140.474C21.3831 140.141 74.2701 147.616 114.599 183.155" stroke="url(#paint1_linear_76_1172)"  stroke-width="2" />
<path d="M1.0332 140.478C59.9408 140.478 95.0586 174.42 115.167 204.119" stroke="url(#paint2_linear_76_1172)"  stroke-width="2" />
<path d="M0.331051 140.463C66.3188 140.463 108.085 201.374 115.165 225.582" stroke="url(#paint3_linear_76_1172)"  stroke-width="2" />
<path d="M0.389155 140.463C62.1288 140.462 95.8489 194.535 114.88 247.045" stroke="url(#paint4_linear_76_1172)"  stroke-width="2" />
<path d="M0.60791 140.469C27.4185 140.469 87.6668 140.469 114.175 140.469" stroke="url(#paint5_linear_76_1172)"  stroke-width="2" />
<path d="M0.340333 140.467C30.1718 140.883 94.917 137.474 115.308 119.505" stroke="url(#paint6_linear_76_1172)"  stroke-width="2" />
<path d="M0.335939 140.467C21.388 140.8 73.8463 133.331 114.175 97.792" stroke="url(#paint7_linear_76_1172)"  stroke-width="2" />
<path d="M0.607913 140.469C59.5155 140.469 94.6333 106.527 114.741 76.8281" stroke="url(#paint8_linear_76_1172)"  stroke-width="2" />
<path d="M0.324711 140.468C66.3125 140.468 107.661 79.5737 114.741 55.3652" stroke="url(#paint9_linear_76_1172)"  stroke-width="2" />
<path d="M0.340337 140.467C62.08 140.467 95.4269 86.4113 114.458 33.9014" stroke="url(#paint10_linear_76_1172)"  stroke-width="2" />
<circle cx="141.831" cy="219.342" r="3.35823" transform="rotate(-90 141.831 219.342)" fill="#33373A" stroke="#DBE5E6"/>
<circle cx="162.409" cy="213.625" r="3.35823" transform="rotate(-90 162.409 213.625)" fill="#33373A" stroke="#DBE5E6"/>
<circle cx="134.115" cy="185.617" r="3.35823" transform="rotate(-90 134.115 185.617)" fill="#33373A" stroke="#DBE5E6"/>
<circle cx="134.115" cy="162.811" r="3.35823" transform="rotate(-90 134.115 162.811)" fill="#33373A" stroke="#DBE5E6"/>
<circle cx="222.884" cy="181.759" r="3.35823" transform="rotate(-90 222.884 181.759)" fill="#33373A" stroke="#DBE5E6"/>
<circle cx="224.114" cy="132.288" r="3.35823" transform="rotate(-90 224.114 132.288)" fill="#33373A" stroke="#EDF67D"/>
<circle cx="224.114" cy="109.482" r="3.35823" transform="rotate(-90 224.114 109.482)" fill="#33373A" stroke="#DBE5E6"/>
<circle cx="273.36" cy="155.094" r="3.35823" transform="rotate(-90 273.36 155.094)" fill="#33373A" stroke="#EDF67D"/>
<circle cx="310.786" cy="158.952" r="3.35823" transform="rotate(-90 310.786 158.952)" fill="#33373A" stroke="#EDF67D"/>
<circle cx="311.493" cy="128.43" r="3.35823" transform="rotate(-90 311.493 128.43)" fill="#33373A" stroke="#DBE5E6"/>
<circle cx="245.066" cy="127.086" r="3.35823" transform="rotate(-90 245.066 127.086)" fill="#33373A" stroke="#DBE5E6"/>
<circle cx="245.066" cy="104.279" r="3.35823" transform="rotate(-90 245.066 104.279)" fill="#33373A" stroke="#DBE5E6"/>
<circle cx="160.764" cy="175.667" r="3.35823" transform="rotate(-90 160.764 175.667)" fill="#33373A" stroke="#EDF67D"/>
<circle cx="134.115" cy="140.005" r="3.35823" transform="rotate(-90 134.115 140.005)" fill="#33373A" stroke="#DBE5E6"/>
<circle cx="145.69" cy="99.2785" r="3.35823" transform="rotate(-90 145.69 99.2785)" fill="#33373A" stroke="#EDF67D"/>
<circle cx="164.622" cy="109.482" r="3.35823" transform="rotate(-90 164.622 109.482)" fill="#33373A" stroke="#DBE5E6"/>
<circle cx="134.115" cy="71.5851" r="3.35823" transform="rotate(-90 134.115 71.5851)" fill="#33373A" stroke="#DBE5E6"/>
<circle cx="162.409" cy="69.2238" r="3.35823" transform="rotate(-90 162.409 69.2238)" fill="#33373A" stroke="#DBE5E6"/>
<circle cx="134.115" cy="25.9718" r="3.35823" transform="rotate(-90 134.115 25.9718)" fill="#33373A" stroke="#DBE5E6"/>
<defs>
<linearGradient id="paint0_linear_76_1172" x1="1.0332" y1="139.978" x2="114.6" y2="139.978" gradientUnits="userSpaceOnUse">
<stop offset="0.859375" stop-color="#404E51"/>
<stop offset="1" stop-color="#404E51" stop-opacity="0"/>
</linearGradient>
<linearGradient id="paint1_linear_76_1172" x1="0.331054" y1="161.809" x2="114.599" y2="161.809" gradientUnits="userSpaceOnUse">
<stop offset="0.859375" stop-color="#404E51"/>
<stop offset="1" stop-color="#404E51" stop-opacity="0"/>
</linearGradient>
<linearGradient id="paint2_linear_76_1172" x1="1.0332" y1="172.299" x2="115.167" y2="172.299" gradientUnits="userSpaceOnUse">
<stop offset="0.859375" stop-color="#404E51"/>
<stop offset="1" stop-color="#404E51" stop-opacity="0"/>
</linearGradient>
<linearGradient id="paint3_linear_76_1172" x1="0.331053" y1="183.022" x2="115.165" y2="183.022" gradientUnits="userSpaceOnUse">
<stop offset="0.859375" stop-color="#404E51"/>
<stop offset="1" stop-color="#404E51" stop-opacity="0"/>
</linearGradient>
<linearGradient id="paint4_linear_76_1172" x1="0.389158" y1="193.754" x2="114.88" y2="193.754" gradientUnits="userSpaceOnUse">
<stop offset="0.859375" stop-color="#404E51"/>
<stop offset="1" stop-color="#404E51" stop-opacity="0"/>
</linearGradient>
<linearGradient id="paint5_linear_76_1172" x1="0.60791" y1="140.969" x2="114.175" y2="140.969" gradientUnits="userSpaceOnUse">
<stop offset="0.859375" stop-color="#404E51"/>
<stop offset="1" stop-color="#404E51" stop-opacity="0"/>
</linearGradient>
<linearGradient id="paint6_linear_76_1172" x1="0.340332" y1="130.002" x2="115.308" y2="130.002" gradientUnits="userSpaceOnUse">
<stop offset="0.859375" stop-color="#404E51"/>
<stop offset="1" stop-color="#404E51" stop-opacity="0"/>
</linearGradient>
<linearGradient id="paint7_linear_76_1172" x1="0.335938" y1="119.135" x2="114.175" y2="119.135" gradientUnits="userSpaceOnUse">
<stop offset="0.859375" stop-color="#404E51"/>
<stop offset="1" stop-color="#404E51" stop-opacity="0"/>
</linearGradient>
<linearGradient id="paint8_linear_76_1172" x1="0.607912" y1="108.649" x2="114.741" y2="108.649" gradientUnits="userSpaceOnUse">
<stop offset="0.859375" stop-color="#404E51"/>
<stop offset="1" stop-color="#404E51" stop-opacity="0"/>
</linearGradient>
<linearGradient id="paint9_linear_76_1172" x1="0.324709" y1="97.9165" x2="114.741" y2="97.9165" gradientUnits="userSpaceOnUse">
<stop offset="0.859375" stop-color="#404E51"/>
<stop offset="1" stop-color="#404E51" stop-opacity="0"/>
</linearGradient>
<linearGradient id="paint10_linear_76_1172" x1="0.340334" y1="87.1842" x2="114.458" y2="87.1842" gradientUnits="userSpaceOnUse">
<stop offset="0.859375" stop-color="#404E51"/>
<stop offset="1" stop-color="#404E51" stop-opacity="0"/>
</linearGradient>
</defs>
</svg>
