<svg width="1029" height="517" viewBox="0 0 1029 517" fill="none" xmlns="http://www.w3.org/2000/svg">
<g opacity="0.2">
<path fill-rule="evenodd" clip-rule="evenodd" d="M418.899 515.138L571.718 415.395L571.718 258.548L571.718 258.342L571.718 101.495L418.899 1.75208L418.899 258.342L418.899 515.138Z" fill="#33373A"/>
<path d="M571.718 415.395L571.992 415.814L572.218 415.666L572.218 415.395L571.718 415.395ZM418.899 515.138L418.399 515.138L418.399 516.061L419.173 515.556L418.899 515.138ZM571.718 258.548L572.218 258.548L571.718 258.548ZM571.718 258.342L571.218 258.342L571.718 258.342ZM571.718 101.495L572.218 101.495L572.218 101.224L571.992 101.076L571.718 101.495ZM418.899 1.75208L419.173 1.33337L418.399 0.828657L418.399 1.75208L418.899 1.75208ZM418.899 258.342L418.399 258.342L418.899 258.342ZM571.445 414.976L418.626 514.719L419.173 515.556L571.992 415.814L571.445 414.976ZM571.218 258.548L571.218 415.395L572.218 415.395L572.218 258.548L571.218 258.548ZM572.218 258.548L572.218 258.342L571.218 258.342L571.218 258.548L572.218 258.548ZM572.218 258.342L572.218 101.495L571.218 101.495L571.218 258.342L572.218 258.342ZM571.992 101.076L419.173 1.33337L418.626 2.17078L571.445 101.913L571.992 101.076ZM418.399 1.75208L418.399 258.342L419.399 258.342L419.399 1.75208L418.399 1.75208ZM419.399 515.138L419.399 258.342L418.399 258.342L418.399 515.138L419.399 515.138Z" fill="#33373A"/>
</g>
<g opacity="0.2">
<path fill-rule="evenodd" clip-rule="evenodd" d="M579.698 104.071L732.517 164.072L732.517 258.345L732.517 352.821L579.698 412.821L579.698 258.547L579.698 104.071Z" fill="#33373A"/>
<path d="M732.517 164.072L733.017 164.072L733.017 163.731L732.7 163.606L732.517 164.072ZM579.698 104.071L579.881 103.606L579.198 103.338L579.198 104.071L579.698 104.071ZM732.517 258.345L733.017 258.345V258.345L732.517 258.345ZM732.517 352.821L732.7 353.286L733.017 353.162L733.017 352.821L732.517 352.821ZM579.698 412.821L579.198 412.821L579.198 413.555L579.881 413.287L579.698 412.821ZM579.698 258.547L579.198 258.547V258.547L579.698 258.547ZM732.7 163.606L579.881 103.606L579.515 104.537L732.334 164.537L732.7 163.606ZM733.017 258.345L733.017 164.072L732.017 164.072L732.017 258.345L733.017 258.345ZM732.017 258.345L732.017 352.821L733.017 352.821L733.017 258.345L732.017 258.345ZM732.334 352.356L579.516 412.356L579.881 413.287L732.7 353.286L732.334 352.356ZM580.198 412.821L580.198 258.547L579.198 258.547L579.198 412.821L580.198 412.821ZM579.198 104.071L579.198 258.547L580.198 258.547L580.198 104.071L579.198 104.071Z" fill="#33373A"/>
</g>
<g opacity="0.2">
<path fill-rule="evenodd" clip-rule="evenodd" d="M740.497 166.525L893.316 202.266L893.316 258.348L893.316 258.542L893.316 314.624L740.497 350.364L740.497 258.542L740.497 166.525Z" fill="#33373A"/>
<path d="M893.316 202.266L893.816 202.266L893.816 201.869L893.43 201.779L893.316 202.266ZM740.497 166.525L740.611 166.038L739.997 165.895L739.997 166.525L740.497 166.525ZM893.316 314.624L893.43 315.111L893.816 315.02L893.816 314.624L893.316 314.624ZM740.497 350.364L739.997 350.364L739.997 350.995L740.611 350.851L740.497 350.364ZM740.497 258.542L739.997 258.542V258.542L740.497 258.542ZM893.43 201.779L740.611 166.038L740.383 167.012L893.202 202.753L893.43 201.779ZM893.816 258.348L893.816 202.266L892.816 202.266L892.816 258.348L893.816 258.348ZM892.816 258.348L892.816 258.542L893.816 258.542L893.816 258.348L892.816 258.348ZM892.816 258.542L892.816 314.624L893.816 314.624L893.816 258.542L892.816 258.542ZM893.202 314.137L740.383 349.877L740.611 350.851L893.43 315.111L893.202 314.137ZM740.997 350.364L740.997 258.542L739.997 258.542L739.997 350.364L740.997 350.364ZM739.997 166.525L739.997 258.542L740.997 258.542L740.997 166.525L739.997 166.525Z" fill="#33373A"/>
</g>
<rect opacity="0.2" x="901.296" y="313.187" width="109.007" height="126.704" transform="rotate(-90 901.296 313.187)" fill="#33373A" stroke="#33373A"/>
<path d="M3.41443 277.882C100.536 277.882 318.787 277.882 414.813 277.882" stroke="url(#paint0_linear_337_428)" stroke-dasharray="2 2"/>
<path d="M0.913084 277.854C108.978 277.083 345.033 283.44 418.899 316.782" stroke="url(#paint1_linear_337_428)" stroke-dasharray="2 2"/>
<path d="M0.873165 277.874C77.1345 277.256 268.719 291.127 414.81 357.071" stroke="url(#paint2_linear_337_428)" stroke-dasharray="2 2"/>
<path d="M3.41442 277.882C216.808 277.882 344.023 340.863 416.865 395.971" stroke="url(#paint3_linear_337_428)" stroke-dasharray="2 2"/>
<path d="M0.873162 277.854C239.915 277.854 391.214 390.876 416.863 435.796" stroke="url(#paint4_linear_337_428)" stroke-dasharray="2 2"/>
<path d="M1.08166 277.854C224.735 277.854 346.886 378.188 415.828 475.622" stroke="url(#paint5_linear_337_428)" stroke-dasharray="2 2"/>
<path d="M1.87512 277.866C98.9972 277.866 317.248 277.866 413.274 277.866" stroke="url(#paint6_linear_337_428)" stroke-dasharray="2 2"/>
<path d="M0.905641 277.864C108.971 278.635 343.512 272.309 417.378 238.967" stroke="url(#paint7_linear_337_428)" stroke-dasharray="2 2"/>
<path d="M0.889408 277.864C77.1508 278.481 267.182 264.622 413.274 198.678" stroke="url(#paint8_linear_337_428)" stroke-dasharray="2 2"/>
<path d="M1.87513 277.867C215.269 277.867 342.484 214.886 415.326 159.778" stroke="url(#paint9_linear_337_428)" stroke-dasharray="2 2"/>
<path d="M0.849494 277.864C239.892 277.864 389.677 164.872 415.326 119.952" stroke="url(#paint10_linear_337_428)" stroke-dasharray="2 2"/>
<path d="M0.905648 277.863C224.559 277.863 345.359 177.56 414.3 80.126" stroke="url(#paint11_linear_337_428)" stroke-dasharray="2 2"/>
<circle cx="467.338" cy="405.662" r="6.65911" transform="rotate(-90 467.338 405.662)" fill="#33373A" stroke="#DBE5E6"/>
<circle cx="505.52" cy="395.056" r="6.65911" transform="rotate(-90 505.52 395.056)" fill="#33373A" stroke="#DBE5E6"/>
<circle cx="453.02" cy="343.086" r="6.65911" transform="rotate(-90 453.02 343.086)" fill="#33373A" stroke="#DBE5E6"/>
<circle cx="453.02" cy="300.768" r="6.65911" transform="rotate(-90 453.02 300.768)" fill="#33373A" stroke="#DBE5E6"/>
<circle cx="617.734" cy="335.926" r="6.65911" transform="rotate(-90 617.734 335.926)" fill="#33373A" stroke="#DBE5E6"/>
<circle cx="620.016" cy="244.13" r="6.65911" transform="rotate(-90 620.016 244.13)" fill="#33373A" stroke="#EDF67D"/>
<circle cx="620.016" cy="201.812" r="6.65911" transform="rotate(-90 620.016 201.812)" fill="#33373A" stroke="#DBE5E6"/>
<circle cx="711.393" cy="286.448" r="6.65911" transform="rotate(-90 711.393 286.448)" fill="#33373A" stroke="#EDF67D"/>
<circle cx="780.841" cy="293.607" r="6.65911" transform="rotate(-90 780.841 293.607)" fill="#33373A" stroke="#EDF67D"/>
<circle cx="782.153" cy="236.971" r="6.65911" transform="rotate(-90 782.153 236.971)" fill="#33373A" stroke="#DBE5E6"/>
<circle cx="821.03" cy="246.126" r="6.65911" transform="rotate(-90 821.03 246.126)" fill="#33373A" stroke="#DBE5E6"/>
<circle cx="945.209" cy="248.708" r="6.65911" transform="rotate(-90 945.209 248.708)" fill="#33373A" stroke="#EDF67D"/>
<circle cx="984.087" cy="257.863" r="6.65911" transform="rotate(-90 984.087 257.863)" fill="#33373A" stroke="#DBE5E6"/>
<circle cx="863.811" cy="277.883" r="6.65911" transform="rotate(-90 863.811 277.883)" fill="#33373A" stroke="#DBE5E6"/>
<circle cx="658.893" cy="234.478" r="6.65911" transform="rotate(-90 658.893 234.478)" fill="#33373A" stroke="#DBE5E6"/>
<circle cx="658.893" cy="192.159" r="6.65911" transform="rotate(-90 658.893 192.159)" fill="#33373A" stroke="#DBE5E6"/>
<circle cx="502.468" cy="324.621" r="6.65911" transform="rotate(-90 502.468 324.621)" fill="#33373A" stroke="#EDF67D"/>
<circle cx="453.02" cy="258.449" r="6.65911" transform="rotate(-90 453.02 258.449)" fill="#33373A" stroke="#DBE5E6"/>
<circle cx="474.497" cy="182.88" r="6.65911" transform="rotate(-90 474.497 182.88)" fill="#33373A" stroke="#EDF67D"/>
<circle cx="509.627" cy="201.812" r="6.65911" transform="rotate(-90 509.627 201.812)" fill="#33373A" stroke="#DBE5E6"/>
<circle cx="453.02" cy="131.494" r="6.65911" transform="rotate(-90 453.02 131.494)" fill="#33373A" stroke="#DBE5E6"/>
<circle cx="505.52" cy="127.111" r="6.65911" transform="rotate(-90 505.52 127.111)" fill="#33373A" stroke="#DBE5E6"/>
<circle cx="453.02" cy="46.8575" r="6.65911" transform="rotate(-90 453.02 46.8575)" fill="#33373A" stroke="#DBE5E6"/>
<path d="M1.07459 277.864C109.14 278.635 343.681 272.309 417.547 238.967" stroke="url(#paint12_linear_337_428)" stroke-dasharray="2 2"/>
<defs>
<linearGradient id="paint0_linear_337_428" x1="3.41443" y1="277.382" x2="414.813" y2="277.382" gradientUnits="userSpaceOnUse">
<stop offset="0.859375" stop-color="#404E51"/>
<stop offset="1" stop-color="#404E51" stop-opacity="0"/>
</linearGradient>
<linearGradient id="paint1_linear_337_428" x1="0.913085" y1="297.288" x2="418.899" y2="297.288" gradientUnits="userSpaceOnUse">
<stop offset="0.859375" stop-color="#404E51"/>
<stop offset="1" stop-color="#404E51" stop-opacity="0"/>
</linearGradient>
<linearGradient id="paint2_linear_337_428" x1="0.873167" y1="317.463" x2="414.81" y2="317.463" gradientUnits="userSpaceOnUse">
<stop offset="0.859375" stop-color="#404E51"/>
<stop offset="1" stop-color="#404E51" stop-opacity="0"/>
</linearGradient>
<linearGradient id="paint3_linear_337_428" x1="3.41443" y1="336.927" x2="416.865" y2="336.927" gradientUnits="userSpaceOnUse">
<stop offset="0.859375" stop-color="#404E51"/>
<stop offset="1" stop-color="#404E51" stop-opacity="0"/>
</linearGradient>
<linearGradient id="paint4_linear_337_428" x1="0.873165" y1="356.825" x2="416.863" y2="356.825" gradientUnits="userSpaceOnUse">
<stop offset="0.859375" stop-color="#404E51"/>
<stop offset="1" stop-color="#404E51" stop-opacity="0"/>
</linearGradient>
<linearGradient id="paint5_linear_337_428" x1="1.08166" y1="376.738" x2="415.828" y2="376.738" gradientUnits="userSpaceOnUse">
<stop offset="0.859375" stop-color="#404E51"/>
<stop offset="1" stop-color="#404E51" stop-opacity="0"/>
</linearGradient>
<linearGradient id="paint6_linear_337_428" x1="1.87512" y1="278.366" x2="413.274" y2="278.366" gradientUnits="userSpaceOnUse">
<stop offset="0.859375" stop-color="#404E51"/>
<stop offset="1" stop-color="#404E51" stop-opacity="0"/>
</linearGradient>
<linearGradient id="paint7_linear_337_428" x1="0.90564" y1="258.445" x2="417.378" y2="258.445" gradientUnits="userSpaceOnUse">
<stop offset="0.859375" stop-color="#404E51"/>
<stop offset="1" stop-color="#404E51" stop-opacity="0"/>
</linearGradient>
<linearGradient id="paint8_linear_337_428" x1="0.889406" y1="238.28" x2="413.274" y2="238.28" gradientUnits="userSpaceOnUse">
<stop offset="0.859375" stop-color="#404E51"/>
<stop offset="1" stop-color="#404E51" stop-opacity="0"/>
</linearGradient>
<linearGradient id="paint9_linear_337_428" x1="1.87512" y1="218.822" x2="415.326" y2="218.822" gradientUnits="userSpaceOnUse">
<stop offset="0.859375" stop-color="#404E51"/>
<stop offset="1" stop-color="#404E51" stop-opacity="0"/>
</linearGradient>
<linearGradient id="paint10_linear_337_428" x1="0.849491" y1="198.908" x2="415.326" y2="198.908" gradientUnits="userSpaceOnUse">
<stop offset="0.859375" stop-color="#404E51"/>
<stop offset="1" stop-color="#404E51" stop-opacity="0"/>
</linearGradient>
<linearGradient id="paint11_linear_337_428" x1="0.905644" y1="178.995" x2="414.3" y2="178.995" gradientUnits="userSpaceOnUse">
<stop offset="0.859375" stop-color="#404E51"/>
<stop offset="1" stop-color="#404E51" stop-opacity="0"/>
</linearGradient>
<linearGradient id="paint12_linear_337_428" x1="1.07459" y1="258.445" x2="417.547" y2="258.445" gradientUnits="userSpaceOnUse">
<stop stop-color="#404E51"/>
<stop offset="1" stop-color="#EDF67D"/>
</linearGradient>
</defs>
</svg>
