<svg width="25" height="25" viewBox="0 0 25 25" fill="none" xmlns="http://www.w3.org/2000/svg">
<path d="M19.8935 8.92917C19.9065 9.10417 19.9065 9.27817 19.9065 9.45217C19.9065 14.7772 15.8535 20.9132 8.4465 20.9132C6.1645 20.9132 4.0445 20.2522 2.2605 19.1042C2.5845 19.1412 2.8965 19.1542 3.2335 19.1542C5.04649 19.1586 6.80814 18.5523 8.2345 17.4332C7.39392 17.418 6.57907 17.1406 5.90374 16.6399C5.2284 16.1392 4.72628 15.4401 4.4675 14.6402C4.7165 14.6772 4.9665 14.7022 5.2285 14.7022C5.5895 14.7022 5.9525 14.6522 6.2895 14.5652C5.37726 14.381 4.55697 13.8865 3.96812 13.1659C3.37926 12.4452 3.05819 11.5428 3.0595 10.6122V10.5622C3.5965 10.8612 4.2195 11.0482 4.8795 11.0732C4.32659 10.7058 3.87322 10.2072 3.55984 9.62196C3.24646 9.03673 3.08281 8.38303 3.0835 7.71917C3.0835 6.97117 3.2825 6.28517 3.6315 5.68717C4.64364 6.93219 5.906 7.95073 7.33683 8.67683C8.76767 9.40293 10.3351 9.82039 11.9375 9.90217C11.8755 9.60217 11.8375 9.29117 11.8375 8.97917C11.8372 8.45013 11.9412 7.92623 12.1436 7.43741C12.3459 6.94859 12.6426 6.50445 13.0167 6.13036C13.3908 5.75627 13.8349 5.45958 14.3237 5.25725C14.8126 5.05492 15.3365 4.95091 15.8655 4.95117C17.0255 4.95117 18.0725 5.43717 18.8085 6.22317C19.7103 6.04879 20.575 5.71959 21.3645 5.25017C21.0639 6.18099 20.4343 6.97028 19.5935 7.47017C20.3933 7.37895 21.1749 7.16862 21.9125 6.84617C21.3616 7.64927 20.679 8.35352 19.8935 8.92917V8.92917Z" fill="#232425"/>
</svg>
